<svg width="272" height="165" viewBox="0 0 272 165" fill="none" xmlns="http://www.w3.org/2000/svg">
<path d="M4 4H268.812V117.408H136.406L60.7455 161.511V117.408H4V4Z" fill="white" stroke="black" stroke-width="6.20088" stroke-linecap="round" stroke-linejoin="round"/>
<path d="M45.44 47V27.56H50.792C52.104 27.56 53.24 27.704 54.2 27.992C55.16 28.28 55.904 28.8 56.432 29.552C56.976 30.288 57.248 31.336 57.248 32.696C57.248 33.496 57.184 34.208 57.056 34.832C56.928 35.456 56.688 36 56.336 36.464C56 36.912 55.512 37.288 54.872 37.592L57.536 47H53.096L50.96 38.288H49.736V47H45.44ZM49.736 35.816H50.936C51.544 35.816 52.016 35.712 52.352 35.504C52.688 35.28 52.92 34.968 53.048 34.568C53.192 34.152 53.264 33.656 53.264 33.08C53.264 32.248 53.112 31.6 52.808 31.136C52.504 30.672 51.944 30.44 51.128 30.44H49.736V35.816ZM58.8946 47L62.5666 27.56H67.4626L71.0866 47H67.1266L66.4786 42.896H63.6226L62.9506 47H58.8946ZM64.0066 40.328H66.0706L65.0386 32.744L64.0066 40.328ZM74.1875 47L71.8355 27.56H75.4835L76.6355 38.888L78.0995 27.584H80.9555L82.4915 38.816L83.6675 27.56H87.2675L84.9395 47H81.1955L79.5395 35.264L77.9795 47H74.1875ZM87.9103 47L91.5823 27.56H96.4783L100.102 47H96.1423L95.4943 42.896H92.6383L91.9663 47H87.9103ZM93.0223 40.328H95.0863L94.0543 32.744L93.0223 40.328ZM101.129 47L104.801 27.56H109.697L113.321 47H109.361L108.713 42.896H105.857L105.185 47H101.129ZM106.241 40.328H108.305L107.273 32.744L106.241 40.328ZM114.348 47L118.02 27.56H122.916L126.54 47H122.58L121.932 42.896H119.076L118.404 47H114.348ZM119.46 40.328H121.524L120.492 32.744L119.46 40.328ZM133.931 47.288C132.443 47.288 131.275 47.048 130.427 46.568C129.595 46.072 129.011 45.36 128.675 44.432C128.339 43.488 128.171 42.336 128.171 40.976V27.56H132.419V41.624C132.419 42.024 132.451 42.424 132.515 42.824C132.579 43.224 132.715 43.552 132.923 43.808C133.147 44.064 133.483 44.192 133.931 44.192C134.395 44.192 134.731 44.064 134.939 43.808C135.147 43.552 135.275 43.224 135.323 42.824C135.387 42.424 135.419 42.024 135.419 41.624V27.56H139.691V40.976C139.691 42.336 139.515 43.488 139.163 44.432C138.827 45.36 138.243 46.072 137.411 46.568C136.579 47.048 135.419 47.288 133.931 47.288ZM142.424 47V27.56H147.776C149.088 27.56 150.224 27.704 151.184 27.992C152.144 28.28 152.888 28.8 153.416 29.552C153.96 30.288 154.232 31.336 154.232 32.696C154.232 33.496 154.168 34.208 154.04 34.832C153.912 35.456 153.672 36 153.32 36.464C152.984 36.912 152.496 37.288 151.856 37.592L154.52 47H150.08L147.944 38.288H146.72V47H142.424ZM146.72 35.816H147.92C148.528 35.816 149 35.712 149.336 35.504C149.672 35.28 149.904 34.968 150.032 34.568C150.176 34.152 150.248 33.656 150.248 33.08C150.248 32.248 150.096 31.6 149.792 31.136C149.488 30.672 148.928 30.44 148.112 30.44H146.72V35.816ZM156.815 47V27.56H162.167C163.479 27.56 164.615 27.704 165.575 27.992C166.535 28.28 167.279 28.8 167.807 29.552C168.351 30.288 168.623 31.336 168.623 32.696C168.623 33.496 168.559 34.208 168.431 34.832C168.303 35.456 168.063 36 167.711 36.464C167.375 36.912 166.887 37.288 166.247 37.592L168.911 47H164.471L162.335 38.288H161.111V47H156.815ZM161.111 35.816H162.311C162.919 35.816 163.391 35.712 163.727 35.504C164.063 35.28 164.295 34.968 164.423 34.568C164.567 34.152 164.639 33.656 164.639 33.08C164.639 32.248 164.487 31.6 164.183 31.136C163.879 30.672 163.319 30.44 162.503 30.44H161.111V35.816ZM171.206 47V27.56H176.558C177.87 27.56 179.006 27.704 179.966 27.992C180.926 28.28 181.67 28.8 182.198 29.552C182.742 30.288 183.014 31.336 183.014 32.696C183.014 33.496 182.95 34.208 182.822 34.832C182.694 35.456 182.454 36 182.102 36.464C181.766 36.912 181.278 37.288 180.638 37.592L183.302 47H178.862L176.726 38.288H175.502V47H171.206ZM175.502 35.816H176.702C177.31 35.816 177.782 35.712 178.118 35.504C178.454 35.28 178.686 34.968 178.814 34.568C178.958 34.152 179.03 33.656 179.03 33.08C179.03 32.248 178.878 31.6 178.574 31.136C178.27 30.672 177.71 30.44 176.894 30.44H175.502V35.816ZM185.596 47V27.56H190.948C192.26 27.56 193.396 27.704 194.356 27.992C195.316 28.28 196.06 28.8 196.588 29.552C197.132 30.288 197.404 31.336 197.404 32.696C197.404 33.496 197.34 34.208 197.212 34.832C197.084 35.456 196.844 36 196.492 36.464C196.156 36.912 195.668 37.288 195.028 37.592L197.692 47H193.252L191.116 38.288H189.892V47H185.596ZM189.892 35.816H191.092C191.7 35.816 192.172 35.712 192.508 35.504C192.844 35.28 193.076 34.968 193.204 34.568C193.348 34.152 193.42 33.656 193.42 33.08C193.42 32.248 193.268 31.6 192.964 31.136C192.66 30.672 192.1 30.44 191.284 30.44H189.892V35.816ZM200.851 42.056L199.723 27.608H203.611L202.195 42.056H200.851ZM199.651 47V43.352H203.347V47H199.651ZM51.056 95.288C49.568 95.288 48.4 95.048 47.552 94.568C46.72 94.072 46.136 93.36 45.8 92.432C45.464 91.488 45.296 90.336 45.296 88.976V75.56H49.544V89.624C49.544 90.024 49.576 90.424 49.64 90.824C49.704 91.224 49.84 91.552 50.048 91.808C50.272 92.064 50.608 92.192 51.056 92.192C51.52 92.192 51.856 92.064 52.064 91.808C52.272 91.552 52.4 91.224 52.448 90.824C52.512 90.424 52.544 90.024 52.544 89.624V75.56H56.816V88.976C56.816 90.336 56.64 91.488 56.288 92.432C55.952 93.36 55.368 94.072 54.536 94.568C53.704 95.048 52.544 95.288 51.056 95.288ZM65.1654 95.288C63.6774 95.288 62.5094 95.048 61.6614 94.568C60.8294 94.072 60.2454 93.36 59.9094 92.432C59.5734 91.488 59.4054 90.336 59.4054 88.976V75.56H63.6534V89.624C63.6534 90.024 63.6854 90.424 63.7494 90.824C63.8134 91.224 63.9494 91.552 64.1574 91.808C64.3814 92.064 64.7174 92.192 65.1654 92.192C65.6294 92.192 65.9654 92.064 66.1734 91.808C66.3814 91.552 66.5094 91.224 66.5574 90.824C66.6214 90.424 66.6534 90.024 66.6534 89.624V75.56H70.9254V88.976C70.9254 90.336 70.7494 91.488 70.3974 92.432C70.0614 93.36 69.4774 94.072 68.6454 94.568C67.8134 95.048 66.6534 95.288 65.1654 95.288ZM79.2747 95.288C77.7868 95.288 76.6188 95.048 75.7708 94.568C74.9388 94.072 74.3548 93.36 74.0188 92.432C73.6828 91.488 73.5148 90.336 73.5148 88.976V75.56H77.7628V89.624C77.7628 90.024 77.7948 90.424 77.8588 90.824C77.9228 91.224 78.0588 91.552 78.2668 91.808C78.4908 92.064 78.8268 92.192 79.2747 92.192C79.7388 92.192 80.0748 92.064 80.2828 91.808C80.4908 91.552 80.6188 91.224 80.6668 90.824C80.7308 90.424 80.7628 90.024 80.7628 89.624V75.56H85.0348V88.976C85.0348 90.336 84.8588 91.488 84.5068 92.432C84.1708 93.36 83.5868 94.072 82.7548 94.568C81.9228 95.048 80.7628 95.288 79.2747 95.288ZM93.3841 95.288C91.8961 95.288 90.7281 95.048 89.8801 94.568C89.0481 94.072 88.4641 93.36 88.1281 92.432C87.7921 91.488 87.6241 90.336 87.6241 88.976V75.56H91.8721V89.624C91.8721 90.024 91.9041 90.424 91.9681 90.824C92.0321 91.224 92.1681 91.552 92.3761 91.808C92.6001 92.064 92.9361 92.192 93.3841 92.192C93.8481 92.192 94.1841 92.064 94.3921 91.808C94.6001 91.552 94.7281 91.224 94.7761 90.824C94.8401 90.424 94.8721 90.024 94.8721 89.624V75.56H99.1441V88.976C99.1441 90.336 98.9681 91.488 98.6161 92.432C98.2801 93.36 97.6961 94.072 96.8641 94.568C96.0321 95.048 94.8721 95.288 93.3841 95.288ZM107.493 95.288C106.006 95.288 104.838 95.048 103.99 94.568C103.158 94.072 102.574 93.36 102.238 92.432C101.902 91.488 101.734 90.336 101.734 88.976V75.56H105.982V89.624C105.982 90.024 106.014 90.424 106.078 90.824C106.142 91.224 106.278 91.552 106.486 91.808C106.71 92.064 107.046 92.192 107.493 92.192C107.958 92.192 108.294 92.064 108.502 91.808C108.71 91.552 108.838 91.224 108.886 90.824C108.95 90.424 108.982 90.024 108.982 89.624V75.56H113.254V88.976C113.254 90.336 113.078 91.488 112.726 92.432C112.39 93.36 111.806 94.072 110.974 94.568C110.142 95.048 108.982 95.288 107.493 95.288ZM115.987 95V75.56H121.339C122.651 75.56 123.787 75.704 124.747 75.992C125.707 76.28 126.451 76.8 126.979 77.552C127.523 78.288 127.795 79.336 127.795 80.696C127.795 81.496 127.731 82.208 127.603 82.832C127.475 83.456 127.235 84 126.883 84.464C126.547 84.912 126.059 85.288 125.419 85.592L128.083 95H123.643L121.507 86.288H120.283V95H115.987ZM120.283 83.816H121.483C122.091 83.816 122.563 83.712 122.899 83.504C123.235 83.28 123.467 82.968 123.595 82.568C123.739 82.152 123.811 81.656 123.811 81.08C123.811 80.248 123.659 79.6 123.355 79.136C123.051 78.672 122.491 78.44 121.675 78.44H120.283V83.816ZM130.378 95V75.56H135.73C137.042 75.56 138.178 75.704 139.138 75.992C140.098 76.28 140.842 76.8 141.37 77.552C141.914 78.288 142.186 79.336 142.186 80.696C142.186 81.496 142.122 82.208 141.994 82.832C141.866 83.456 141.626 84 141.273 84.464C140.938 84.912 140.45 85.288 139.81 85.592L142.474 95H138.034L135.898 86.288H134.674V95H130.378ZM134.674 83.816H135.874C136.482 83.816 136.954 83.712 137.29 83.504C137.626 83.28 137.858 82.968 137.986 82.568C138.13 82.152 138.202 81.656 138.202 81.08C138.202 80.248 138.05 79.6 137.746 79.136C137.442 78.672 136.882 78.44 136.066 78.44H134.674V83.816ZM144.768 95V75.56H150.12C151.432 75.56 152.568 75.704 153.528 75.992C154.488 76.28 155.232 76.8 155.76 77.552C156.304 78.288 156.576 79.336 156.576 80.696C156.576 81.496 156.512 82.208 156.384 82.832C156.256 83.456 156.016 84 155.664 84.464C155.328 84.912 154.84 85.288 154.2 85.592L156.864 95H152.424L150.288 86.288H149.064V95H144.768ZM149.064 83.816H150.264C150.872 83.816 151.344 83.712 151.68 83.504C152.016 83.28 152.248 82.968 152.376 82.568C152.52 82.152 152.592 81.656 152.592 81.08C152.592 80.248 152.44 79.6 152.136 79.136C151.832 78.672 151.272 78.44 150.456 78.44H149.064V83.816ZM158.223 95L161.895 75.56H166.791L170.415 95H166.455L165.807 90.896H162.951L162.279 95H158.223ZM163.335 88.328H165.399L164.367 80.744L163.335 88.328ZM173.516 95L171.164 75.56H174.812L175.964 86.888L177.428 75.584H180.284L181.82 86.816L182.996 75.56H186.596L184.268 95H180.524L178.868 83.264L177.308 95H173.516ZM190.25 95L187.898 75.56H191.546L192.698 86.888L194.162 75.584H197.018L198.554 86.816L199.73 75.56H203.33L201.002 95H197.258L195.602 83.264L194.042 95H190.25ZM206.984 95L204.632 75.56H208.28L209.432 86.888L210.896 75.584H213.752L215.288 86.816L216.464 75.56H220.064L217.736 95H213.992L212.336 83.264L210.776 95H206.984ZM223.023 90.056L221.895 75.608H225.783L224.367 90.056H223.023ZM221.823 95V91.352H225.519V95H221.823Z" fill="black"/>
</svg>
