<svg width="258" height="117" viewBox="0 0 258 117" fill="none" xmlns="http://www.w3.org/2000/svg">
<path d="M254 4H3.99999V82.48H129L200.429 113V82.48H254V4Z" fill="white" stroke="black" stroke-width="6.20088" stroke-linecap="round" stroke-linejoin="round"/>
<path d="M39.864 54.2L39.312 50H28.512V30.56H32.808V47.096H36.072V30.56H40.368V47.096H43.008V54.2H39.864ZM49.2131 50.24C48.2051 50.24 47.3411 50.064 46.6211 49.712C45.9011 49.344 45.3491 48.816 44.9651 48.128C44.5811 47.424 44.3891 46.584 44.3891 45.608V40.52C44.3891 39.528 44.5811 38.688 44.9651 38C45.3491 37.312 45.9011 36.792 46.6211 36.44C47.3571 36.072 48.2211 35.888 49.2131 35.888C50.2371 35.888 51.0851 36.064 51.7571 36.416C52.4451 36.768 52.9571 37.288 53.2931 37.976C53.6451 38.664 53.8211 39.512 53.8211 40.52V43.304H48.2531V45.968C48.2531 46.32 48.2931 46.608 48.3731 46.832C48.4531 47.056 48.5651 47.216 48.7091 47.312C48.8531 47.408 49.0211 47.456 49.2131 47.456C49.4051 47.456 49.5731 47.416 49.7171 47.336C49.8771 47.24 49.9971 47.096 50.0771 46.904C50.1731 46.712 50.2211 46.448 50.2211 46.112V44.648H53.8211V45.992C53.8211 47.4 53.4131 48.464 52.5971 49.184C51.7811 49.888 50.6531 50.24 49.2131 50.24ZM48.2531 41.48H50.2211V40.088C50.2211 39.72 50.1731 39.432 50.0771 39.224C49.9971 39.016 49.8771 38.872 49.7171 38.792C49.5731 38.712 49.3971 38.672 49.1891 38.672C48.9971 38.672 48.8291 38.72 48.6851 38.816C48.5571 38.912 48.4531 39.08 48.3731 39.32C48.2931 39.544 48.2531 39.872 48.2531 40.304V41.48ZM66.6032 50.24C65.5952 50.24 64.7312 50.056 64.0112 49.688C63.3072 49.32 62.7632 48.792 62.3792 48.104C61.9952 47.416 61.8032 46.584 61.8032 45.608V40.52C61.8032 39.528 61.9952 38.688 62.3792 38C62.7632 37.312 63.3072 36.792 64.0112 36.44C64.7312 36.072 65.5952 35.888 66.6032 35.888C67.5952 35.888 68.4352 36.04 69.1232 36.344C69.8272 36.648 70.3632 37.112 70.7312 37.736C71.0992 38.344 71.2832 39.12 71.2832 40.064V41.528H67.5152V39.944C67.5152 39.576 67.4752 39.296 67.3952 39.104C67.3312 38.896 67.2272 38.752 67.0832 38.672C66.9552 38.592 66.7952 38.552 66.6032 38.552C66.4112 38.552 66.2512 38.608 66.1232 38.72C65.9952 38.816 65.8992 38.984 65.8352 39.224C65.7712 39.448 65.7392 39.768 65.7392 40.184V45.944C65.7392 46.568 65.8112 46.992 65.9552 47.216C66.1152 47.44 66.3392 47.552 66.6272 47.552C66.8352 47.552 67.0032 47.512 67.1312 47.432C67.2592 47.336 67.3552 47.192 67.4192 47C67.4832 46.792 67.5152 46.52 67.5152 46.184V44.336H71.2832V46.016C71.2832 46.944 71.0912 47.728 70.7072 48.368C70.3392 48.992 69.8032 49.464 69.0992 49.784C68.4112 50.088 67.5792 50.24 66.6032 50.24ZM73.3178 50V36.128H83.1578V50H79.2458V38.792H77.2298V50H73.3178ZM85.5756 54.56V36.128H89.4876V37.136C89.9516 36.72 90.4476 36.408 90.9756 36.2C91.5036 35.992 92.0076 35.888 92.4876 35.888C93.0156 35.888 93.4636 35.992 93.8316 36.2C94.2156 36.408 94.5276 36.704 94.7676 37.088C95.0076 37.456 95.1836 37.888 95.2956 38.384C95.4076 38.88 95.4636 39.408 95.4636 39.968V45.944C95.4636 46.808 95.3436 47.56 95.1036 48.2C94.8796 48.84 94.5436 49.344 94.0956 49.712C93.6476 50.064 93.0956 50.24 92.4396 50.24C91.9436 50.24 91.4396 50.128 90.9276 49.904C90.4316 49.664 89.9516 49.344 89.4876 48.944V54.56H85.5756ZM90.5196 47.72C90.7756 47.72 90.9756 47.648 91.1196 47.504C91.2636 47.36 91.3676 47.176 91.4316 46.952C91.5116 46.712 91.5516 46.448 91.5516 46.16V39.68C91.5516 39.408 91.5196 39.168 91.4556 38.96C91.3916 38.736 91.2876 38.56 91.1436 38.432C90.9996 38.304 90.8156 38.24 90.5916 38.24C90.3836 38.24 90.1836 38.288 89.9916 38.384C89.8156 38.464 89.6476 38.576 89.4876 38.72V47.36C89.6636 47.472 89.8316 47.56 89.9916 47.624C90.1676 47.688 90.3436 47.72 90.5196 47.72ZM100.549 50.24C99.8448 50.24 99.2528 50.072 98.7728 49.736C98.2928 49.4 97.9328 48.976 97.6928 48.464C97.4528 47.936 97.3328 47.4 97.3328 46.856C97.3328 45.992 97.5008 45.264 97.8368 44.672C98.1888 44.08 98.6448 43.584 99.2048 43.184C99.7648 42.784 100.381 42.448 101.053 42.176C101.725 41.888 102.389 41.632 103.045 41.408V40.016C103.045 39.776 103.021 39.568 102.973 39.392C102.925 39.2 102.845 39.056 102.733 38.96C102.621 38.848 102.453 38.792 102.229 38.792C102.005 38.792 101.829 38.84 101.701 38.936C101.589 39.032 101.509 39.168 101.461 39.344C101.413 39.504 101.381 39.688 101.365 39.896L101.269 40.904L97.6208 40.76C97.7008 39.096 98.1408 37.872 98.9408 37.088C99.7568 36.288 100.973 35.888 102.589 35.888C103.997 35.888 105.045 36.28 105.733 37.064C106.437 37.832 106.789 38.832 106.789 40.064V46.544C106.789 47.12 106.797 47.624 106.813 48.056C106.845 48.488 106.877 48.864 106.909 49.184C106.957 49.504 106.997 49.776 107.029 50H103.525C103.477 49.632 103.421 49.232 103.357 48.8C103.293 48.368 103.245 48.112 103.213 48.032C103.053 48.608 102.749 49.12 102.301 49.568C101.869 50.016 101.285 50.24 100.549 50.24ZM101.941 47.6C102.101 47.6 102.245 47.568 102.373 47.504C102.517 47.44 102.645 47.352 102.757 47.24C102.869 47.128 102.965 47.016 103.045 46.904V43.112C102.725 43.304 102.429 43.504 102.157 43.712C101.885 43.904 101.653 44.12 101.461 44.36C101.269 44.6 101.117 44.864 101.005 45.152C100.909 45.424 100.861 45.736 100.861 46.088C100.861 46.552 100.957 46.92 101.149 47.192C101.341 47.464 101.605 47.6 101.941 47.6ZM109.107 50V36.128H114.027C115.419 36.128 116.467 36.28 117.171 36.584C117.875 36.872 118.347 37.272 118.587 37.784C118.827 38.296 118.947 38.896 118.947 39.584C118.947 40.496 118.747 41.168 118.347 41.6C117.963 42.016 117.451 42.312 116.811 42.488C117.483 42.648 117.995 42.888 118.347 43.208C118.699 43.528 118.939 43.92 119.067 44.384C119.211 44.848 119.283 45.384 119.283 45.992C119.283 46.888 119.115 47.64 118.779 48.248C118.443 48.84 117.875 49.28 117.075 49.568C116.275 49.856 115.187 50 113.811 50H109.107ZM112.995 47.84H113.643C113.995 47.84 114.307 47.808 114.579 47.744C114.851 47.68 115.067 47.512 115.227 47.24C115.403 46.952 115.491 46.496 115.491 45.872C115.491 45.168 115.411 44.664 115.251 44.36C115.107 44.056 114.899 43.872 114.627 43.808C114.355 43.744 114.035 43.712 113.667 43.712H112.995V47.84ZM112.995 41.6H113.979C114.443 41.6 114.763 41.456 114.939 41.168C115.115 40.864 115.203 40.448 115.203 39.92C115.203 39.408 115.107 38.984 114.915 38.648C114.739 38.312 114.331 38.144 113.691 38.144H112.995V41.6ZM120.168 50L122.928 43.016L120.336 36.128H123.72L125.928 42.704H126.216V36.128H129.48V42.704H129.744L132.096 36.128H135.528L132.768 43.016L135.672 50H132.432L129.744 43.304H129.48V50H126.216V43.304H125.928L123.408 50H120.168ZM137.068 50V36.128H140.98V41.504H143.308V36.128H147.244V50H143.308V44.192H140.98V50H137.068ZM149.701 50V36.128H153.613V50H149.701ZM149.677 33.776V31.064H153.613V33.776H149.677ZM156.029 50V36.128H159.125V43.544L162.749 36.128H165.797V50H162.629V42.656L159.101 50H156.029ZM160.949 34.568C159.813 34.568 158.901 34.248 158.213 33.608C157.525 32.968 157.181 32.04 157.181 30.824H159.389C159.389 31.416 159.501 31.856 159.725 32.144C159.965 32.432 160.373 32.576 160.949 32.576C161.509 32.576 161.909 32.432 162.149 32.144C162.389 31.84 162.509 31.4 162.509 30.824H164.717C164.717 32.04 164.373 32.968 163.685 33.608C162.997 34.248 162.085 34.568 160.949 34.568ZM178.869 50.24C177.861 50.24 176.997 50.056 176.277 49.688C175.573 49.32 175.029 48.792 174.645 48.104C174.261 47.416 174.069 46.584 174.069 45.608V40.52C174.069 39.528 174.261 38.688 174.645 38C175.029 37.312 175.573 36.792 176.277 36.44C176.997 36.072 177.861 35.888 178.869 35.888C179.861 35.888 180.701 36.04 181.389 36.344C182.093 36.648 182.629 37.112 182.997 37.736C183.365 38.344 183.549 39.12 183.549 40.064V41.528H179.781V39.944C179.781 39.576 179.741 39.296 179.661 39.104C179.597 38.896 179.493 38.752 179.349 38.672C179.221 38.592 179.061 38.552 178.869 38.552C178.677 38.552 178.517 38.608 178.389 38.72C178.261 38.816 178.165 38.984 178.101 39.224C178.037 39.448 178.005 39.768 178.005 40.184V45.944C178.005 46.568 178.077 46.992 178.221 47.216C178.381 47.44 178.605 47.552 178.893 47.552C179.101 47.552 179.269 47.512 179.397 47.432C179.525 47.336 179.621 47.192 179.685 47C179.749 46.792 179.781 46.52 179.781 46.184V44.336H183.549V46.016C183.549 46.944 183.357 47.728 182.973 48.368C182.605 48.992 182.069 49.464 181.365 49.784C180.677 50.088 179.845 50.24 178.869 50.24ZM185.583 50V36.128H189.495V41.6H190.071L192.183 36.128H196.383L193.647 42.68L196.455 50H192.327L190.071 43.856H189.495V50H185.583ZM200.674 50.24C199.97 50.24 199.378 50.072 198.898 49.736C198.418 49.4 198.058 48.976 197.818 48.464C197.578 47.936 197.458 47.4 197.458 46.856C197.458 45.992 197.626 45.264 197.962 44.672C198.314 44.08 198.77 43.584 199.33 43.184C199.89 42.784 200.506 42.448 201.178 42.176C201.85 41.888 202.514 41.632 203.17 41.408V40.016C203.17 39.776 203.146 39.568 203.098 39.392C203.05 39.2 202.97 39.056 202.858 38.96C202.746 38.848 202.578 38.792 202.354 38.792C202.13 38.792 201.954 38.84 201.826 38.936C201.714 39.032 201.634 39.168 201.586 39.344C201.538 39.504 201.506 39.688 201.49 39.896L201.394 40.904L197.746 40.76C197.826 39.096 198.266 37.872 199.066 37.088C199.882 36.288 201.098 35.888 202.714 35.888C204.122 35.888 205.17 36.28 205.858 37.064C206.562 37.832 206.914 38.832 206.914 40.064V46.544C206.914 47.12 206.922 47.624 206.938 48.056C206.97 48.488 207.002 48.864 207.034 49.184C207.082 49.504 207.122 49.776 207.154 50H203.65C203.602 49.632 203.546 49.232 203.482 48.8C203.418 48.368 203.37 48.112 203.338 48.032C203.178 48.608 202.874 49.12 202.426 49.568C201.994 50.016 201.41 50.24 200.674 50.24ZM202.066 47.6C202.226 47.6 202.37 47.568 202.498 47.504C202.642 47.44 202.77 47.352 202.882 47.24C202.994 47.128 203.09 47.016 203.17 46.904V43.112C202.85 43.304 202.554 43.504 202.282 43.712C202.01 43.904 201.778 44.12 201.586 44.36C201.394 44.6 201.242 44.864 201.13 45.152C201.034 45.424 200.986 45.736 200.986 46.088C200.986 46.552 201.082 46.92 201.274 47.192C201.466 47.464 201.73 47.6 202.066 47.6ZM209.232 54.56V36.128H213.144V37.136C213.608 36.72 214.104 36.408 214.632 36.2C215.16 35.992 215.664 35.888 216.144 35.888C216.672 35.888 217.12 35.992 217.488 36.2C217.872 36.408 218.184 36.704 218.424 37.088C218.664 37.456 218.84 37.888 218.952 38.384C219.064 38.88 219.12 39.408 219.12 39.968V45.944C219.12 46.808 219 47.56 218.76 48.2C218.536 48.84 218.2 49.344 217.752 49.712C217.304 50.064 216.752 50.24 216.096 50.24C215.6 50.24 215.096 50.128 214.584 49.904C214.088 49.664 213.608 49.344 213.144 48.944V54.56H209.232ZM214.176 47.72C214.432 47.72 214.632 47.648 214.776 47.504C214.92 47.36 215.024 47.176 215.088 46.952C215.168 46.712 215.208 46.448 215.208 46.16V39.68C215.208 39.408 215.176 39.168 215.112 38.96C215.048 38.736 214.944 38.56 214.8 38.432C214.656 38.304 214.472 38.24 214.248 38.24C214.04 38.24 213.84 38.288 213.648 38.384C213.472 38.464 213.304 38.576 213.144 38.72V47.36C213.32 47.472 213.488 47.56 213.648 47.624C213.824 47.688 214 47.72 214.176 47.72ZM225.885 50.24C224.605 50.208 223.621 49.976 222.933 49.544C222.261 49.112 221.805 48.488 221.565 47.672C221.325 46.84 221.205 45.848 221.205 44.696V36.944C221.205 35.664 221.333 34.64 221.589 33.872C221.861 33.104 222.229 32.512 222.693 32.096C223.173 31.68 223.725 31.36 224.349 31.136C224.973 30.912 225.597 30.736 226.221 30.608C226.861 30.48 227.477 30.336 228.069 30.176C228.677 30 229.237 29.744 229.749 29.408L229.893 32.552C229.365 32.824 228.805 33.024 228.213 33.152C227.637 33.264 227.069 33.368 226.509 33.464C225.965 33.544 225.461 33.68 224.997 33.872C224.581 34.032 224.285 34.336 224.109 34.784C223.933 35.216 223.845 35.816 223.845 36.584V37.64C224.053 37.4 224.309 37.2 224.613 37.04C224.933 36.88 225.301 36.76 225.717 36.68C226.149 36.6 226.621 36.56 227.133 36.56C227.981 36.56 228.669 36.72 229.197 37.04C229.725 37.36 230.109 37.888 230.349 38.624C230.605 39.36 230.733 40.36 230.733 41.624V45.008C230.733 46.432 230.525 47.528 230.109 48.296C229.709 49.048 229.141 49.56 228.405 49.832C227.685 50.104 226.845 50.24 225.885 50.24ZM226.053 47.72C226.357 47.72 226.573 47.64 226.701 47.48C226.845 47.32 226.941 47.024 226.989 46.592C227.037 46.144 227.061 45.488 227.061 44.624V40.928C227.061 40.4 227.037 39.984 226.989 39.68C226.941 39.36 226.845 39.136 226.701 39.008C226.557 38.88 226.349 38.816 226.077 38.816C225.901 38.816 225.733 38.872 225.573 38.984C225.429 39.08 225.309 39.248 225.213 39.488C225.117 39.712 225.037 40.032 224.973 40.448V44.6C224.973 45.448 224.997 46.096 225.045 46.544C225.093 46.992 225.197 47.304 225.357 47.48C225.517 47.64 225.749 47.72 226.053 47.72ZM234.031 45.056L232.903 30.608H236.791L235.375 45.056H234.031ZM232.831 50V46.352H236.527V50H232.831Z" fill="black"/>
</svg>
