<svg width="266" height="183" viewBox="0 0 266 183" fill="none" xmlns="http://www.w3.org/2000/svg">
<path d="M262 4H4V130H133L206.714 179V130H262V4Z" fill="white" stroke="black" stroke-width="6.20088" stroke-linecap="round" stroke-linejoin="round"/>
<path d="M70.808 59V51.008C70.008 51.12 69.224 51.176 68.456 51.176C67.528 51.176 66.648 51 65.816 50.648C65 50.28 64.336 49.752 63.824 49.064C63.312 48.36 63.056 47.504 63.056 46.496V39.56H67.352V46.472C67.352 46.872 67.392 47.232 67.472 47.552C67.568 47.856 67.776 48.096 68.096 48.272C68.432 48.448 68.952 48.536 69.656 48.536C69.832 48.536 70.016 48.528 70.208 48.512C70.4 48.496 70.6 48.472 70.808 48.44V39.56H75.104V59H70.808ZM78.233 63.032V60.32C78.729 60.32 79.137 60.288 79.457 60.224C79.793 60.16 80.041 60.04 80.201 59.864C80.377 59.688 80.465 59.448 80.465 59.144C80.465 58.872 80.417 58.544 80.321 58.16C80.225 57.76 80.105 57.312 79.961 56.816L76.697 45.128H80.369L82.121 53.144L83.441 45.128H87.137L83.945 59.336C83.737 60.296 83.409 61.04 82.961 61.568C82.513 62.112 81.961 62.488 81.305 62.696C80.665 62.92 79.937 63.032 79.121 63.032H78.233ZM93.1428 59.24C91.8628 59.208 90.8788 58.976 90.1908 58.544C89.5188 58.112 89.0628 57.488 88.8228 56.672C88.5828 55.84 88.4628 54.848 88.4628 53.696V45.944C88.4628 44.664 88.5908 43.64 88.8468 42.872C89.1188 42.104 89.4868 41.512 89.9508 41.096C90.4308 40.68 90.9828 40.36 91.6068 40.136C92.2308 39.912 92.8548 39.736 93.4788 39.608C94.1188 39.48 94.7348 39.336 95.3268 39.176C95.9348 39 96.4948 38.744 97.0068 38.408L97.1508 41.552C96.6228 41.824 96.0628 42.024 95.4708 42.152C94.8948 42.264 94.3268 42.368 93.7668 42.464C93.2228 42.544 92.7188 42.68 92.2548 42.872C91.8388 43.032 91.5428 43.336 91.3668 43.784C91.1908 44.216 91.1028 44.816 91.1028 45.584V46.64C91.3108 46.4 91.5668 46.2 91.8708 46.04C92.1908 45.88 92.5588 45.76 92.9748 45.68C93.4068 45.6 93.8788 45.56 94.3908 45.56C95.2388 45.56 95.9268 45.72 96.4548 46.04C96.9828 46.36 97.3668 46.888 97.6068 47.624C97.8628 48.36 97.9908 49.36 97.9908 50.624V54.008C97.9908 55.432 97.7828 56.528 97.3668 57.296C96.9668 58.048 96.3988 58.56 95.6628 58.832C94.9428 59.104 94.1028 59.24 93.1428 59.24ZM93.3108 56.72C93.6148 56.72 93.8308 56.64 93.9588 56.48C94.1028 56.32 94.1988 56.024 94.2468 55.592C94.2948 55.144 94.3188 54.488 94.3188 53.624V49.928C94.3188 49.4 94.2948 48.984 94.2468 48.68C94.1988 48.36 94.1028 48.136 93.9588 48.008C93.8148 47.88 93.6068 47.816 93.3348 47.816C93.1588 47.816 92.9908 47.872 92.8308 47.984C92.6868 48.08 92.5668 48.248 92.4708 48.488C92.3748 48.712 92.2948 49.032 92.2308 49.448V53.6C92.2308 54.448 92.2548 55.096 92.3028 55.544C92.3508 55.992 92.4548 56.304 92.6148 56.48C92.7748 56.64 93.0068 56.72 93.3108 56.72ZM103.064 59.24C102.36 59.24 101.768 59.072 101.288 58.736C100.808 58.4 100.448 57.976 100.208 57.464C99.9684 56.936 99.8484 56.4 99.8484 55.856C99.8484 54.992 100.016 54.264 100.352 53.672C100.704 53.08 101.16 52.584 101.72 52.184C102.28 51.784 102.896 51.448 103.568 51.176C104.24 50.888 104.904 50.632 105.56 50.408V49.016C105.56 48.776 105.536 48.568 105.488 48.392C105.44 48.2 105.36 48.056 105.248 47.96C105.136 47.848 104.968 47.792 104.744 47.792C104.52 47.792 104.344 47.84 104.216 47.936C104.104 48.032 104.024 48.168 103.976 48.344C103.928 48.504 103.896 48.688 103.88 48.896L103.784 49.904L100.136 49.76C100.216 48.096 100.656 46.872 101.456 46.088C102.272 45.288 103.488 44.888 105.104 44.888C106.512 44.888 107.56 45.28 108.248 46.064C108.952 46.832 109.304 47.832 109.304 49.064V55.544C109.304 56.12 109.312 56.624 109.328 57.056C109.36 57.488 109.392 57.864 109.424 58.184C109.472 58.504 109.512 58.776 109.544 59H106.04C105.992 58.632 105.936 58.232 105.872 57.8C105.808 57.368 105.76 57.112 105.728 57.032C105.568 57.608 105.264 58.12 104.816 58.568C104.384 59.016 103.8 59.24 103.064 59.24ZM104.456 56.6C104.616 56.6 104.76 56.568 104.888 56.504C105.032 56.44 105.16 56.352 105.272 56.24C105.384 56.128 105.48 56.016 105.56 55.904V52.112C105.24 52.304 104.944 52.504 104.672 52.712C104.4 52.904 104.168 53.12 103.976 53.36C103.784 53.6 103.632 53.864 103.52 54.152C103.424 54.424 103.376 54.736 103.376 55.088C103.376 55.552 103.472 55.92 103.664 56.192C103.856 56.464 104.12 56.6 104.456 56.6ZM111.622 59V45.128H115.534V50.6H116.11L118.222 45.128H122.422L119.686 51.68L122.494 59H118.366L116.11 52.856H115.534V59H111.622ZM128.44 59.24C127.448 59.24 126.584 59.072 125.848 58.736C125.128 58.4 124.568 57.896 124.168 57.224C123.784 56.552 123.592 55.712 123.592 54.704V49.424C123.592 48.416 123.784 47.576 124.168 46.904C124.568 46.232 125.128 45.728 125.848 45.392C126.584 45.056 127.448 44.888 128.44 44.888C129.432 44.888 130.288 45.056 131.008 45.392C131.744 45.728 132.312 46.232 132.712 46.904C133.112 47.576 133.312 48.416 133.312 49.424V54.704C133.312 55.712 133.112 56.552 132.712 57.224C132.312 57.896 131.744 58.4 131.008 58.736C130.288 59.072 129.432 59.24 128.44 59.24ZM128.464 56.648C128.72 56.648 128.92 56.584 129.064 56.456C129.208 56.312 129.304 56.12 129.352 55.88C129.416 55.624 129.448 55.32 129.448 54.968V49.16C129.448 48.808 129.416 48.512 129.352 48.272C129.304 48.016 129.208 47.824 129.064 47.696C128.92 47.552 128.72 47.48 128.464 47.48C128.208 47.48 128.008 47.552 127.864 47.696C127.72 47.824 127.616 48.016 127.552 48.272C127.488 48.512 127.456 48.808 127.456 49.16V54.968C127.456 55.32 127.488 55.624 127.552 55.88C127.616 56.12 127.72 56.312 127.864 56.456C128.008 56.584 128.208 56.648 128.464 56.648ZM135.89 62.36L135.65 61.088C136.066 60.976 136.45 60.768 136.802 60.464C137.17 60.176 137.354 59.688 137.354 59H135.29V55.304H139.01V58.496C138.994 59.68 138.73 60.6 138.218 61.256C137.706 61.912 136.93 62.28 135.89 62.36ZM161.093 62.768L160.853 59H147.269V45.128H150.917V56.6H152.765V45.128H156.413V56.6H158.261V45.128H161.909V56.6H163.901V62.768H161.093ZM170.534 59.24C169.542 59.24 168.678 59.072 167.942 58.736C167.222 58.4 166.662 57.896 166.262 57.224C165.878 56.552 165.686 55.712 165.686 54.704V49.424C165.686 48.416 165.878 47.576 166.262 46.904C166.662 46.232 167.222 45.728 167.942 45.392C168.678 45.056 169.542 44.888 170.534 44.888C171.526 44.888 172.382 45.056 173.102 45.392C173.838 45.728 174.406 46.232 174.806 46.904C175.206 47.576 175.406 48.416 175.406 49.424V54.704C175.406 55.712 175.206 56.552 174.806 57.224C174.406 57.896 173.838 58.4 173.102 58.736C172.382 59.072 171.526 59.24 170.534 59.24ZM170.558 56.648C170.814 56.648 171.014 56.584 171.158 56.456C171.302 56.312 171.398 56.12 171.446 55.88C171.51 55.624 171.542 55.32 171.542 54.968V49.16C171.542 48.808 171.51 48.512 171.446 48.272C171.398 48.016 171.302 47.824 171.158 47.696C171.014 47.552 170.814 47.48 170.558 47.48C170.302 47.48 170.102 47.552 169.958 47.696C169.814 47.824 169.71 48.016 169.646 48.272C169.582 48.512 169.55 48.808 169.55 49.16V54.968C169.55 55.32 169.582 55.624 169.646 55.88C169.71 56.12 169.814 56.312 169.958 56.456C170.102 56.584 170.302 56.648 170.558 56.648ZM185.396 59V47.768H182.876V45.128H191.804V47.768H189.284V59H185.396ZM193.443 59V45.128H196.539V52.544L200.163 45.128H203.211V59H200.043V51.656L196.515 59H193.443ZM67.76 83.24C66.48 83.208 65.496 82.976 64.808 82.544C64.136 82.112 63.68 81.488 63.44 80.672C63.2 79.84 63.08 78.848 63.08 77.696V69.944C63.08 68.664 63.208 67.64 63.464 66.872C63.736 66.104 64.104 65.512 64.568 65.096C65.048 64.68 65.6 64.36 66.224 64.136C66.848 63.912 67.472 63.736 68.096 63.608C68.736 63.48 69.352 63.336 69.944 63.176C70.552 63 71.112 62.744 71.624 62.408L71.768 65.552C71.24 65.824 70.68 66.024 70.088 66.152C69.512 66.264 68.944 66.368 68.384 66.464C67.84 66.544 67.336 66.68 66.872 66.872C66.456 67.032 66.16 67.336 65.984 67.784C65.808 68.216 65.72 68.816 65.72 69.584V70.64C65.928 70.4 66.184 70.2 66.488 70.04C66.808 69.88 67.176 69.76 67.592 69.68C68.024 69.6 68.496 69.56 69.008 69.56C69.856 69.56 70.544 69.72 71.072 70.04C71.6 70.36 71.984 70.888 72.224 71.624C72.48 72.36 72.608 73.36 72.608 74.624V78.008C72.608 79.432 72.4 80.528 71.984 81.296C71.584 82.048 71.016 82.56 70.28 82.832C69.56 83.104 68.72 83.24 67.76 83.24ZM67.928 80.72C68.232 80.72 68.448 80.64 68.576 80.48C68.72 80.32 68.816 80.024 68.864 79.592C68.912 79.144 68.936 78.488 68.936 77.624V73.928C68.936 73.4 68.912 72.984 68.864 72.68C68.816 72.36 68.72 72.136 68.576 72.008C68.432 71.88 68.224 71.816 67.952 71.816C67.776 71.816 67.608 71.872 67.448 71.984C67.304 72.08 67.184 72.248 67.088 72.488C66.992 72.712 66.912 73.032 66.848 73.448V77.6C66.848 78.448 66.872 79.096 66.92 79.544C66.968 79.992 67.072 80.304 67.232 80.48C67.392 80.64 67.624 80.72 67.928 80.72ZM77.6816 83.24C76.9776 83.24 76.3856 83.072 75.9056 82.736C75.4256 82.4 75.0656 81.976 74.8256 81.464C74.5856 80.936 74.4656 80.4 74.4656 79.856C74.4656 78.992 74.6336 78.264 74.9696 77.672C75.3216 77.08 75.7776 76.584 76.3376 76.184C76.8976 75.784 77.5136 75.448 78.1856 75.176C78.8576 74.888 79.5216 74.632 80.1776 74.408V73.016C80.1776 72.776 80.1536 72.568 80.1056 72.392C80.0576 72.2 79.9776 72.056 79.8656 71.96C79.7536 71.848 79.5856 71.792 79.3616 71.792C79.1376 71.792 78.9616 71.84 78.8336 71.936C78.7216 72.032 78.6416 72.168 78.5936 72.344C78.5456 72.504 78.5136 72.688 78.4976 72.896L78.4016 73.904L74.7536 73.76C74.8336 72.096 75.2736 70.872 76.0736 70.088C76.8896 69.288 78.1056 68.888 79.7216 68.888C81.1296 68.888 82.1776 69.28 82.8656 70.064C83.5696 70.832 83.9216 71.832 83.9216 73.064V79.544C83.9216 80.12 83.9296 80.624 83.9456 81.056C83.9776 81.488 84.0096 81.864 84.0416 82.184C84.0896 82.504 84.1296 82.776 84.1616 83H80.6576C80.6096 82.632 80.5536 82.232 80.4896 81.8C80.4256 81.368 80.3776 81.112 80.3456 81.032C80.1856 81.608 79.8816 82.12 79.4336 82.568C79.0016 83.016 78.4176 83.24 77.6816 83.24ZM79.0736 80.6C79.2336 80.6 79.3776 80.568 79.5056 80.504C79.6496 80.44 79.7776 80.352 79.8896 80.24C80.0016 80.128 80.0976 80.016 80.1776 79.904V76.112C79.8576 76.304 79.5616 76.504 79.2896 76.712C79.0176 76.904 78.7856 77.12 78.5936 77.36C78.4016 77.6 78.2496 77.864 78.1376 78.152C78.0416 78.424 77.9936 78.736 77.9936 79.088C77.9936 79.552 78.0896 79.92 78.2816 80.192C78.4736 80.464 78.7376 80.6 79.0736 80.6ZM91.7836 83V77.408C91.5756 77.424 91.3596 77.44 91.1356 77.456C90.9276 77.472 90.7196 77.48 90.5116 77.48C89.3276 77.48 88.3996 77.344 87.7276 77.072C87.0716 76.784 86.6076 76.384 86.3356 75.872C86.0796 75.344 85.9516 74.72 85.9516 74V69.128H89.8396V73.76C89.8396 74.256 89.9356 74.624 90.1276 74.864C90.3196 75.104 90.7116 75.24 91.3036 75.272C91.3836 75.272 91.4556 75.272 91.5196 75.272C91.5996 75.256 91.6876 75.248 91.7836 75.248V69.128H95.6956V83H91.7836ZM98.1459 83V69.128H101.242V76.544L104.866 69.128H107.914V83H104.746V75.656L101.218 83H98.1459ZM110.309 83V69.128H113.957V80.36H115.805V69.128H119.453V80.36H121.301V69.128H124.949V83H110.309ZM129.291 77.888V74.792C130.011 74.232 130.659 73.608 131.235 72.92C131.811 72.232 132.267 71.504 132.603 70.736C132.939 69.952 133.107 69.144 133.107 68.312C133.107 67.72 132.995 67.296 132.771 67.04C132.563 66.768 132.251 66.632 131.835 66.632C131.451 66.632 131.147 66.744 130.923 66.968C130.715 67.192 130.611 67.504 130.611 67.904C130.611 68.16 130.635 68.392 130.683 68.6C130.747 68.792 130.819 69 130.899 69.224L127.371 70.04C127.243 69.656 127.139 69.288 127.059 68.936C126.995 68.568 126.963 68.184 126.963 67.784C126.963 66.376 127.387 65.28 128.235 64.496C129.099 63.696 130.331 63.296 131.931 63.296C133.547 63.296 134.787 63.72 135.651 64.568C136.531 65.416 136.971 66.624 136.971 68.192C136.971 69.152 136.811 70.064 136.491 70.928C136.171 71.792 135.699 72.608 135.075 73.376C134.467 74.144 133.723 74.864 132.843 75.536V77.888H129.291ZM129.171 83V79.28H132.987V83H129.171Z" fill="black"/>
</svg>
