<svg width="247" height="161" viewBox="0 0 247 161" fill="none" xmlns="http://www.w3.org/2000/svg">
<path d="M243 4H4V114.16H123.5L191.786 157V114.16H243V4Z" fill="white" stroke="black" stroke-width="6.20088" stroke-linecap="round" stroke-linejoin="round"/>
<path d="M33.864 42.2L33.312 38H22.512V18.56H26.808V35.096H30.072V18.56H34.368V35.096H37.008V42.2H33.864ZM43.2131 38.24C42.2051 38.24 41.3411 38.064 40.6211 37.712C39.9011 37.344 39.3491 36.816 38.9651 36.128C38.5811 35.424 38.3891 34.584 38.3891 33.608V28.52C38.3891 27.528 38.5811 26.688 38.9651 26C39.3491 25.312 39.9011 24.792 40.6211 24.44C41.3571 24.072 42.2211 23.888 43.2131 23.888C44.2371 23.888 45.0851 24.064 45.7571 24.416C46.4451 24.768 46.9571 25.288 47.2931 25.976C47.6451 26.664 47.8211 27.512 47.8211 28.52V31.304H42.2531V33.968C42.2531 34.32 42.2931 34.608 42.3731 34.832C42.4531 35.056 42.5651 35.216 42.7091 35.312C42.8531 35.408 43.0211 35.456 43.2131 35.456C43.4051 35.456 43.5731 35.416 43.7171 35.336C43.8771 35.24 43.9971 35.096 44.0771 34.904C44.1731 34.712 44.2211 34.448 44.2211 34.112V32.648H47.8211V33.992C47.8211 35.4 47.4131 36.464 46.5971 37.184C45.7811 37.888 44.6531 38.24 43.2131 38.24ZM42.2531 29.48H44.2211V28.088C44.2211 27.72 44.1731 27.432 44.0771 27.224C43.9971 27.016 43.8771 26.872 43.7171 26.792C43.5731 26.712 43.3971 26.672 43.1891 26.672C42.9971 26.672 42.8291 26.72 42.6851 26.816C42.5571 26.912 42.4531 27.08 42.3731 27.32C42.2931 27.544 42.2531 27.872 42.2531 28.304V29.48ZM57.7712 38V26.768H55.2512V24.128H64.1792V26.768H61.6592V38H57.7712ZM70.0725 38.24C69.0645 38.24 68.2005 38.064 67.4805 37.712C66.7605 37.344 66.2085 36.816 65.8245 36.128C65.4405 35.424 65.2485 34.584 65.2485 33.608V28.52C65.2485 27.528 65.4405 26.688 65.8245 26C66.2085 25.312 66.7605 24.792 67.4805 24.44C68.2165 24.072 69.0805 23.888 70.0725 23.888C71.0965 23.888 71.9445 24.064 72.6165 24.416C73.3045 24.768 73.8165 25.288 74.1525 25.976C74.5045 26.664 74.6805 27.512 74.6805 28.52V31.304H69.1125V33.968C69.1125 34.32 69.1525 34.608 69.2325 34.832C69.3125 35.056 69.4245 35.216 69.5685 35.312C69.7125 35.408 69.8805 35.456 70.0725 35.456C70.2645 35.456 70.4325 35.416 70.5765 35.336C70.7365 35.24 70.8565 35.096 70.9365 34.904C71.0325 34.712 71.0805 34.448 71.0805 34.112V32.648H74.6805V33.992C74.6805 35.4 74.2725 36.464 73.4565 37.184C72.6405 37.888 71.5125 38.24 70.0725 38.24ZM69.1125 29.48H71.0805V28.088C71.0805 27.72 71.0325 27.432 70.9365 27.224C70.8565 27.016 70.7365 26.872 70.5765 26.792C70.4325 26.712 70.2565 26.672 70.0485 26.672C69.8565 26.672 69.6885 26.72 69.5445 26.816C69.4165 26.912 69.3125 27.08 69.2325 27.32C69.1525 27.544 69.1125 27.872 69.1125 28.304V29.48ZM77.2179 41.36L76.9779 40.088C77.3939 39.976 77.7779 39.768 78.1299 39.464C78.4979 39.176 78.6819 38.688 78.6819 38H76.6179V34.304H80.3379V37.496C80.3219 38.68 80.0579 39.6 79.5459 40.256C79.0339 40.912 78.2579 41.28 77.2179 41.36ZM88.6453 38V24.128H92.2933V35.36H94.1413V24.128H97.7893V35.36H99.6373V24.128H103.285V38H88.6453ZM110.315 38.24C109.323 38.24 108.459 38.072 107.723 37.736C107.003 37.4 106.443 36.896 106.043 36.224C105.659 35.552 105.467 34.712 105.467 33.704V28.424C105.467 27.416 105.659 26.576 106.043 25.904C106.443 25.232 107.003 24.728 107.723 24.392C108.459 24.056 109.323 23.888 110.315 23.888C111.307 23.888 112.163 24.056 112.883 24.392C113.619 24.728 114.187 25.232 114.587 25.904C114.987 26.576 115.187 27.416 115.187 28.424V33.704C115.187 34.712 114.987 35.552 114.587 36.224C114.187 36.896 113.619 37.4 112.883 37.736C112.163 38.072 111.307 38.24 110.315 38.24ZM110.339 35.648C110.595 35.648 110.795 35.584 110.939 35.456C111.083 35.312 111.179 35.12 111.227 34.88C111.291 34.624 111.323 34.32 111.323 33.968V28.16C111.323 27.808 111.291 27.512 111.227 27.272C111.179 27.016 111.083 26.824 110.939 26.696C110.795 26.552 110.595 26.48 110.339 26.48C110.083 26.48 109.883 26.552 109.739 26.696C109.595 26.824 109.491 27.016 109.427 27.272C109.363 27.512 109.331 27.808 109.331 28.16V33.968C109.331 34.32 109.363 34.624 109.427 34.88C109.491 35.12 109.595 35.312 109.739 35.456C109.883 35.584 110.083 35.648 110.339 35.648ZM123.041 41.768V35.624C123.569 35.384 124.025 35.072 124.409 34.688C124.793 34.288 125.121 33.808 125.393 33.248C125.665 32.672 125.881 32.008 126.041 31.256C126.201 30.488 126.313 29.616 126.377 28.64L126.785 24.128H134.417V35.6H136.433V41.768H133.625L133.361 38H126.113L125.897 41.768H123.041ZM127.265 35.6H130.841V26.456H129.689L129.401 29.576C129.353 30.456 129.265 31.224 129.137 31.88C129.009 32.52 128.849 33.08 128.657 33.56C128.481 34.024 128.273 34.424 128.033 34.76C127.793 35.08 127.537 35.36 127.265 35.6ZM142.425 38.24C141.433 38.24 140.569 38.072 139.833 37.736C139.113 37.4 138.553 36.896 138.153 36.224C137.769 35.552 137.577 34.712 137.577 33.704V28.424C137.577 27.416 137.769 26.576 138.153 25.904C138.553 25.232 139.113 24.728 139.833 24.392C140.569 24.056 141.433 23.888 142.425 23.888C143.417 23.888 144.273 24.056 144.993 24.392C145.729 24.728 146.297 25.232 146.697 25.904C147.097 26.576 147.297 27.416 147.297 28.424V33.704C147.297 34.712 147.097 35.552 146.697 36.224C146.297 36.896 145.729 37.4 144.993 37.736C144.273 38.072 143.417 38.24 142.425 38.24ZM142.449 35.648C142.705 35.648 142.905 35.584 143.049 35.456C143.193 35.312 143.289 35.12 143.337 34.88C143.401 34.624 143.433 34.32 143.433 33.968V28.16C143.433 27.808 143.401 27.512 143.337 27.272C143.289 27.016 143.193 26.824 143.049 26.696C142.905 26.552 142.705 26.48 142.449 26.48C142.193 26.48 141.993 26.552 141.849 26.696C141.705 26.824 141.601 27.016 141.537 27.272C141.473 27.512 141.441 27.808 141.441 28.16V33.968C141.441 34.32 141.473 34.624 141.537 34.88C141.601 35.12 141.705 35.312 141.849 35.456C141.993 35.584 142.193 35.648 142.449 35.648ZM149.466 38V24.128H159.306V38H155.394V26.792H153.378V38H149.466ZM166.284 38.24C165.292 38.24 164.428 38.072 163.692 37.736C162.972 37.4 162.412 36.896 162.012 36.224C161.628 35.552 161.436 34.712 161.436 33.704V28.424C161.436 27.416 161.628 26.576 162.012 25.904C162.412 25.232 162.972 24.728 163.692 24.392C164.428 24.056 165.292 23.888 166.284 23.888C167.276 23.888 168.132 24.056 168.852 24.392C169.588 24.728 170.156 25.232 170.556 25.904C170.956 26.576 171.156 27.416 171.156 28.424V33.704C171.156 34.712 170.956 35.552 170.556 36.224C170.156 36.896 169.588 37.4 168.852 37.736C168.132 38.072 167.276 38.24 166.284 38.24ZM166.308 35.648C166.564 35.648 166.764 35.584 166.908 35.456C167.052 35.312 167.148 35.12 167.196 34.88C167.26 34.624 167.292 34.32 167.292 33.968V28.16C167.292 27.808 167.26 27.512 167.196 27.272C167.148 27.016 167.052 26.824 166.908 26.696C166.764 26.552 166.564 26.48 166.308 26.48C166.052 26.48 165.852 26.552 165.708 26.696C165.564 26.824 165.46 27.016 165.396 27.272C165.332 27.512 165.3 27.808 165.3 28.16V33.968C165.3 34.32 165.332 34.624 165.396 34.88C165.46 35.12 165.564 35.312 165.708 35.456C165.852 35.584 166.052 35.648 166.308 35.648ZM173.302 38L173.35 24.128H176.23L179.062 30.776L181.918 24.128H184.798L184.846 38H181.798V30.704L179.662 35.84H178.51L176.35 30.68V38H173.302ZM191.854 38.24C190.862 38.24 189.998 38.072 189.262 37.736C188.542 37.4 187.982 36.896 187.582 36.224C187.198 35.552 187.006 34.712 187.006 33.704V28.424C187.006 27.416 187.198 26.576 187.582 25.904C187.982 25.232 188.542 24.728 189.262 24.392C189.998 24.056 190.862 23.888 191.854 23.888C192.846 23.888 193.702 24.056 194.422 24.392C195.158 24.728 195.726 25.232 196.126 25.904C196.526 26.576 196.726 27.416 196.726 28.424V33.704C196.726 34.712 196.526 35.552 196.126 36.224C195.726 36.896 195.158 37.4 194.422 37.736C193.702 38.072 192.846 38.24 191.854 38.24ZM191.878 35.648C192.134 35.648 192.334 35.584 192.478 35.456C192.622 35.312 192.718 35.12 192.766 34.88C192.83 34.624 192.862 34.32 192.862 33.968V28.16C192.862 27.808 192.83 27.512 192.766 27.272C192.718 27.016 192.622 26.824 192.478 26.696C192.334 26.552 192.134 26.48 191.878 26.48C191.622 26.48 191.422 26.552 191.278 26.696C191.134 26.824 191.03 27.016 190.966 27.272C190.902 27.512 190.87 27.808 190.87 28.16V33.968C190.87 34.32 190.902 34.624 190.966 34.88C191.03 35.12 191.134 35.312 191.278 35.456C191.422 35.584 191.622 35.648 191.878 35.648ZM197.816 38L200.576 31.016L197.984 24.128H201.368L203.576 30.704H203.864V24.128H207.128V30.704H207.392L209.744 24.128H213.176L210.416 31.016L213.32 38H210.08L207.392 31.304H207.128V38H203.864V31.304H203.576L201.056 38H197.816ZM219.252 38.24C218.244 38.24 217.38 38.064 216.66 37.712C215.94 37.344 215.388 36.816 215.004 36.128C214.62 35.424 214.428 34.584 214.428 33.608V28.52C214.428 27.528 214.62 26.688 215.004 26C215.388 25.312 215.94 24.792 216.66 24.44C217.396 24.072 218.26 23.888 219.252 23.888C220.276 23.888 221.124 24.064 221.796 24.416C222.484 24.768 222.996 25.288 223.332 25.976C223.684 26.664 223.86 27.512 223.86 28.52V31.304H218.292V33.968C218.292 34.32 218.332 34.608 218.412 34.832C218.492 35.056 218.604 35.216 218.748 35.312C218.892 35.408 219.06 35.456 219.252 35.456C219.444 35.456 219.612 35.416 219.756 35.336C219.916 35.24 220.036 35.096 220.116 34.904C220.212 34.712 220.26 34.448 220.26 34.112V32.648H223.86V33.992C223.86 35.4 223.452 36.464 222.636 37.184C221.82 37.888 220.692 38.24 219.252 38.24ZM218.292 29.48H220.26V28.088C220.26 27.72 220.212 27.432 220.116 27.224C220.036 27.016 219.916 26.872 219.756 26.792C219.612 26.712 219.436 26.672 219.228 26.672C219.036 26.672 218.868 26.72 218.724 26.816C218.596 26.912 218.492 27.08 218.412 27.32C218.332 27.544 218.292 27.872 218.292 28.304V29.48ZM22.224 62V48.128H26.136V53.504H28.464V48.128H32.4V62H28.464V56.192H26.136V62H22.224ZM37.6894 62.24C36.9854 62.24 36.3934 62.072 35.9134 61.736C35.4334 61.4 35.0734 60.976 34.8334 60.464C34.5934 59.936 34.4734 59.4 34.4734 58.856C34.4734 57.992 34.6414 57.264 34.9774 56.672C35.3294 56.08 35.7854 55.584 36.3454 55.184C36.9054 54.784 37.5214 54.448 38.1934 54.176C38.8654 53.888 39.5294 53.632 40.1854 53.408V52.016C40.1854 51.776 40.1614 51.568 40.1134 51.392C40.0654 51.2 39.9854 51.056 39.8734 50.96C39.7614 50.848 39.5934 50.792 39.3694 50.792C39.1454 50.792 38.9694 50.84 38.8414 50.936C38.7294 51.032 38.6494 51.168 38.6014 51.344C38.5534 51.504 38.5214 51.688 38.5054 51.896L38.4094 52.904L34.7614 52.76C34.8414 51.096 35.2814 49.872 36.0814 49.088C36.8974 48.288 38.1134 47.888 39.7294 47.888C41.1374 47.888 42.1854 48.28 42.8734 49.064C43.5774 49.832 43.9294 50.832 43.9294 52.064V58.544C43.9294 59.12 43.9374 59.624 43.9534 60.056C43.9854 60.488 44.0174 60.864 44.0494 61.184C44.0974 61.504 44.1374 61.776 44.1694 62H40.6654C40.6174 61.632 40.5614 61.232 40.4974 60.8C40.4334 60.368 40.3854 60.112 40.3534 60.032C40.1934 60.608 39.8894 61.12 39.4414 61.568C39.0094 62.016 38.4254 62.24 37.6894 62.24ZM39.0814 59.6C39.2414 59.6 39.3854 59.568 39.5134 59.504C39.6574 59.44 39.7854 59.352 39.8974 59.24C40.0094 59.128 40.1054 59.016 40.1854 58.904V55.112C39.8654 55.304 39.5694 55.504 39.2974 55.712C39.0254 55.904 38.7934 56.12 38.6014 56.36C38.4094 56.6 38.2574 56.864 38.1454 57.152C38.0494 57.424 38.0014 57.736 38.0014 58.088C38.0014 58.552 38.0974 58.92 38.2894 59.192C38.4814 59.464 38.7454 59.6 39.0814 59.6ZM46.2234 62L46.2714 48.128H49.1514L51.9834 54.776L54.8394 48.128H57.7194L57.7674 62H54.7194V54.704L52.5834 59.84H51.4314L49.2714 54.68V62H46.2234ZM66.3568 62V48.128H71.2768C72.6688 48.128 73.7168 48.28 74.4208 48.584C75.1248 48.872 75.5968 49.272 75.8368 49.784C76.0768 50.296 76.1968 50.896 76.1968 51.584C76.1968 52.496 75.9968 53.168 75.5968 53.6C75.2128 54.016 74.7008 54.312 74.0608 54.488C74.7328 54.648 75.2448 54.888 75.5968 55.208C75.9488 55.528 76.1888 55.92 76.3168 56.384C76.4608 56.848 76.5328 57.384 76.5328 57.992C76.5328 58.888 76.3648 59.64 76.0288 60.248C75.6928 60.84 75.1248 61.28 74.3248 61.568C73.5248 61.856 72.4368 62 71.0608 62H66.3568ZM70.2448 59.84H70.8928C71.2448 59.84 71.5568 59.808 71.8288 59.744C72.1008 59.68 72.3168 59.512 72.4768 59.24C72.6528 58.952 72.7408 58.496 72.7408 57.872C72.7408 57.168 72.6608 56.664 72.5008 56.36C72.3568 56.056 72.1488 55.872 71.8768 55.808C71.6048 55.744 71.2848 55.712 70.9168 55.712H70.2448V59.84ZM70.2448 53.6H71.2288C71.6928 53.6 72.0128 53.456 72.1888 53.168C72.3648 52.864 72.4528 52.448 72.4528 51.92C72.4528 51.408 72.3568 50.984 72.1648 50.648C71.9888 50.312 71.5808 50.144 70.9408 50.144H70.2448V53.6ZM78.474 62V48.128H81.57V55.544L85.194 48.128H88.242V62H85.074V54.656L81.546 62H78.474ZM90.6615 62V48.128H94.5735V53.6H95.1495L97.2615 48.128H101.462L98.7255 54.68L101.534 62H97.4055L95.1495 55.856H94.5735V62H90.6615ZM107.479 62.24C106.487 62.24 105.623 62.072 104.887 61.736C104.167 61.4 103.607 60.896 103.207 60.224C102.823 59.552 102.631 58.712 102.631 57.704V52.424C102.631 51.416 102.823 50.576 103.207 49.904C103.607 49.232 104.167 48.728 104.887 48.392C105.623 48.056 106.487 47.888 107.479 47.888C108.471 47.888 109.327 48.056 110.047 48.392C110.783 48.728 111.351 49.232 111.751 49.904C112.151 50.576 112.351 51.416 112.351 52.424V57.704C112.351 58.712 112.151 59.552 111.751 60.224C111.351 60.896 110.783 61.4 110.047 61.736C109.327 62.072 108.471 62.24 107.479 62.24ZM107.503 59.648C107.759 59.648 107.959 59.584 108.103 59.456C108.247 59.312 108.343 59.12 108.391 58.88C108.455 58.624 108.487 58.32 108.487 57.968V52.16C108.487 51.808 108.455 51.512 108.391 51.272C108.343 51.016 108.247 50.824 108.103 50.696C107.959 50.552 107.759 50.48 107.503 50.48C107.247 50.48 107.047 50.552 106.903 50.696C106.759 50.824 106.655 51.016 106.591 51.272C106.527 51.512 106.495 51.808 106.495 52.16V57.968C106.495 58.32 106.527 58.624 106.591 58.88C106.655 59.12 106.759 59.312 106.903 59.456C107.047 59.584 107.247 59.648 107.503 59.648ZM114.521 62V48.128H118.433V53.504H120.761V48.128H124.697V62H120.761V56.192H118.433V62H114.521ZM129.986 62.24C129.282 62.24 128.69 62.072 128.21 61.736C127.73 61.4 127.37 60.976 127.13 60.464C126.89 59.936 126.77 59.4 126.77 58.856C126.77 57.992 126.938 57.264 127.274 56.672C127.626 56.08 128.082 55.584 128.642 55.184C129.202 54.784 129.818 54.448 130.49 54.176C131.162 53.888 131.826 53.632 132.482 53.408V52.016C132.482 51.776 132.458 51.568 132.41 51.392C132.362 51.2 132.282 51.056 132.17 50.96C132.058 50.848 131.89 50.792 131.666 50.792C131.442 50.792 131.266 50.84 131.138 50.936C131.026 51.032 130.946 51.168 130.898 51.344C130.85 51.504 130.818 51.688 130.802 51.896L130.706 52.904L127.058 52.76C127.138 51.096 127.578 49.872 128.378 49.088C129.194 48.288 130.41 47.888 132.026 47.888C133.434 47.888 134.482 48.28 135.17 49.064C135.874 49.832 136.226 50.832 136.226 52.064V58.544C136.226 59.12 136.234 59.624 136.25 60.056C136.282 60.488 136.314 60.864 136.346 61.184C136.394 61.504 136.434 61.776 136.466 62H132.962C132.914 61.632 132.858 61.232 132.794 60.8C132.73 60.368 132.682 60.112 132.65 60.032C132.49 60.608 132.186 61.12 131.738 61.568C131.306 62.016 130.722 62.24 129.986 62.24ZM131.378 59.6C131.538 59.6 131.682 59.568 131.81 59.504C131.954 59.44 132.082 59.352 132.194 59.24C132.306 59.128 132.402 59.016 132.482 58.904V55.112C132.162 55.304 131.866 55.504 131.594 55.712C131.322 55.904 131.09 56.12 130.898 56.36C130.706 56.6 130.554 56.864 130.442 57.152C130.346 57.424 130.298 57.736 130.298 58.088C130.298 58.552 130.394 58.92 130.586 59.192C130.778 59.464 131.042 59.6 131.378 59.6ZM140.224 62V50.768H137.704V48.128H146.632V50.768H144.112V62H140.224ZM148.271 62V48.128H151.367V55.544L154.991 48.128H158.039V62H154.871V54.656L151.343 62H148.271ZM22.608 90.032V87.32C23.104 87.32 23.512 87.288 23.832 87.224C24.168 87.16 24.416 87.04 24.576 86.864C24.752 86.688 24.84 86.448 24.84 86.144C24.84 85.872 24.792 85.544 24.696 85.16C24.6 84.76 24.48 84.312 24.336 83.816L21.072 72.128H24.744L26.496 80.144L27.816 72.128H31.512L28.32 86.336C28.112 87.296 27.784 88.04 27.336 88.568C26.888 89.112 26.336 89.488 25.68 89.696C25.04 89.92 24.312 90.032 23.496 90.032H22.608ZM37.4938 86.24C36.4858 86.24 35.6218 86.056 34.9018 85.688C34.1978 85.32 33.6538 84.792 33.2698 84.104C32.8858 83.416 32.6938 82.584 32.6938 81.608V76.52C32.6938 75.528 32.8858 74.688 33.2698 74C33.6538 73.312 34.1978 72.792 34.9018 72.44C35.6218 72.072 36.4858 71.888 37.4938 71.888C38.4858 71.888 39.3258 72.04 40.0138 72.344C40.7178 72.648 41.2538 73.112 41.6218 73.736C41.9898 74.344 42.1738 75.12 42.1738 76.064V77.528H38.4058V75.944C38.4058 75.576 38.3658 75.296 38.2858 75.104C38.2218 74.896 38.1178 74.752 37.9738 74.672C37.8458 74.592 37.6858 74.552 37.4938 74.552C37.3018 74.552 37.1418 74.608 37.0138 74.72C36.8858 74.816 36.7898 74.984 36.7258 75.224C36.6618 75.448 36.6298 75.768 36.6298 76.184V81.944C36.6298 82.568 36.7018 82.992 36.8458 83.216C37.0058 83.44 37.2298 83.552 37.5178 83.552C37.7258 83.552 37.8938 83.512 38.0218 83.432C38.1498 83.336 38.2458 83.192 38.3098 83C38.3738 82.792 38.4058 82.52 38.4058 82.184V80.336H42.1738V82.016C42.1738 82.944 41.9818 83.728 41.5978 84.368C41.2298 84.992 40.6938 85.464 39.9898 85.784C39.3018 86.088 38.4698 86.24 37.4938 86.24ZM44.2084 86V72.128H54.0484V86H50.1364V74.792H48.1204V86H44.2084ZM56.4902 86V72.128H60.4022V86H56.4902ZM56.4662 69.776V67.064H60.4022V69.776H56.4662ZM62.7938 86V72.128H66.4418V83.36H68.2898V72.128H71.9378V83.36H73.7858V72.128H77.4338V86H62.7938ZM79.9037 86V72.128H83.8157V77.504H86.1437V72.128H90.0797V86H86.1437V80.192H83.8157V86H79.9037ZM97.0731 86.24C96.0811 86.24 95.2171 86.072 94.4811 85.736C93.7611 85.4 93.2011 84.896 92.8011 84.224C92.4171 83.552 92.2251 82.712 92.2251 81.704V76.424C92.2251 75.416 92.4171 74.576 92.8011 73.904C93.2011 73.232 93.7611 72.728 94.4811 72.392C95.2171 72.056 96.0811 71.888 97.0731 71.888C98.0651 71.888 98.9211 72.056 99.6411 72.392C100.377 72.728 100.945 73.232 101.345 73.904C101.745 74.576 101.945 75.416 101.945 76.424V81.704C101.945 82.712 101.745 83.552 101.345 84.224C100.945 84.896 100.377 85.4 99.6411 85.736C98.9211 86.072 98.0651 86.24 97.0731 86.24ZM97.0971 83.648C97.3531 83.648 97.5531 83.584 97.6971 83.456C97.8411 83.312 97.9371 83.12 97.9851 82.88C98.0491 82.624 98.0811 82.32 98.0811 81.968V76.16C98.0811 75.808 98.0491 75.512 97.9851 75.272C97.9371 75.016 97.8411 74.824 97.6971 74.696C97.5531 74.552 97.3531 74.48 97.0971 74.48C96.8411 74.48 96.6411 74.552 96.4971 74.696C96.3531 74.824 96.2491 75.016 96.1851 75.272C96.1211 75.512 96.0891 75.808 96.0891 76.16V81.968C96.0891 82.32 96.1211 82.624 96.1851 82.88C96.2491 83.12 96.3531 83.312 96.4971 83.456C96.6411 83.584 96.8411 83.648 97.0971 83.648ZM110.255 86V72.128H114.167V77.504H116.495V72.128H120.431V86H116.495V80.192H114.167V86H110.255ZM125.721 86.24C125.017 86.24 124.425 86.072 123.945 85.736C123.465 85.4 123.105 84.976 122.865 84.464C122.625 83.936 122.505 83.4 122.505 82.856C122.505 81.992 122.673 81.264 123.009 80.672C123.361 80.08 123.817 79.584 124.377 79.184C124.937 78.784 125.553 78.448 126.225 78.176C126.897 77.888 127.561 77.632 128.217 77.408V76.016C128.217 75.776 128.193 75.568 128.145 75.392C128.097 75.2 128.017 75.056 127.905 74.96C127.793 74.848 127.625 74.792 127.401 74.792C127.177 74.792 127.001 74.84 126.873 74.936C126.761 75.032 126.681 75.168 126.633 75.344C126.585 75.504 126.553 75.688 126.537 75.896L126.441 76.904L122.793 76.76C122.873 75.096 123.313 73.872 124.113 73.088C124.929 72.288 126.145 71.888 127.761 71.888C129.169 71.888 130.217 72.28 130.905 73.064C131.609 73.832 131.961 74.832 131.961 76.064V82.544C131.961 83.12 131.969 83.624 131.985 84.056C132.017 84.488 132.049 84.864 132.081 85.184C132.129 85.504 132.169 85.776 132.201 86H128.697C128.649 85.632 128.593 85.232 128.529 84.8C128.465 84.368 128.417 84.112 128.385 84.032C128.225 84.608 127.921 85.12 127.473 85.568C127.041 86.016 126.457 86.24 125.721 86.24ZM127.113 83.6C127.273 83.6 127.417 83.568 127.545 83.504C127.689 83.44 127.817 83.352 127.929 83.24C128.041 83.128 128.137 83.016 128.217 82.904V79.112C127.897 79.304 127.601 79.504 127.329 79.712C127.057 79.904 126.825 80.12 126.633 80.36C126.441 80.6 126.289 80.864 126.177 81.152C126.081 81.424 126.033 81.736 126.033 82.088C126.033 82.552 126.129 82.92 126.321 83.192C126.513 83.464 126.777 83.6 127.113 83.6ZM134.255 86V72.128H137.903V83.36H139.751V72.128H143.399V83.36H145.247V72.128H148.895V86H134.255ZM151.749 90.032V87.32C152.245 87.32 152.653 87.288 152.973 87.224C153.309 87.16 153.557 87.04 153.717 86.864C153.893 86.688 153.981 86.448 153.981 86.144C153.981 85.872 153.933 85.544 153.837 85.16C153.741 84.76 153.621 84.312 153.477 83.816L150.213 72.128H153.885L155.637 80.144L156.957 72.128H160.653L157.461 86.336C157.253 87.296 156.925 88.04 156.477 88.568C156.029 89.112 155.477 89.488 154.821 89.696C154.181 89.92 153.453 90.032 152.637 90.032H151.749ZM168.239 86L168.287 72.128H171.167L173.999 78.776L176.855 72.128H179.735L179.783 86H176.735V78.704L174.599 83.84H173.447L171.287 78.68V86H168.239ZM182.256 86V72.128H186.168V86H182.256ZM182.232 69.776V67.064H186.168V69.776H182.232ZM193.095 86.24C192.087 86.24 191.223 86.056 190.503 85.688C189.799 85.32 189.255 84.792 188.871 84.104C188.487 83.416 188.295 82.584 188.295 81.608V76.52C188.295 75.528 188.487 74.688 188.871 74C189.255 73.312 189.799 72.792 190.503 72.44C191.223 72.072 192.087 71.888 193.095 71.888C194.087 71.888 194.927 72.04 195.615 72.344C196.319 72.648 196.855 73.112 197.223 73.736C197.591 74.344 197.775 75.12 197.775 76.064V77.528H194.007V75.944C194.007 75.576 193.967 75.296 193.887 75.104C193.823 74.896 193.719 74.752 193.575 74.672C193.447 74.592 193.287 74.552 193.095 74.552C192.903 74.552 192.743 74.608 192.615 74.72C192.487 74.816 192.391 74.984 192.327 75.224C192.263 75.448 192.231 75.768 192.231 76.184V81.944C192.231 82.568 192.303 82.992 192.447 83.216C192.607 83.44 192.831 83.552 193.119 83.552C193.327 83.552 193.495 83.512 193.623 83.432C193.751 83.336 193.847 83.192 193.911 83C193.975 82.792 194.007 82.52 194.007 82.184V80.336H197.775V82.016C197.775 82.944 197.583 83.728 197.199 84.368C196.831 84.992 196.295 85.464 195.591 85.784C194.903 86.088 194.071 86.24 193.095 86.24ZM199.834 86V72.128H203.746V86H199.834ZM199.81 69.776V67.064H203.746V69.776H199.81ZM216.218 86.24C215.29 86.24 214.482 86.072 213.794 85.736C213.106 85.4 212.578 84.896 212.21 84.224C211.842 83.552 211.658 82.712 211.658 81.704V80.408H210.002V86H206.162V72.128H210.002V77.672H211.658V76.424C211.658 75.416 211.842 74.576 212.21 73.904C212.578 73.232 213.106 72.728 213.794 72.392C214.482 72.056 215.29 71.888 216.218 71.888C217.146 71.888 217.954 72.056 218.642 72.392C219.33 72.728 219.858 73.232 220.226 73.904C220.61 74.576 220.802 75.416 220.802 76.424V81.704C220.802 82.712 220.61 83.552 220.226 84.224C219.858 84.896 219.33 85.4 218.642 85.736C217.954 86.072 217.146 86.24 216.218 86.24ZM216.218 83.456C216.474 83.456 216.666 83.392 216.794 83.264C216.922 83.136 217.01 82.952 217.057 82.712C217.122 82.456 217.154 82.152 217.154 81.8V76.328C217.154 75.976 217.122 75.68 217.057 75.44C217.01 75.184 216.922 74.992 216.794 74.864C216.666 74.736 216.474 74.672 216.218 74.672C215.994 74.672 215.81 74.744 215.666 74.888C215.538 75.016 215.442 75.2 215.378 75.44C215.33 75.68 215.306 75.976 215.306 76.328V81.8C215.306 82.136 215.33 82.432 215.378 82.688C215.442 82.928 215.538 83.12 215.666 83.264C215.81 83.392 215.994 83.456 216.218 83.456ZM224.07 81.056L222.942 66.608H226.83L225.414 81.056H224.07ZM222.87 86V82.352H226.566V86H222.87Z" fill="black"/>
</svg>
