<svg width="205" height="132" viewBox="0 0 205 132" fill="none" xmlns="http://www.w3.org/2000/svg">
<path fill-rule="evenodd" clip-rule="evenodd" d="M74.3571 101.428L102.5 128L130.643 101.428H186.929C194.71 101.428 201 97.4691 201 92.5714V12.8571C201 7.95914 194.71 4 186.929 4H18.0714C10.2899 4 4 7.95914 4 12.8571V92.5714C4 97.4691 10.2899 101.428 18.0714 101.428H74.3571Z" fill="white" stroke="black" stroke-width="6.9094" stroke-linecap="square" stroke-linejoin="round"/>
<path d="M36.5887 42V25.8H40.8087C41.502 25.8 42.1553 25.8533 42.7687 25.96C43.3953 26.0667 43.9487 26.2733 44.4287 26.58C44.9087 26.8733 45.282 27.3 45.5487 27.86C45.8287 28.4067 45.9687 29.1333 45.9687 30.04C45.9687 30.6933 45.8687 31.2467 45.6687 31.7C45.482 32.14 45.2087 32.4933 44.8487 32.76C44.502 33.0267 44.082 33.2067 43.5887 33.3C44.2153 33.38 44.742 33.5867 45.1687 33.92C45.5953 34.24 45.9153 34.6733 46.1287 35.22C46.3553 35.7667 46.4687 36.4267 46.4687 37.2C46.4687 38.04 46.3553 38.7667 46.1287 39.38C45.9153 39.98 45.602 40.4733 45.1887 40.86C44.7753 41.2467 44.262 41.5333 43.6487 41.72C43.0487 41.9067 42.3553 42 41.5687 42H36.5887ZM40.1687 39.5H40.9287C41.7153 39.5 42.2553 39.3 42.5487 38.9C42.8553 38.5 43.0087 37.9133 43.0087 37.14C43.0087 36.5267 42.942 36.04 42.8087 35.68C42.6753 35.32 42.4553 35.06 42.1487 34.9C41.842 34.7267 41.4287 34.64 40.9087 34.64H40.1687V39.5ZM40.1687 32.28H40.8687C41.4153 32.28 41.8287 32.2 42.1087 32.04C42.3887 31.8667 42.5753 31.62 42.6687 31.3C42.7753 30.98 42.8287 30.5933 42.8287 30.14C42.8287 29.7133 42.7487 29.36 42.5887 29.08C42.442 28.7867 42.2153 28.5667 41.9087 28.42C41.6153 28.2733 41.242 28.2 40.7887 28.2H40.1687V32.28ZM51.9665 42.2C51.1398 42.2 50.4198 42.06 49.8065 41.78C49.2065 41.5 48.7398 41.08 48.4065 40.52C48.0865 39.96 47.9265 39.26 47.9265 38.42V34.02C47.9265 33.18 48.0865 32.48 48.4065 31.92C48.7398 31.36 49.2065 30.94 49.8065 30.66C50.4198 30.38 51.1398 30.24 51.9665 30.24C52.7932 30.24 53.5065 30.38 54.1065 30.66C54.7198 30.94 55.1932 31.36 55.5265 31.92C55.8598 32.48 56.0265 33.18 56.0265 34.02V38.42C56.0265 39.26 55.8598 39.96 55.5265 40.52C55.1932 41.08 54.7198 41.5 54.1065 41.78C53.5065 42.06 52.7932 42.2 51.9665 42.2ZM51.9865 40.04C52.1998 40.04 52.3665 39.9867 52.4865 39.88C52.6065 39.76 52.6865 39.6 52.7265 39.4C52.7798 39.1867 52.8065 38.9333 52.8065 38.64V33.8C52.8065 33.5067 52.7798 33.26 52.7265 33.06C52.6865 32.8467 52.6065 32.6867 52.4865 32.58C52.3665 32.46 52.1998 32.4 51.9865 32.4C51.7732 32.4 51.6065 32.46 51.4865 32.58C51.3665 32.6867 51.2798 32.8467 51.2265 33.06C51.1732 33.26 51.1465 33.5067 51.1465 33.8V38.64C51.1465 38.9333 51.1732 39.1867 51.2265 39.4C51.2798 39.6 51.3665 39.76 51.4865 39.88C51.6065 39.9867 51.7732 40.04 51.9865 40.04ZM61.6345 42.2C60.8078 42.2 60.0878 42.06 59.4745 41.78C58.8745 41.5 58.4078 41.08 58.0745 40.52C57.7545 39.96 57.5945 39.26 57.5945 38.42V34.02C57.5945 33.18 57.7545 32.48 58.0745 31.92C58.4078 31.36 58.8745 30.94 59.4745 30.66C60.0878 30.38 60.8078 30.24 61.6345 30.24C62.4611 30.24 63.1745 30.38 63.7745 30.66C64.3878 30.94 64.8611 31.36 65.1945 31.92C65.5278 32.48 65.6945 33.18 65.6945 34.02V38.42C65.6945 39.26 65.5278 39.96 65.1945 40.52C64.8611 41.08 64.3878 41.5 63.7745 41.78C63.1745 42.06 62.4611 42.2 61.6345 42.2ZM61.6545 40.04C61.8678 40.04 62.0345 39.9867 62.1545 39.88C62.2745 39.76 62.3545 39.6 62.3945 39.4C62.4478 39.1867 62.4745 38.9333 62.4745 38.64V33.8C62.4745 33.5067 62.4478 33.26 62.3945 33.06C62.3545 32.8467 62.2745 32.6867 62.1545 32.58C62.0345 32.46 61.8678 32.4 61.6545 32.4C61.4411 32.4 61.2745 32.46 61.1545 32.58C61.0345 32.6867 60.9478 32.8467 60.8945 33.06C60.8411 33.26 60.8145 33.5067 60.8145 33.8V38.64C60.8145 38.9333 60.8411 39.1867 60.8945 39.4C60.9478 39.6 61.0345 39.76 61.1545 39.88C61.2745 39.9867 61.4411 40.04 61.6545 40.04ZM71.2824 42.2C70.2158 42.1733 69.3958 41.98 68.8224 41.62C68.2624 41.26 67.8824 40.74 67.6824 40.06C67.4824 39.3667 67.3824 38.54 67.3824 37.58V31.12C67.3824 30.0533 67.4891 29.2 67.7024 28.56C67.9291 27.92 68.2358 27.4267 68.6224 27.08C69.0224 26.7333 69.4824 26.4667 70.0024 26.28C70.5224 26.0933 71.0424 25.9467 71.5624 25.84C72.0958 25.7333 72.6091 25.6133 73.1024 25.48C73.6091 25.3333 74.0758 25.12 74.5024 24.84L74.6224 27.46C74.1824 27.6867 73.7158 27.8533 73.2224 27.96C72.7424 28.0533 72.2691 28.14 71.8024 28.22C71.3491 28.2867 70.9291 28.4 70.5424 28.56C70.1958 28.6933 69.9491 28.9467 69.8024 29.32C69.6558 29.68 69.5824 30.18 69.5824 30.82V31.7C69.7558 31.5 69.9691 31.3333 70.2224 31.2C70.4891 31.0667 70.7958 30.9667 71.1424 30.9C71.5024 30.8333 71.8958 30.8 72.3224 30.8C73.0291 30.8 73.6024 30.9333 74.0424 31.2C74.4824 31.4667 74.8024 31.9067 75.0024 32.52C75.2158 33.1333 75.3224 33.9667 75.3224 35.02V37.84C75.3224 39.0267 75.1491 39.94 74.8024 40.58C74.4691 41.2067 73.9958 41.6333 73.3824 41.86C72.7824 42.0867 72.0824 42.2 71.2824 42.2ZM71.4224 40.1C71.6758 40.1 71.8558 40.0333 71.9624 39.9C72.0824 39.7667 72.1624 39.52 72.2024 39.16C72.2424 38.7867 72.2624 38.24 72.2624 37.52V34.44C72.2624 34 72.2424 33.6533 72.2024 33.4C72.1624 33.1333 72.0824 32.9467 71.9624 32.84C71.8424 32.7333 71.6691 32.68 71.4424 32.68C71.2958 32.68 71.1558 32.7267 71.0224 32.82C70.9024 32.9 70.8024 33.04 70.7224 33.24C70.6424 33.4267 70.5758 33.6933 70.5224 34.04V37.5C70.5224 38.2067 70.5424 38.7467 70.5824 39.12C70.6224 39.4933 70.7091 39.7533 70.8424 39.9C70.9758 40.0333 71.1691 40.1 71.4224 40.1ZM88.6304 45.14L88.4304 42H77.1104V30.44H80.1504V40H81.6904V30.44H84.7304V40H86.2704V30.44H89.3104V40H90.9704V45.14H88.6304ZM96.4777 42.2C95.6377 42.2 94.9177 42.0533 94.3177 41.76C93.7177 41.4533 93.2577 41.0133 92.9377 40.44C92.6177 39.8533 92.4577 39.1533 92.4577 38.34V34.1C92.4577 33.2733 92.6177 32.5733 92.9377 32C93.2577 31.4267 93.7177 30.9933 94.3177 30.7C94.9311 30.3933 95.6511 30.24 96.4777 30.24C97.3311 30.24 98.0377 30.3867 98.5977 30.68C99.1711 30.9733 99.5977 31.4067 99.8777 31.98C100.171 32.5533 100.318 33.26 100.318 34.1V36.42H95.6777V38.64C95.6777 38.9333 95.7111 39.1733 95.7777 39.36C95.8444 39.5467 95.9377 39.68 96.0577 39.76C96.1777 39.84 96.3177 39.88 96.4777 39.88C96.6377 39.88 96.7777 39.8467 96.8977 39.78C97.0311 39.7 97.1311 39.58 97.1977 39.42C97.2777 39.26 97.3177 39.04 97.3177 38.76V37.54H100.318V38.66C100.318 39.8333 99.9777 40.72 99.2977 41.32C98.6177 41.9067 97.6777 42.2 96.4777 42.2ZM95.6777 34.9H97.3177V33.74C97.3177 33.4333 97.2777 33.1933 97.1977 33.02C97.1311 32.8467 97.0311 32.7267 96.8977 32.66C96.7777 32.5933 96.6311 32.56 96.4577 32.56C96.2977 32.56 96.1577 32.6 96.0377 32.68C95.9311 32.76 95.8444 32.9 95.7777 33.1C95.7111 33.2867 95.6777 33.56 95.6777 33.92V34.9ZM107.209 42V30.44H110.469V34.92H112.409V30.44H115.689V42H112.409V37.16H110.469V42H107.209ZM121.497 42.2C120.657 42.2 119.937 42.0533 119.337 41.76C118.737 41.4533 118.277 41.0133 117.957 40.44C117.637 39.8533 117.477 39.1533 117.477 38.34V34.1C117.477 33.2733 117.637 32.5733 117.957 32C118.277 31.4267 118.737 30.9933 119.337 30.7C119.951 30.3933 120.671 30.24 121.497 30.24C122.351 30.24 123.057 30.3867 123.617 30.68C124.191 30.9733 124.617 31.4067 124.897 31.98C125.191 32.5533 125.337 33.26 125.337 34.1V36.42H120.697V38.64C120.697 38.9333 120.731 39.1733 120.797 39.36C120.864 39.5467 120.957 39.68 121.077 39.76C121.197 39.84 121.337 39.88 121.497 39.88C121.657 39.88 121.797 39.8467 121.917 39.78C122.051 39.7 122.151 39.58 122.217 39.42C122.297 39.26 122.337 39.04 122.337 38.76V37.54H125.337V38.66C125.337 39.8333 124.997 40.72 124.317 41.32C123.637 41.9067 122.697 42.2 121.497 42.2ZM120.697 34.9H122.337V33.74C122.337 33.4333 122.297 33.1933 122.217 33.02C122.151 32.8467 122.051 32.7267 121.917 32.66C121.797 32.5933 121.651 32.56 121.477 32.56C121.317 32.56 121.177 32.6 121.057 32.68C120.951 32.76 120.864 32.9 120.797 33.1C120.731 33.2867 120.697 33.56 120.697 33.92V34.9ZM131.429 42L133.889 35.66L131.549 30.44H134.829L136.069 33.22L137.169 30.44H139.669L137.389 36.14L140.009 42H136.689L135.289 38.82L134.129 42H131.429ZM144.877 42.2C144.05 42.2 143.33 42.06 142.717 41.78C142.117 41.5 141.65 41.08 141.317 40.52C140.997 39.96 140.837 39.26 140.837 38.42V34.02C140.837 33.18 140.997 32.48 141.317 31.92C141.65 31.36 142.117 30.94 142.717 30.66C143.33 30.38 144.05 30.24 144.877 30.24C145.703 30.24 146.417 30.38 147.017 30.66C147.63 30.94 148.103 31.36 148.437 31.92C148.77 32.48 148.937 33.18 148.937 34.02V38.42C148.937 39.26 148.77 39.96 148.437 40.52C148.103 41.08 147.63 41.5 147.017 41.78C146.417 42.06 145.703 42.2 144.877 42.2ZM144.897 40.04C145.11 40.04 145.277 39.9867 145.397 39.88C145.517 39.76 145.597 39.6 145.637 39.4C145.69 39.1867 145.717 38.9333 145.717 38.64V33.8C145.717 33.5067 145.69 33.26 145.637 33.06C145.597 32.8467 145.517 32.6867 145.397 32.58C145.277 32.46 145.11 32.4 144.897 32.4C144.683 32.4 144.517 32.46 144.397 32.58C144.277 32.6867 144.19 32.8467 144.137 33.06C144.083 33.26 144.057 33.5067 144.057 33.8V38.64C144.057 38.9333 144.083 39.1867 144.137 39.4C144.19 39.6 144.277 39.76 144.397 39.88C144.517 39.9867 144.683 40.04 144.897 40.04ZM155.365 42V37.34C155.191 37.3533 155.011 37.3667 154.825 37.38C154.651 37.3933 154.478 37.4 154.305 37.4C153.318 37.4 152.545 37.2867 151.985 37.06C151.438 36.82 151.051 36.4867 150.825 36.06C150.611 35.62 150.505 35.1 150.505 34.5V30.44H153.745V34.3C153.745 34.7133 153.825 35.02 153.985 35.22C154.145 35.42 154.471 35.5333 154.965 35.56C155.031 35.56 155.091 35.56 155.145 35.56C155.211 35.5467 155.285 35.54 155.365 35.54V30.44H158.625V42H155.365ZM160.986 45.36V43.1C161.4 43.1 161.74 43.0733 162.006 43.02C162.286 42.9667 162.493 42.8667 162.626 42.72C162.773 42.5733 162.846 42.3733 162.846 42.12C162.846 41.8933 162.806 41.62 162.726 41.3C162.646 40.9667 162.546 40.5933 162.426 40.18L159.706 30.44H162.766L164.226 37.12L165.326 30.44H168.406L165.746 42.28C165.573 43.08 165.3 43.7 164.926 44.14C164.553 44.5933 164.093 44.9067 163.546 45.08C163.013 45.2667 162.406 45.36 161.726 45.36H160.986ZM23.3595 73.36V71.1C23.7729 71.1 24.1129 71.0733 24.3795 71.02C24.6595 70.9667 24.8662 70.8667 24.9995 70.72C25.1462 70.5733 25.2195 70.3733 25.2195 70.12C25.2195 69.8933 25.1795 69.62 25.0995 69.3C25.0195 68.9667 24.9195 68.5933 24.7995 68.18L22.0795 58.44H25.1395L26.5995 65.12L27.6995 58.44H30.7795L28.1195 70.28C27.9462 71.08 27.6729 71.7 27.2995 72.14C26.9262 72.5933 26.4662 72.9067 25.9195 73.08C25.3862 73.2667 24.7795 73.36 24.0995 73.36H23.3595ZM35.7844 70.2C34.9444 70.2 34.2244 70.0533 33.6244 69.76C33.0244 69.4533 32.5644 69.0133 32.2444 68.44C31.9244 67.8533 31.7644 67.1533 31.7644 66.34V62.1C31.7644 61.2733 31.9244 60.5733 32.2444 60C32.5644 59.4267 33.0244 58.9933 33.6244 58.7C34.2377 58.3933 34.9577 58.24 35.7844 58.24C36.6377 58.24 37.3444 58.3867 37.9044 58.68C38.4777 58.9733 38.9044 59.4067 39.1844 59.98C39.4777 60.5533 39.6244 61.26 39.6244 62.1V64.42H34.9844V66.64C34.9844 66.9333 35.0177 67.1733 35.0844 67.36C35.151 67.5467 35.2444 67.68 35.3644 67.76C35.4844 67.84 35.6244 67.88 35.7844 67.88C35.9444 67.88 36.0844 67.8467 36.2044 67.78C36.3377 67.7 36.4377 67.58 36.5044 67.42C36.5844 67.26 36.6244 67.04 36.6244 66.76V65.54H39.6244V66.66C39.6244 67.8333 39.2844 68.72 38.6044 69.32C37.9244 69.9067 36.9844 70.2 35.7844 70.2ZM34.9844 62.9H36.6244V61.74C36.6244 61.4333 36.5844 61.1933 36.5044 61.02C36.4377 60.8467 36.3377 60.7267 36.2044 60.66C36.0844 60.5933 35.9377 60.56 35.7644 60.56C35.6044 60.56 35.4644 60.6 35.3444 60.68C35.2377 60.76 35.151 60.9 35.0844 61.1C35.0177 61.2867 34.9844 61.56 34.9844 61.92V62.9ZM44.8389 70.22C44.0389 70.22 43.3922 70.1133 42.8989 69.9C42.4189 69.6733 42.0456 69.3733 41.7789 69C41.5256 68.6133 41.3522 68.18 41.2589 67.7C41.1789 67.2067 41.1389 66.6933 41.1389 66.16H43.7189C43.7189 66.7733 43.8122 67.2333 43.9989 67.54C44.1989 67.8333 44.5056 67.98 44.9189 67.98C45.2256 67.98 45.4589 67.9133 45.6189 67.78C45.7789 67.6467 45.8856 67.46 45.9389 67.22C46.0056 66.98 46.0389 66.7133 46.0389 66.42C46.0389 66.0333 45.9656 65.7267 45.8189 65.5C45.6856 65.2733 45.4589 65.1133 45.1389 65.02C44.8322 64.9133 44.4122 64.86 43.8789 64.86V63.18C44.6789 63.18 45.1989 63.0733 45.4389 62.86C45.6922 62.6467 45.8189 62.2733 45.8189 61.74C45.8189 61.3533 45.7389 61.0467 45.5789 60.82C45.4322 60.5933 45.1656 60.48 44.7789 60.48C44.3656 60.48 44.0722 60.6 43.8989 60.84C43.7389 61.0667 43.6589 61.4733 43.6589 62.06H41.0989C41.0989 61.3667 41.2056 60.7333 41.4189 60.16C41.6322 59.5733 42.0122 59.1067 42.5589 58.76C43.1189 58.4133 43.9122 58.24 44.9389 58.24C45.8456 58.24 46.5789 58.3867 47.1389 58.68C47.7122 58.96 48.1256 59.3467 48.3789 59.84C48.6456 60.32 48.7789 60.8667 48.7789 61.48C48.7789 61.9867 48.6989 62.4133 48.5389 62.76C48.3789 63.1067 48.1722 63.38 47.9189 63.58C47.6656 63.7667 47.3856 63.9067 47.0789 64C47.4122 64.12 47.7056 64.28 47.9589 64.48C48.2256 64.68 48.4389 64.9667 48.5989 65.34C48.7589 65.7 48.8389 66.1933 48.8389 66.82C48.8389 67.7933 48.5256 68.6067 47.8989 69.26C47.2722 69.9 46.2522 70.22 44.8389 70.22ZM49.5228 70L51.8228 64.18L49.6628 58.44H52.4828L54.3228 63.92H54.5628V58.44H57.2828V63.92H57.5028L59.4628 58.44H62.3228L60.0228 64.18L62.4428 70H59.7428L57.5028 64.42H57.2828V70H54.5628V64.42H54.3228L52.2228 70H49.5228ZM65.8883 70.2C65.3016 70.2 64.8083 70.06 64.4083 69.78C64.0083 69.5 63.7083 69.1467 63.5083 68.72C63.3083 68.28 63.2083 67.8333 63.2083 67.38C63.2083 66.66 63.3483 66.0533 63.6283 65.56C63.9216 65.0667 64.3016 64.6533 64.7683 64.32C65.2349 63.9867 65.7483 63.7067 66.3083 63.48C66.8683 63.24 67.4216 63.0267 67.9683 62.84V61.68C67.9683 61.48 67.9483 61.3067 67.9083 61.16C67.8683 61 67.8016 60.88 67.7083 60.8C67.6149 60.7067 67.4749 60.66 67.2883 60.66C67.1016 60.66 66.9549 60.7 66.8483 60.78C66.7549 60.86 66.6883 60.9733 66.6483 61.12C66.6083 61.2533 66.5816 61.4067 66.5683 61.58L66.4883 62.42L63.4483 62.3C63.5149 60.9133 63.8816 59.8933 64.5483 59.24C65.2283 58.5733 66.2416 58.24 67.5883 58.24C68.7616 58.24 69.6349 58.5667 70.2083 59.22C70.7949 59.86 71.0883 60.6933 71.0883 61.72V67.12C71.0883 67.6 71.0949 68.02 71.1083 68.38C71.1349 68.74 71.1616 69.0533 71.1883 69.32C71.2283 69.5867 71.2616 69.8133 71.2883 70H68.3683C68.3283 69.6933 68.2816 69.36 68.2283 69C68.1749 68.64 68.1349 68.4267 68.1083 68.36C67.9749 68.84 67.7216 69.2667 67.3483 69.64C66.9883 70.0133 66.5016 70.2 65.8883 70.2ZM67.0483 68C67.1816 68 67.3016 67.9733 67.4083 67.92C67.5283 67.8667 67.6349 67.7933 67.7283 67.7C67.8216 67.6067 67.9016 67.5133 67.9683 67.42V64.26C67.7016 64.42 67.4549 64.5867 67.2283 64.76C67.0016 64.92 66.8083 65.1 66.6483 65.3C66.4883 65.5 66.3616 65.72 66.2683 65.96C66.1883 66.1867 66.1483 66.4467 66.1483 66.74C66.1483 67.1267 66.2283 67.4333 66.3883 67.66C66.5483 67.8867 66.7683 68 67.0483 68ZM74.42 70V60.64H72.32V58.44H79.76V60.64H77.66V70H74.42ZM81.1255 70V58.44H84.3855V63.08C84.3988 63.08 84.4055 63.08 84.4055 63.08C84.4188 63.08 84.4321 63.08 84.4455 63.08C84.4588 63.08 84.4721 63.08 84.4855 63.08C85.2855 63.08 85.9921 63.1333 86.6055 63.24C87.2188 63.3467 87.7255 63.5333 88.1255 63.8C88.5388 64.0533 88.8521 64.4 89.0655 64.84C89.2788 65.2667 89.3855 65.8133 89.3855 66.48C89.3855 67.1067 89.2921 67.6467 89.1055 68.1C88.9321 68.54 88.6455 68.9 88.2455 69.18C87.8588 69.46 87.3521 69.6667 86.7255 69.8C86.1121 69.9333 85.3721 70 84.5055 70H81.1255ZM84.3855 68.14H84.4455C84.9388 68.14 85.3255 68.0933 85.6055 68C85.8988 67.8933 86.1055 67.7267 86.2255 67.5C86.3588 67.26 86.4255 66.9467 86.4255 66.56C86.4255 66.1467 86.3588 65.8333 86.2255 65.62C86.1055 65.3933 85.8988 65.2333 85.6055 65.14C85.3255 65.0467 84.9521 65 84.4855 65C84.4721 65 84.4521 65 84.4255 65C84.4121 65 84.3988 65 84.3855 65V68.14ZM96.0864 70V58.44H98.6664V64.62L101.686 58.44H104.226V70H101.586V63.88L98.6464 70H96.0864ZM109.683 70.22C108.883 70.22 108.236 70.1133 107.743 69.9C107.263 69.6733 106.889 69.3733 106.623 69C106.369 68.6133 106.196 68.18 106.103 67.7C106.023 67.2067 105.983 66.6933 105.983 66.16H108.563C108.563 66.7733 108.656 67.2333 108.843 67.54C109.043 67.8333 109.349 67.98 109.763 67.98C110.069 67.98 110.303 67.9133 110.463 67.78C110.623 67.6467 110.729 67.46 110.783 67.22C110.849 66.98 110.883 66.7133 110.883 66.42C110.883 66.0333 110.809 65.7267 110.663 65.5C110.529 65.2733 110.303 65.1133 109.983 65.02C109.676 64.9133 109.256 64.86 108.723 64.86V63.18C109.523 63.18 110.043 63.0733 110.283 62.86C110.536 62.6467 110.663 62.2733 110.663 61.74C110.663 61.3533 110.583 61.0467 110.423 60.82C110.276 60.5933 110.009 60.48 109.623 60.48C109.209 60.48 108.916 60.6 108.743 60.84C108.583 61.0667 108.503 61.4733 108.503 62.06H105.943C105.943 61.3667 106.049 60.7333 106.263 60.16C106.476 59.5733 106.856 59.1067 107.403 58.76C107.963 58.4133 108.756 58.24 109.783 58.24C110.689 58.24 111.423 58.3867 111.983 58.68C112.556 58.96 112.969 59.3467 113.223 59.84C113.489 60.32 113.623 60.8667 113.623 61.48C113.623 61.9867 113.543 62.4133 113.383 62.76C113.223 63.1067 113.016 63.38 112.763 63.58C112.509 63.7667 112.229 63.9067 111.923 64C112.256 64.12 112.549 64.28 112.803 64.48C113.069 64.68 113.283 64.9667 113.443 65.34C113.603 65.7 113.683 66.1933 113.683 66.82C113.683 67.7933 113.369 68.6067 112.743 69.26C112.116 69.9 111.096 70.22 109.683 70.22ZM120.604 70V53.8H124.184V60.22H124.544L126.924 53.8H130.484L127.524 61.4L130.584 70H126.904L124.544 62.94H124.184V70H120.604ZM131.809 73.8V58.44H135.069V59.28C135.456 58.9333 135.869 58.6733 136.309 58.5C136.749 58.3267 137.169 58.24 137.569 58.24C138.009 58.24 138.382 58.3267 138.689 58.5C139.009 58.6733 139.269 58.92 139.469 59.24C139.669 59.5467 139.816 59.9067 139.909 60.32C140.002 60.7333 140.049 61.1733 140.049 61.64V66.62C140.049 67.34 139.949 67.9667 139.749 68.5C139.562 69.0333 139.282 69.4533 138.909 69.76C138.536 70.0533 138.076 70.2 137.529 70.2C137.116 70.2 136.696 70.1067 136.269 69.92C135.856 69.72 135.456 69.4533 135.069 69.12V73.8H131.809ZM135.929 68.1C136.142 68.1 136.309 68.04 136.429 67.92C136.549 67.8 136.636 67.6467 136.689 67.46C136.756 67.26 136.789 67.04 136.789 66.8V61.4C136.789 61.1733 136.762 60.9733 136.709 60.8C136.656 60.6133 136.569 60.4667 136.449 60.36C136.329 60.2533 136.176 60.2 135.989 60.2C135.816 60.2 135.649 60.24 135.489 60.32C135.342 60.3867 135.202 60.48 135.069 60.6V67.8C135.216 67.8933 135.356 67.9667 135.489 68.02C135.636 68.0733 135.782 68.1 135.929 68.1ZM141.907 70V58.44H145.167V63.08C145.18 63.08 145.187 63.08 145.187 63.08C145.2 63.08 145.213 63.08 145.227 63.08C145.24 63.08 145.253 63.08 145.267 63.08C146.067 63.08 146.773 63.14 147.387 63.26C148 63.3667 148.507 63.5533 148.907 63.82C149.32 64.0733 149.633 64.42 149.847 64.86C150.06 65.3 150.167 65.8533 150.167 66.52C150.167 67.1467 150.073 67.68 149.887 68.12C149.713 68.56 149.427 68.92 149.027 69.2C148.64 69.48 148.133 69.6867 147.507 69.82C146.893 69.94 146.153 70 145.287 70H141.907ZM145.167 68.14H145.227C145.72 68.14 146.107 68.0933 146.387 68C146.68 67.8933 146.887 67.7267 147.007 67.5C147.14 67.26 147.207 66.9467 147.207 66.56C147.207 66.1467 147.14 65.8333 147.007 65.62C146.887 65.3933 146.68 65.2333 146.387 65.14C146.107 65.0467 145.733 65 145.267 65C145.253 65 145.233 65 145.207 65C145.193 65 145.18 65 145.167 65V68.14ZM151.407 70V58.44H154.667V70H151.407ZM156.691 70L156.731 58.44H159.131L161.491 63.98L163.871 58.44H166.271L166.311 70H163.771V63.92L161.991 68.2H161.031L159.231 63.9V70H156.691ZM170.732 70.2C170.145 70.2 169.652 70.06 169.252 69.78C168.852 69.5 168.552 69.1467 168.352 68.72C168.152 68.28 168.052 67.8333 168.052 67.38C168.052 66.66 168.192 66.0533 168.472 65.56C168.765 65.0667 169.145 64.6533 169.612 64.32C170.079 63.9867 170.592 63.7067 171.152 63.48C171.712 63.24 172.265 63.0267 172.812 62.84V61.68C172.812 61.48 172.792 61.3067 172.752 61.16C172.712 61 172.645 60.88 172.552 60.8C172.459 60.7067 172.319 60.66 172.132 60.66C171.945 60.66 171.799 60.7 171.692 60.78C171.599 60.86 171.532 60.9733 171.492 61.12C171.452 61.2533 171.425 61.4067 171.412 61.58L171.332 62.42L168.292 62.3C168.359 60.9133 168.725 59.8933 169.392 59.24C170.072 58.5733 171.085 58.24 172.432 58.24C173.605 58.24 174.479 58.5667 175.052 59.22C175.639 59.86 175.932 60.6933 175.932 61.72V67.12C175.932 67.6 175.939 68.02 175.952 68.38C175.979 68.74 176.005 69.0533 176.032 69.32C176.072 69.5867 176.105 69.8133 176.132 70H173.212C173.172 69.6933 173.125 69.36 173.072 69C173.019 68.64 172.979 68.4267 172.952 68.36C172.819 68.84 172.565 69.2667 172.192 69.64C171.832 70.0133 171.345 70.2 170.732 70.2ZM171.892 68C172.025 68 172.145 67.9733 172.252 67.92C172.372 67.8667 172.479 67.7933 172.572 67.7C172.665 67.6067 172.745 67.5133 172.812 67.42V64.26C172.545 64.42 172.299 64.5867 172.072 64.76C171.845 64.92 171.652 65.1 171.492 65.3C171.332 65.5 171.205 65.72 171.112 65.96C171.032 66.1867 170.992 66.4467 170.992 66.74C170.992 67.1267 171.072 67.4333 171.232 67.66C171.392 67.8867 171.612 68 171.892 68ZM178.764 65.88L177.824 53.84H181.064L179.884 65.88H178.764ZM177.764 70V66.96H180.844V70H177.764Z" fill="black"/>
</svg>
