<svg width="216" height="155" viewBox="0 0 216 155" fill="none" xmlns="http://www.w3.org/2000/svg">
<path d="M4 4H212V109.84H108L48.5714 151V109.84H4V4Z" fill="white" stroke="black" stroke-width="6.2" stroke-linecap="round" stroke-linejoin="round"/>
<path d="M50.0676 50.36C48.7076 50.36 47.6356 50.104 46.8516 49.592C46.0836 49.08 45.5316 48.368 45.1956 47.456C44.8756 46.528 44.7156 45.464 44.7156 44.264V43.568H48.7476C48.7476 43.6 48.7476 43.696 48.7476 43.856C48.7476 44.016 48.7476 44.168 48.7476 44.312C48.7476 45.272 48.8436 45.96 49.0356 46.376C49.2276 46.776 49.5956 46.976 50.1396 46.976C50.5076 46.976 50.7796 46.88 50.9556 46.688C51.1476 46.496 51.2756 46.216 51.3396 45.848C51.4196 45.464 51.4596 44.984 51.4596 44.408C51.4596 43.432 51.3156 42.696 51.0276 42.2C50.7396 41.688 50.1396 41.424 49.2276 41.408C49.2116 41.392 49.1396 41.384 49.0116 41.384C48.8996 41.384 48.7636 41.384 48.6036 41.384C48.4436 41.384 48.2916 41.384 48.1476 41.384V38.768C48.2596 38.768 48.3716 38.768 48.4836 38.768C48.5956 38.768 48.7076 38.768 48.8196 38.768C48.9316 38.768 49.0356 38.768 49.1316 38.768C50.0756 38.752 50.6996 38.496 51.0036 38C51.3076 37.504 51.4596 36.768 51.4596 35.792C51.4596 35.04 51.3396 34.464 51.0996 34.064C50.8756 33.664 50.4916 33.464 49.9476 33.464C49.4196 33.464 49.0516 33.68 48.8436 34.112C48.6516 34.528 48.5476 35.088 48.5316 35.792C48.5316 35.824 48.5316 35.96 48.5316 36.2C48.5316 36.424 48.5316 36.648 48.5316 36.872H44.4996V35.696C44.4996 34.528 44.7236 33.544 45.1716 32.744C45.6356 31.928 46.2756 31.312 47.0916 30.896C47.9076 30.48 48.8676 30.272 49.9716 30.272C51.1076 30.272 52.0756 30.472 52.8756 30.872C53.6916 31.272 54.3156 31.864 54.7476 32.648C55.1796 33.416 55.3956 34.376 55.3956 35.528C55.3956 36.664 55.1636 37.624 54.6996 38.408C54.2356 39.176 53.6756 39.648 53.0196 39.824C53.4676 40 53.8676 40.264 54.2196 40.616C54.5876 40.952 54.8756 41.416 55.0836 42.008C55.2916 42.6 55.3956 43.36 55.3956 44.288C55.3956 45.472 55.2196 46.528 54.8676 47.456C54.5316 48.368 53.9716 49.08 53.1876 49.592C52.4036 50.104 51.3636 50.36 50.0676 50.36ZM57.5164 50L57.5644 36.128H60.4444L63.2764 42.776L66.1324 36.128H69.0124L69.0604 50H66.0124V42.704L63.8764 47.84H62.7244L60.5644 42.68V50H57.5164ZM71.5092 50V36.128H74.6052V43.544L78.2292 36.128H81.2772V50H78.1092V42.656L74.5812 50H71.5092ZM83.6967 50V36.128H88.6167C90.0087 36.128 91.0567 36.28 91.7607 36.584C92.4647 36.872 92.9367 37.272 93.1767 37.784C93.4167 38.296 93.5367 38.896 93.5367 39.584C93.5367 40.496 93.3367 41.168 92.9367 41.6C92.5527 42.016 92.0407 42.312 91.4007 42.488C92.0727 42.648 92.5847 42.888 92.9367 43.208C93.2887 43.528 93.5287 43.92 93.6567 44.384C93.8007 44.848 93.8727 45.384 93.8727 45.992C93.8727 46.888 93.7047 47.64 93.3687 48.248C93.0327 48.84 92.4647 49.28 91.6647 49.568C90.8647 49.856 89.7767 50 88.4007 50H83.6967ZM87.5847 47.84H88.2327C88.5847 47.84 88.8967 47.808 89.1687 47.744C89.4407 47.68 89.6567 47.512 89.8167 47.24C89.9927 46.952 90.0807 46.496 90.0807 45.872C90.0807 45.168 90.0007 44.664 89.8407 44.36C89.6967 44.056 89.4887 43.872 89.2167 43.808C88.9447 43.744 88.6247 43.712 88.2567 43.712H87.5847V47.84ZM87.5847 41.6H88.5687C89.0327 41.6 89.3527 41.456 89.5287 41.168C89.7047 40.864 89.7927 40.448 89.7927 39.92C89.7927 39.408 89.6967 38.984 89.5047 38.648C89.3287 38.312 88.9207 38.144 88.2807 38.144H87.5847V41.6ZM98.623 50.24C97.919 50.24 97.327 50.072 96.847 49.736C96.367 49.4 96.007 48.976 95.767 48.464C95.527 47.936 95.407 47.4 95.407 46.856C95.407 45.992 95.575 45.264 95.911 44.672C96.263 44.08 96.719 43.584 97.279 43.184C97.839 42.784 98.455 42.448 99.127 42.176C99.799 41.888 100.463 41.632 101.119 41.408V40.016C101.119 39.776 101.095 39.568 101.047 39.392C100.999 39.2 100.919 39.056 100.807 38.96C100.695 38.848 100.527 38.792 100.303 38.792C100.079 38.792 99.903 38.84 99.775 38.936C99.663 39.032 99.583 39.168 99.535 39.344C99.487 39.504 99.455 39.688 99.439 39.896L99.343 40.904L95.695 40.76C95.775 39.096 96.215 37.872 97.015 37.088C97.831 36.288 99.047 35.888 100.663 35.888C102.071 35.888 103.119 36.28 103.807 37.064C104.511 37.832 104.863 38.832 104.863 40.064V46.544C104.863 47.12 104.871 47.624 104.887 48.056C104.919 48.488 104.951 48.864 104.983 49.184C105.031 49.504 105.071 49.776 105.103 50H101.599C101.551 49.632 101.495 49.232 101.431 48.8C101.367 48.368 101.319 48.112 101.287 48.032C101.127 48.608 100.823 49.12 100.375 49.568C99.943 50.016 99.359 50.24 98.623 50.24ZM100.015 47.6C100.175 47.6 100.319 47.568 100.447 47.504C100.591 47.44 100.719 47.352 100.831 47.24C100.943 47.128 101.039 47.016 101.119 46.904V43.112C100.799 43.304 100.503 43.504 100.231 43.712C99.959 43.904 99.727 44.12 99.535 44.36C99.343 44.6 99.191 44.864 99.079 45.152C98.983 45.424 98.935 45.736 98.935 46.088C98.935 46.552 99.031 46.92 99.223 47.192C99.415 47.464 99.679 47.6 100.015 47.6ZM107.181 50V36.128H110.277V43.544L113.901 36.128H116.949V50H113.781V42.656L110.253 50H107.181ZM112.101 34.568C110.965 34.568 110.053 34.248 109.365 33.608C108.677 32.968 108.333 32.04 108.333 30.824H110.541C110.541 31.416 110.653 31.856 110.877 32.144C111.117 32.432 111.525 32.576 112.101 32.576C112.661 32.576 113.061 32.432 113.301 32.144C113.541 31.84 113.661 31.4 113.661 30.824H115.869C115.869 32.04 115.525 32.968 114.837 33.608C114.149 34.248 113.237 34.568 112.101 34.568ZM119.345 50L119.393 36.128H122.273L125.105 42.776L127.961 36.128H130.841L130.889 50H127.841V42.704L125.705 47.84H124.553L122.393 42.68V50H119.345ZM137.897 50.24C136.905 50.24 136.041 50.072 135.305 49.736C134.585 49.4 134.025 48.896 133.625 48.224C133.241 47.552 133.049 46.712 133.049 45.704V40.424C133.049 39.416 133.241 38.576 133.625 37.904C134.025 37.232 134.585 36.728 135.305 36.392C136.041 36.056 136.905 35.888 137.897 35.888C138.889 35.888 139.745 36.056 140.465 36.392C141.201 36.728 141.769 37.232 142.169 37.904C142.569 38.576 142.769 39.416 142.769 40.424V45.704C142.769 46.712 142.569 47.552 142.169 48.224C141.769 48.896 141.201 49.4 140.465 49.736C139.745 50.072 138.889 50.24 137.897 50.24ZM137.921 47.648C138.177 47.648 138.377 47.584 138.521 47.456C138.665 47.312 138.761 47.12 138.809 46.88C138.873 46.624 138.905 46.32 138.905 45.968V40.16C138.905 39.808 138.873 39.512 138.809 39.272C138.761 39.016 138.665 38.824 138.521 38.696C138.377 38.552 138.177 38.48 137.921 38.48C137.665 38.48 137.465 38.552 137.321 38.696C137.177 38.824 137.073 39.016 137.009 39.272C136.945 39.512 136.913 39.808 136.913 40.16V45.968C136.913 46.32 136.945 46.624 137.009 46.88C137.073 47.12 137.177 47.312 137.321 47.456C137.465 47.584 137.665 47.648 137.921 47.648ZM149.451 50.24C148.443 50.24 147.579 50.056 146.859 49.688C146.155 49.32 145.611 48.792 145.227 48.104C144.843 47.416 144.651 46.584 144.651 45.608V40.52C144.651 39.528 144.843 38.688 145.227 38C145.611 37.312 146.155 36.792 146.859 36.44C147.579 36.072 148.443 35.888 149.451 35.888C150.443 35.888 151.283 36.04 151.971 36.344C152.675 36.648 153.211 37.112 153.579 37.736C153.947 38.344 154.131 39.12 154.131 40.064V41.528H150.363V39.944C150.363 39.576 150.323 39.296 150.243 39.104C150.179 38.896 150.075 38.752 149.931 38.672C149.803 38.592 149.643 38.552 149.451 38.552C149.259 38.552 149.099 38.608 148.971 38.72C148.843 38.816 148.747 38.984 148.683 39.224C148.619 39.448 148.587 39.768 148.587 40.184V45.944C148.587 46.568 148.659 46.992 148.803 47.216C148.963 47.44 149.187 47.552 149.475 47.552C149.683 47.552 149.851 47.512 149.979 47.432C150.107 47.336 150.203 47.192 150.267 47C150.331 46.792 150.363 46.52 150.363 46.184V44.336H154.131V46.016C154.131 46.944 153.939 47.728 153.555 48.368C153.187 48.992 152.651 49.464 151.947 49.784C151.259 50.088 150.427 50.24 149.451 50.24ZM155.349 50L157.509 44.24C157.141 44.032 156.829 43.744 156.573 43.376C156.317 43.008 156.125 42.576 155.997 42.08C155.869 41.584 155.805 41.048 155.805 40.472C155.805 39.832 155.893 39.248 156.069 38.72C156.261 38.192 156.557 37.736 156.957 37.352C157.373 36.968 157.909 36.672 158.565 36.464C159.221 36.24 160.013 36.128 160.941 36.128H166.101V50H162.213V45.056C162.149 45.056 161.973 45.056 161.685 45.056C161.397 45.04 161.181 45.024 161.037 45.008L159.477 50H155.349ZM162.045 42.752C162.077 42.752 162.109 42.752 162.141 42.752C162.173 42.752 162.197 42.752 162.213 42.752V38.336C162.197 38.336 162.173 38.336 162.141 38.336C162.109 38.336 162.077 38.336 162.045 38.336C161.453 38.336 160.957 38.416 160.557 38.576C160.157 38.736 159.853 38.976 159.645 39.296C159.453 39.6 159.357 39.984 159.357 40.448C159.357 41.232 159.589 41.808 160.053 42.176C160.533 42.544 161.197 42.736 162.045 42.752ZM74.1372 82.264C73.1772 82.264 72.4012 82.136 71.8092 81.88C71.2332 81.608 70.7852 81.248 70.4652 80.8C70.1612 80.336 69.9532 79.816 69.8412 79.24C69.7452 78.648 69.6972 78.032 69.6972 77.392H72.7932C72.7932 78.128 72.9052 78.68 73.1292 79.048C73.3692 79.4 73.7372 79.576 74.2332 79.576C74.6012 79.576 74.8812 79.496 75.0732 79.336C75.2652 79.176 75.3932 78.952 75.4572 78.664C75.5372 78.376 75.5772 78.056 75.5772 77.704C75.5772 77.24 75.4892 76.872 75.3132 76.6C75.1532 76.328 74.8812 76.136 74.4972 76.024C74.1292 75.896 73.6252 75.832 72.9852 75.832V73.816C73.9452 73.816 74.5692 73.688 74.8572 73.432C75.1612 73.176 75.3132 72.728 75.3132 72.088C75.3132 71.624 75.2172 71.256 75.0252 70.984C74.8492 70.712 74.5292 70.576 74.0652 70.576C73.5692 70.576 73.2172 70.72 73.0092 71.008C72.8172 71.28 72.7212 71.768 72.7212 72.472H69.6492C69.6492 71.64 69.7772 70.88 70.0332 70.192C70.2892 69.488 70.7452 68.928 71.4012 68.512C72.0732 68.096 73.0252 67.888 74.2572 67.888C75.3452 67.888 76.2252 68.064 76.8972 68.416C77.5852 68.752 78.0812 69.216 78.3852 69.808C78.7052 70.384 78.8652 71.04 78.8652 71.776C78.8652 72.384 78.7692 72.896 78.5772 73.312C78.3852 73.728 78.1372 74.056 77.8332 74.296C77.5292 74.52 77.1932 74.688 76.8252 74.8C77.2252 74.944 77.5772 75.136 77.8812 75.376C78.2012 75.616 78.4572 75.96 78.6492 76.408C78.8412 76.84 78.9372 77.432 78.9372 78.184C78.9372 79.352 78.5612 80.328 77.8092 81.112C77.0572 81.88 75.8332 82.264 74.1372 82.264ZM80.8138 82V68.128H85.7338C87.1258 68.128 88.1738 68.28 88.8778 68.584C89.5818 68.872 90.0538 69.272 90.2938 69.784C90.5338 70.296 90.6538 70.896 90.6538 71.584C90.6538 72.496 90.4538 73.168 90.0538 73.6C89.6698 74.016 89.1578 74.312 88.5178 74.488C89.1898 74.648 89.7018 74.888 90.0538 75.208C90.4058 75.528 90.6458 75.92 90.7738 76.384C90.9178 76.848 90.9898 77.384 90.9898 77.992C90.9898 78.888 90.8218 79.64 90.4858 80.248C90.1498 80.84 89.5818 81.28 88.7818 81.568C87.9818 81.856 86.8938 82 85.5178 82H80.8138ZM84.7018 79.84H85.3498C85.7018 79.84 86.0138 79.808 86.2858 79.744C86.5578 79.68 86.7738 79.512 86.9338 79.24C87.1098 78.952 87.1978 78.496 87.1978 77.872C87.1978 77.168 87.1178 76.664 86.9578 76.36C86.8138 76.056 86.6058 75.872 86.3338 75.808C86.0618 75.744 85.7418 75.712 85.3738 75.712H84.7018V79.84ZM84.7018 73.6H85.6858C86.1498 73.6 86.4698 73.456 86.6458 73.168C86.8218 72.864 86.9098 72.448 86.9098 71.92C86.9098 71.408 86.8138 70.984 86.6218 70.648C86.4458 70.312 86.0378 70.144 85.3978 70.144H84.7018V73.6ZM92.955 82V68.128H96.867V82H92.955ZM92.931 65.776V63.064H96.867V65.776H92.931ZM98.8266 85.768V79.624C99.3546 79.384 99.8106 79.072 100.195 78.688C100.579 78.288 100.907 77.808 101.179 77.248C101.451 76.672 101.667 76.008 101.827 75.256C101.987 74.488 102.099 73.616 102.163 72.64L102.571 68.128H110.203V79.6H112.219V85.768H109.411L109.147 82H101.899L101.683 85.768H98.8266ZM103.051 79.6H106.627V70.456H105.475L105.187 73.576C105.139 74.456 105.051 75.224 104.923 75.88C104.795 76.52 104.635 77.08 104.443 77.56C104.267 78.024 104.059 78.424 103.819 78.76C103.579 79.08 103.323 79.36 103.051 79.6ZM118.373 82.24C117.365 82.24 116.501 82.056 115.781 81.688C115.077 81.32 114.533 80.792 114.149 80.104C113.765 79.416 113.573 78.584 113.573 77.608V72.52C113.573 71.528 113.765 70.688 114.149 70C114.533 69.312 115.077 68.792 115.781 68.44C116.501 68.072 117.365 67.888 118.373 67.888C119.365 67.888 120.205 68.04 120.893 68.344C121.597 68.648 122.133 69.112 122.501 69.736C122.869 70.344 123.053 71.12 123.053 72.064V73.528H119.285V71.944C119.285 71.576 119.245 71.296 119.165 71.104C119.101 70.896 118.997 70.752 118.853 70.672C118.725 70.592 118.565 70.552 118.373 70.552C118.181 70.552 118.021 70.608 117.893 70.72C117.765 70.816 117.669 70.984 117.605 71.224C117.541 71.448 117.509 71.768 117.509 72.184V77.944C117.509 78.568 117.581 78.992 117.725 79.216C117.885 79.44 118.109 79.552 118.397 79.552C118.605 79.552 118.773 79.512 118.901 79.432C119.029 79.336 119.125 79.192 119.189 79C119.253 78.792 119.285 78.52 119.285 78.184V76.336H123.053V78.016C123.053 78.944 122.861 79.728 122.477 80.368C122.109 80.992 121.573 81.464 120.869 81.784C120.181 82.088 119.349 82.24 118.373 82.24ZM125.087 82V68.128H128.183V75.544L131.807 68.128H134.855V82H131.687V74.656L128.159 82H125.087ZM138.355 77.056L137.227 62.608H141.115L139.699 77.056H138.355ZM137.155 82V78.352H140.851V82H137.155Z" fill="black"/>
</svg>
