<svg width="195" height="147" viewBox="0 0 195 147" fill="none" xmlns="http://www.w3.org/2000/svg">
<path d="M191 4H4.00001V104.08H97.5L150.929 143V104.08H191V4Z" fill="white" stroke="black" stroke-width="6.2" stroke-linecap="round" stroke-linejoin="round"/>
<path d="M30.056 43.288C28.568 43.288 27.4 43.048 26.552 42.568C25.72 42.072 25.136 41.36 24.8 40.432C24.464 39.488 24.296 38.336 24.296 36.976V23.56H28.544V37.624C28.544 38.024 28.576 38.424 28.64 38.824C28.704 39.224 28.84 39.552 29.048 39.808C29.272 40.064 29.608 40.192 30.056 40.192C30.52 40.192 30.856 40.064 31.064 39.808C31.272 39.552 31.4 39.224 31.448 38.824C31.512 38.424 31.544 38.024 31.544 37.624V23.56H35.816V36.976C35.816 38.336 35.64 39.488 35.288 40.432C34.952 41.36 34.368 42.072 33.536 42.568C32.704 43.048 31.544 43.288 30.056 43.288ZM38.5494 43V23.56H43.9014C45.2134 23.56 46.3494 23.704 47.3094 23.992C48.2694 24.28 49.0134 24.8 49.5414 25.552C50.0854 26.288 50.3574 27.336 50.3574 28.696C50.3574 29.496 50.2934 30.208 50.1654 30.832C50.0374 31.456 49.7974 32 49.4454 32.464C49.1094 32.912 48.6214 33.288 47.9814 33.592L50.6454 43H46.2054L44.0694 34.288H42.8454V43H38.5494ZM42.8454 31.816H44.0454C44.6534 31.816 45.1254 31.712 45.4614 31.504C45.7974 31.28 46.0294 30.968 46.1574 30.568C46.3014 30.152 46.3734 29.656 46.3734 29.08C46.3734 28.248 46.2214 27.6 45.9174 27.136C45.6134 26.672 45.0534 26.44 44.2374 26.44H42.8454V31.816ZM52.94 43V23.56H58.292C59.604 23.56 60.74 23.704 61.7 23.992C62.66 24.28 63.404 24.8 63.932 25.552C64.476 26.288 64.748 27.336 64.748 28.696C64.748 29.496 64.684 30.208 64.556 30.832C64.428 31.456 64.188 32 63.836 32.464C63.5 32.912 63.012 33.288 62.372 33.592L65.036 43H60.596L58.46 34.288H57.236V43H52.94ZM57.236 31.816H58.436C59.044 31.816 59.516 31.712 59.852 31.504C60.188 31.28 60.42 30.968 60.548 30.568C60.692 30.152 60.764 29.656 60.764 29.08C60.764 28.248 60.612 27.6 60.308 27.136C60.004 26.672 59.444 26.44 58.628 26.44H57.236V31.816ZM68.8203 43L66.4683 23.56H70.1163L71.2683 34.888L72.7323 23.584H75.5883L77.1243 34.816L78.3003 23.56H81.9003L79.5723 43H75.8283L74.1723 31.264L72.6123 43H68.8203ZM85.5547 43L83.2027 23.56H86.8507L88.0027 34.888L89.4667 23.584H92.3227L93.8587 34.816L95.0347 23.56H98.6347L96.3067 43H92.5627L90.9067 31.264L89.3467 43H85.5547ZM102.289 43L99.9371 23.56H103.585L104.737 34.888L106.201 23.584H109.057L110.593 34.816L111.769 23.56H115.369L113.041 43H109.297L107.641 31.264L106.081 43H102.289ZM117.535 43V23.56H121.831V31.432H124.831V23.56H129.151V43H124.831V34.504H121.831V43H117.535ZM132.184 43V23.56H136.48V31.432H139.48V23.56H143.8V43H139.48V34.504H136.48V43H132.184ZM147.624 38.056L146.496 23.608H150.384L148.968 38.056H147.624ZM146.424 43V39.352H150.12V43H146.424ZM153.788 38.056L152.66 23.608H156.548L155.132 38.056H153.788ZM152.588 43V39.352H156.284V43H152.588ZM159.952 38.056L158.824 23.608H162.712L161.296 38.056H159.952ZM158.752 43V39.352H162.448V43H158.752ZM23.504 75L27.176 55.56H32.072L35.696 75H31.736L31.088 70.896H28.232L27.56 75H23.504ZM28.616 68.328H30.68L29.648 60.744L28.616 68.328ZM36.7228 75L40.3948 55.56H45.2908L48.9148 75H44.9548L44.3068 70.896H41.4508L40.7788 75H36.7228ZM41.8348 68.328H43.8988L42.8668 60.744L41.8348 68.328ZM50.8775 75V55.56H56.2295C57.5415 55.56 58.6775 55.704 59.6375 55.992C60.5975 56.28 61.3415 56.8 61.8695 57.552C62.4135 58.288 62.6855 59.336 62.6855 60.696C62.6855 61.496 62.6215 62.208 62.4935 62.832C62.3655 63.456 62.1255 64 61.7735 64.464C61.4375 64.912 60.9495 65.288 60.3095 65.592L62.9735 75H58.5335L56.3975 66.288H55.1735V75H50.8775ZM55.1735 63.816H56.3735C56.9815 63.816 57.4535 63.712 57.7895 63.504C58.1255 63.28 58.3575 62.968 58.4855 62.568C58.6295 62.152 58.7015 61.656 58.7015 61.08C58.7015 60.248 58.5495 59.6 58.2455 59.136C57.9415 58.672 57.3815 58.44 56.5655 58.44H55.1735V63.816ZM65.2681 75V55.56H70.6201C71.9321 55.56 73.0681 55.704 74.0281 55.992C74.9881 56.28 75.7321 56.8 76.2601 57.552C76.8041 58.288 77.0761 59.336 77.0761 60.696C77.0761 61.496 77.0121 62.208 76.8841 62.832C76.7561 63.456 76.5161 64 76.1641 64.464C75.8281 64.912 75.3401 65.288 74.7001 65.592L77.3641 75H72.9241L70.7881 66.288H69.5641V75H65.2681ZM69.5641 63.816H70.7641C71.3721 63.816 71.8441 63.712 72.1801 63.504C72.5161 63.28 72.7481 62.968 72.8761 62.568C73.0201 62.152 73.0921 61.656 73.0921 61.08C73.0921 60.248 72.9401 59.6 72.6361 59.136C72.3321 58.672 71.7721 58.44 70.9561 58.44H69.5641V63.816ZM85.1576 75.288C83.6696 75.288 82.5016 75.048 81.6536 74.568C80.8216 74.072 80.2376 73.36 79.9016 72.432C79.5656 71.488 79.3976 70.336 79.3976 68.976V55.56H83.6456V69.624C83.6456 70.024 83.6776 70.424 83.7416 70.824C83.8056 71.224 83.9416 71.552 84.1496 71.808C84.3736 72.064 84.7096 72.192 85.1576 72.192C85.6216 72.192 85.9576 72.064 86.1656 71.808C86.3736 71.552 86.5016 71.224 86.5496 70.824C86.6136 70.424 86.6456 70.024 86.6456 69.624V55.56H90.9176V68.976C90.9176 70.336 90.7416 71.488 90.3896 72.432C90.0536 73.36 89.4696 74.072 88.6376 74.568C87.8056 75.048 86.6456 75.288 85.1576 75.288ZM93.7229 75V55.56H98.0189V63.432H101.019V55.56H105.339V75H101.019V66.504H98.0189V75H93.7229ZM108.371 75V55.56H112.667V63.432H115.667V55.56H119.987V75H115.667V66.504H112.667V75H108.371ZM123.02 75V55.56H127.316V63.432H130.316V55.56H134.636V75H130.316V66.504H127.316V75H123.02ZM138.46 70.056L137.332 55.608H141.22L139.804 70.056H138.46ZM137.26 75V71.352H140.956V75H137.26ZM144.624 70.056L143.496 55.608H147.384L145.968 70.056H144.624ZM143.424 75V71.352H147.12V75H143.424Z" fill="black"/>
</svg>
