<svg width="182" height="137" viewBox="0 0 182 137" fill="none" xmlns="http://www.w3.org/2000/svg">
<path d="M4 4H178V96.88H91L41.2857 133V96.88H4V4Z" fill="white" stroke="black" stroke-width="6.2" stroke-linecap="round" stroke-linejoin="round"/>
<path d="M25.192 52V35.752H22.264V32.56H32.416V35.752H29.512V52H25.192ZM36.7675 52.24C36.0635 52.24 35.4715 52.072 34.9915 51.736C34.5115 51.4 34.1515 50.976 33.9115 50.464C33.6715 49.936 33.5515 49.4 33.5515 48.856C33.5515 47.992 33.7195 47.264 34.0555 46.672C34.4075 46.08 34.8635 45.584 35.4235 45.184C35.9835 44.784 36.5995 44.448 37.2715 44.176C37.9435 43.888 38.6075 43.632 39.2635 43.408V42.016C39.2635 41.776 39.2395 41.568 39.1915 41.392C39.1435 41.2 39.0635 41.056 38.9515 40.96C38.8395 40.848 38.6715 40.792 38.4475 40.792C38.2235 40.792 38.0475 40.84 37.9195 40.936C37.8075 41.032 37.7275 41.168 37.6795 41.344C37.6315 41.504 37.5995 41.688 37.5835 41.896L37.4875 42.904L33.8395 42.76C33.9195 41.096 34.3595 39.872 35.1595 39.088C35.9755 38.288 37.1915 37.888 38.8075 37.888C40.2155 37.888 41.2635 38.28 41.9515 39.064C42.6555 39.832 43.0075 40.832 43.0075 42.064V48.544C43.0075 49.12 43.0155 49.624 43.0315 50.056C43.0635 50.488 43.0955 50.864 43.1275 51.184C43.1755 51.504 43.2155 51.776 43.2475 52H39.7435C39.6955 51.632 39.6395 51.232 39.5755 50.8C39.5115 50.368 39.4635 50.112 39.4315 50.032C39.2715 50.608 38.9675 51.12 38.5195 51.568C38.0875 52.016 37.5035 52.24 36.7675 52.24ZM38.1595 49.6C38.3195 49.6 38.4635 49.568 38.5915 49.504C38.7355 49.44 38.8635 49.352 38.9755 49.24C39.0875 49.128 39.1835 49.016 39.2635 48.904V45.112C38.9435 45.304 38.6475 45.504 38.3755 45.712C38.1035 45.904 37.8715 46.12 37.6795 46.36C37.4875 46.6 37.3355 46.864 37.2235 47.152C37.1275 47.424 37.0795 47.736 37.0795 48.088C37.0795 48.552 37.1755 48.92 37.3675 49.192C37.5595 49.464 37.8235 49.6 38.1595 49.6ZM45.3256 52V38.128H49.2376V43.6H49.8136L51.9256 38.128H56.1256L53.3896 44.68L56.1976 52H52.0696L49.8136 45.856H49.2376V52H45.3256ZM58.0383 55.36L57.7983 54.088C58.2143 53.976 58.5983 53.768 58.9503 53.464C59.3183 53.176 59.5023 52.688 59.5023 52H57.4383V48.304H61.1583V51.496C61.1423 52.68 60.8783 53.6 60.3663 54.256C59.8543 54.912 59.0783 55.28 58.0383 55.36ZM69.4896 52V38.128H74.4096C75.8016 38.128 76.8496 38.28 77.5536 38.584C78.2576 38.872 78.7296 39.272 78.9696 39.784C79.2096 40.296 79.3296 40.896 79.3296 41.584C79.3296 42.496 79.1296 43.168 78.7296 43.6C78.3456 44.016 77.8336 44.312 77.1936 44.488C77.8656 44.648 78.3776 44.888 78.7296 45.208C79.0816 45.528 79.3216 45.92 79.4496 46.384C79.5936 46.848 79.6656 47.384 79.6656 47.992C79.6656 48.888 79.4976 49.64 79.1616 50.248C78.8256 50.84 78.2576 51.28 77.4576 51.568C76.6576 51.856 75.5696 52 74.1936 52H69.4896ZM73.3776 49.84H74.0256C74.3776 49.84 74.6896 49.808 74.9616 49.744C75.2336 49.68 75.4496 49.512 75.6096 49.24C75.7856 48.952 75.8736 48.496 75.8736 47.872C75.8736 47.168 75.7936 46.664 75.6336 46.36C75.4896 46.056 75.2816 45.872 75.0096 45.808C74.7376 45.744 74.4176 45.712 74.0496 45.712H73.3776V49.84ZM73.3776 43.6H74.3616C74.8256 43.6 75.1456 43.456 75.3216 43.168C75.4976 42.864 75.5856 42.448 75.5856 41.92C75.5856 41.408 75.4896 40.984 75.2976 40.648C75.1216 40.312 74.7136 40.144 74.0736 40.144H73.3776V43.6ZM80.6714 52.144V49.384C81.1834 49.384 81.5994 49.304 81.9194 49.144C82.2554 48.984 82.5194 48.712 82.7114 48.328C82.9194 47.928 83.0794 47.392 83.1914 46.72C83.3034 46.032 83.3994 45.16 83.4794 44.104L83.9354 38.128H92.7434V52H88.8314V40.768H87.2474L86.9114 44.872C86.7994 46.312 86.6394 47.504 86.4314 48.448C86.2234 49.392 85.9194 50.136 85.5194 50.68C85.1194 51.208 84.5834 51.584 83.9114 51.808C83.2394 52.032 82.3834 52.144 81.3434 52.144H80.6714ZM95.5846 56.032V53.32C96.0806 53.32 96.4886 53.288 96.8086 53.224C97.1446 53.16 97.3926 53.04 97.5526 52.864C97.7286 52.688 97.8166 52.448 97.8166 52.144C97.8166 51.872 97.7686 51.544 97.6726 51.16C97.5766 50.76 97.4566 50.312 97.3126 49.816L94.0486 38.128H97.7206L99.4726 46.144L100.793 38.128H104.489L101.297 52.336C101.089 53.296 100.761 54.04 100.313 54.568C99.8646 55.112 99.3126 55.488 98.6566 55.696C98.0166 55.92 97.2886 56.032 96.4726 56.032H95.5846ZM111.502 52V46.408C111.294 46.424 111.078 46.44 110.854 46.456C110.646 46.472 110.438 46.48 110.23 46.48C109.046 46.48 108.118 46.344 107.446 46.072C106.79 45.784 106.326 45.384 106.054 44.872C105.798 44.344 105.67 43.72 105.67 43V38.128H109.558V42.76C109.558 43.256 109.654 43.624 109.846 43.864C110.038 44.104 110.43 44.24 111.022 44.272C111.102 44.272 111.174 44.272 111.238 44.272C111.318 44.256 111.406 44.248 111.502 44.248V38.128H115.414V52H111.502ZM117.865 52V38.128H120.961V45.544L124.585 38.128H127.633V52H124.465V44.656L120.937 52H117.865ZM129.14 52.144V49.384C129.652 49.384 130.068 49.304 130.388 49.144C130.724 48.984 130.988 48.712 131.18 48.328C131.388 47.928 131.548 47.392 131.66 46.72C131.772 46.032 131.868 45.16 131.948 44.104L132.404 38.128H141.212V52H137.3V40.768H135.716L135.38 44.872C135.268 46.312 135.108 47.504 134.9 48.448C134.692 49.392 134.388 50.136 133.988 50.68C133.588 51.208 133.052 51.584 132.38 51.808C131.708 52.032 130.852 52.144 129.812 52.144H129.14ZM143.669 52V38.128H146.765V45.544L150.389 38.128H153.437V52H150.269V44.656L146.741 52H143.669ZM156.937 47.056L155.809 32.608H159.697L158.281 47.056H156.937ZM155.737 52V48.352H159.433V52H155.737Z" fill="black"/>
</svg>
