<svg width="213" height="169" viewBox="0 0 213 169" fill="none" xmlns="http://www.w3.org/2000/svg">
<path d="M4 4H209V119.92H106.5L47.9286 165V119.92H4V4Z" fill="white" stroke="black" stroke-width="6.2" stroke-linecap="round" stroke-linejoin="round"/>
<path d="M24.8248 41V24.752H21.8968V21.56H32.0488V24.752H29.1448V41H24.8248ZM36.4003 41.24C35.6963 41.24 35.1043 41.072 34.6243 40.736C34.1443 40.4 33.7843 39.976 33.5443 39.464C33.3043 38.936 33.1843 38.4 33.1843 37.856C33.1843 36.992 33.3523 36.264 33.6883 35.672C34.0403 35.08 34.4963 34.584 35.0563 34.184C35.6163 33.784 36.2323 33.448 36.9043 33.176C37.5763 32.888 38.2403 32.632 38.8963 32.408V31.016C38.8963 30.776 38.8723 30.568 38.8243 30.392C38.7763 30.2 38.6963 30.056 38.5843 29.96C38.4723 29.848 38.3043 29.792 38.0803 29.792C37.8563 29.792 37.6803 29.84 37.5523 29.936C37.4403 30.032 37.3603 30.168 37.3123 30.344C37.2643 30.504 37.2323 30.688 37.2163 30.896L37.1203 31.904L33.4723 31.76C33.5523 30.096 33.9923 28.872 34.7923 28.088C35.6083 27.288 36.8243 26.888 38.4403 26.888C39.8483 26.888 40.8963 27.28 41.5843 28.064C42.2883 28.832 42.6403 29.832 42.6403 31.064V37.544C42.6403 38.12 42.6483 38.624 42.6643 39.056C42.6963 39.488 42.7283 39.864 42.7603 40.184C42.8083 40.504 42.8483 40.776 42.8803 41H39.3763C39.3283 40.632 39.2723 40.232 39.2083 39.8C39.1443 39.368 39.0963 39.112 39.0643 39.032C38.9043 39.608 38.6003 40.12 38.1523 40.568C37.7203 41.016 37.1363 41.24 36.4003 41.24ZM37.7923 38.6C37.9523 38.6 38.0963 38.568 38.2243 38.504C38.3683 38.44 38.4963 38.352 38.6083 38.24C38.7203 38.128 38.8163 38.016 38.8963 37.904V34.112C38.5763 34.304 38.2803 34.504 38.0083 34.712C37.7363 34.904 37.5043 35.12 37.3123 35.36C37.1203 35.6 36.9683 35.864 36.8563 36.152C36.7603 36.424 36.7123 36.736 36.7123 37.088C36.7123 37.552 36.8083 37.92 37.0003 38.192C37.1923 38.464 37.4563 38.6 37.7923 38.6ZM44.9584 41V27.128H48.8704V32.6H49.4464L51.5584 27.128H55.7584L53.0224 33.68L55.8304 41H51.7024L49.4464 34.856H48.8704V41H44.9584ZM57.6711 44.36L57.4311 43.088C57.8471 42.976 58.2311 42.768 58.5831 42.464C58.9511 42.176 59.1351 41.688 59.1351 41H57.0711V37.304H60.7911V40.496C60.7751 41.68 60.5111 42.6 59.9991 43.256C59.4871 43.912 58.7111 44.28 57.6711 44.36ZM73.2504 41.264C72.2904 41.264 71.5144 41.136 70.9224 40.88C70.3464 40.608 69.8984 40.248 69.5784 39.8C69.2744 39.336 69.0664 38.816 68.9544 38.24C68.8584 37.648 68.8104 37.032 68.8104 36.392H71.9064C71.9064 37.128 72.0184 37.68 72.2424 38.048C72.4824 38.4 72.8504 38.576 73.3464 38.576C73.7144 38.576 73.9944 38.496 74.1864 38.336C74.3784 38.176 74.5064 37.952 74.5704 37.664C74.6504 37.376 74.6904 37.056 74.6904 36.704C74.6904 36.24 74.6024 35.872 74.4264 35.6C74.2664 35.328 73.9944 35.136 73.6104 35.024C73.2424 34.896 72.7384 34.832 72.0984 34.832V32.816C73.0584 32.816 73.6824 32.688 73.9704 32.432C74.2744 32.176 74.4264 31.728 74.4264 31.088C74.4264 30.624 74.3304 30.256 74.1384 29.984C73.9624 29.712 73.6424 29.576 73.1784 29.576C72.6824 29.576 72.3304 29.72 72.1224 30.008C71.9304 30.28 71.8344 30.768 71.8344 31.472H68.7624C68.7624 30.64 68.8904 29.88 69.1464 29.192C69.4024 28.488 69.8584 27.928 70.5144 27.512C71.1864 27.096 72.1384 26.888 73.3704 26.888C74.4584 26.888 75.3384 27.064 76.0104 27.416C76.6984 27.752 77.1944 28.216 77.4984 28.808C77.8184 29.384 77.9784 30.04 77.9784 30.776C77.9784 31.384 77.8824 31.896 77.6904 32.312C77.4984 32.728 77.2504 33.056 76.9464 33.296C76.6424 33.52 76.3064 33.688 75.9384 33.8C76.3384 33.944 76.6904 34.136 76.9944 34.376C77.3144 34.616 77.5704 34.96 77.7624 35.408C77.9544 35.84 78.0504 36.432 78.0504 37.184C78.0504 38.352 77.6744 39.328 76.9224 40.112C76.1704 40.88 74.9464 41.264 73.2504 41.264ZM79.9271 41V27.128H84.8471C86.2391 27.128 87.2871 27.28 87.9911 27.584C88.6951 27.872 89.1671 28.272 89.4071 28.784C89.6471 29.296 89.7671 29.896 89.7671 30.584C89.7671 31.496 89.5671 32.168 89.1671 32.6C88.7831 33.016 88.2711 33.312 87.6311 33.488C88.3031 33.648 88.8151 33.888 89.1671 34.208C89.5191 34.528 89.7591 34.92 89.8871 35.384C90.0311 35.848 90.1031 36.384 90.1031 36.992C90.1031 37.888 89.9351 38.64 89.5991 39.248C89.2631 39.84 88.6951 40.28 87.8951 40.568C87.0951 40.856 86.0071 41 84.6311 41H79.9271ZM83.8151 38.84H84.4631C84.8151 38.84 85.1271 38.808 85.3991 38.744C85.6711 38.68 85.8871 38.512 86.0471 38.24C86.2231 37.952 86.3111 37.496 86.3111 36.872C86.3111 36.168 86.2311 35.664 86.0711 35.36C85.9271 35.056 85.7191 34.872 85.4471 34.808C85.1751 34.744 84.8551 34.712 84.4871 34.712H83.8151V38.84ZM83.8151 32.6H84.7991C85.2631 32.6 85.5831 32.456 85.7591 32.168C85.9351 31.864 86.0231 31.448 86.0231 30.92C86.0231 30.408 85.9271 29.984 85.7351 29.648C85.5591 29.312 85.1511 29.144 84.5111 29.144H83.8151V32.6ZM92.0683 41V27.128H95.9803V41H92.0683ZM92.0443 24.776V22.064H95.9803V24.776H92.0443ZM102.908 41.24C101.9 41.24 101.036 41.056 100.316 40.688C99.6119 40.32 99.0679 39.792 98.6839 39.104C98.2999 38.416 98.1079 37.584 98.1079 36.608V31.52C98.1079 30.528 98.2999 29.688 98.6839 29C99.0679 28.312 99.6119 27.792 100.316 27.44C101.036 27.072 101.9 26.888 102.908 26.888C103.9 26.888 104.74 27.04 105.428 27.344C106.132 27.648 106.668 28.112 107.036 28.736C107.404 29.344 107.588 30.12 107.588 31.064V32.528H103.82V30.944C103.82 30.576 103.78 30.296 103.7 30.104C103.636 29.896 103.532 29.752 103.388 29.672C103.26 29.592 103.1 29.552 102.908 29.552C102.716 29.552 102.556 29.608 102.428 29.72C102.3 29.816 102.204 29.984 102.14 30.224C102.076 30.448 102.044 30.768 102.044 31.184V36.944C102.044 37.568 102.116 37.992 102.26 38.216C102.42 38.44 102.644 38.552 102.932 38.552C103.14 38.552 103.308 38.512 103.436 38.432C103.564 38.336 103.66 38.192 103.724 38C103.788 37.792 103.82 37.52 103.82 37.184V35.336H107.588V37.016C107.588 37.944 107.396 38.728 107.012 39.368C106.644 39.992 106.108 40.464 105.404 40.784C104.716 41.088 103.884 41.24 102.908 41.24ZM109.622 41V27.128H113.534V32.504H115.862V27.128H119.798V41H115.862V35.192H113.534V41H109.622ZM126.792 41.24C125.8 41.24 124.936 41.072 124.2 40.736C123.48 40.4 122.92 39.896 122.52 39.224C122.136 38.552 121.944 37.712 121.944 36.704V31.424C121.944 30.416 122.136 29.576 122.52 28.904C122.92 28.232 123.48 27.728 124.2 27.392C124.936 27.056 125.8 26.888 126.792 26.888C127.784 26.888 128.64 27.056 129.36 27.392C130.096 27.728 130.664 28.232 131.064 28.904C131.464 29.576 131.664 30.416 131.664 31.424V36.704C131.664 37.712 131.464 38.552 131.064 39.224C130.664 39.896 130.096 40.4 129.36 40.736C128.64 41.072 127.784 41.24 126.792 41.24ZM126.816 38.648C127.072 38.648 127.272 38.584 127.416 38.456C127.56 38.312 127.656 38.12 127.704 37.88C127.768 37.624 127.8 37.32 127.8 36.968V31.16C127.8 30.808 127.768 30.512 127.704 30.272C127.656 30.016 127.56 29.824 127.416 29.696C127.272 29.552 127.072 29.48 126.816 29.48C126.56 29.48 126.36 29.552 126.216 29.696C126.072 29.824 125.968 30.016 125.904 30.272C125.84 30.512 125.808 30.808 125.808 31.16V36.968C125.808 37.32 125.84 37.624 125.904 37.88C125.968 38.12 126.072 38.312 126.216 38.456C126.36 38.584 126.56 38.648 126.816 38.648ZM134.241 44.36L134.001 43.088C134.417 42.976 134.801 42.768 135.153 42.464C135.521 42.176 135.705 41.688 135.705 41H133.641V37.304H137.361V40.496C137.345 41.68 137.081 42.6 136.569 43.256C136.057 43.912 135.281 44.28 134.241 44.36ZM153.277 41V33.008C152.477 33.12 151.693 33.176 150.925 33.176C149.997 33.176 149.117 33 148.285 32.648C147.469 32.28 146.805 31.752 146.293 31.064C145.781 30.36 145.525 29.504 145.525 28.496V21.56H149.821V28.472C149.821 28.872 149.861 29.232 149.941 29.552C150.037 29.856 150.245 30.096 150.565 30.272C150.901 30.448 151.421 30.536 152.125 30.536C152.301 30.536 152.485 30.528 152.677 30.512C152.869 30.496 153.069 30.472 153.277 30.44V21.56H157.573V41H153.277ZM160.702 45.032V42.32C161.198 42.32 161.606 42.288 161.926 42.224C162.262 42.16 162.51 42.04 162.67 41.864C162.846 41.688 162.934 41.448 162.934 41.144C162.934 40.872 162.886 40.544 162.79 40.16C162.694 39.76 162.574 39.312 162.43 38.816L159.166 27.128H162.838L164.59 35.144L165.91 27.128H169.606L166.414 41.336C166.206 42.296 165.878 43.04 165.43 43.568C164.982 44.112 164.43 44.488 163.774 44.696C163.134 44.92 162.406 45.032 161.59 45.032H160.702ZM171.1 41V27.128H175.012V41H171.1ZM171.076 24.776V22.064H175.012V24.776H171.076ZM178.507 36.056L177.379 21.608H181.267L179.851 36.056H178.507ZM177.307 41V37.352H181.003V41H177.307ZM28.1805 73L28.5165 53.56H33.1245L35.2605 64.864L37.5645 53.56H42.0045L42.3405 73H39.2925L38.9325 60.064L36.6765 73H33.9645L31.5645 59.968L31.2765 73H28.1805ZM44.9349 73V59.128H48.0309V66.544L51.6549 59.128H54.7029V73H51.5349V65.656L48.0069 73H44.9349ZM67.3911 73.264C66.4311 73.264 65.6551 73.136 65.0631 72.88C64.4871 72.608 64.0391 72.248 63.7191 71.8C63.4151 71.336 63.2071 70.816 63.0951 70.24C62.9991 69.648 62.9511 69.032 62.9511 68.392H66.0471C66.0471 69.128 66.1591 69.68 66.3831 70.048C66.6231 70.4 66.9911 70.576 67.4871 70.576C67.8551 70.576 68.1351 70.496 68.3271 70.336C68.5191 70.176 68.6471 69.952 68.7111 69.664C68.7911 69.376 68.8311 69.056 68.8311 68.704C68.8311 68.24 68.7431 67.872 68.5671 67.6C68.4071 67.328 68.1351 67.136 67.7511 67.024C67.3831 66.896 66.8791 66.832 66.2391 66.832V64.816C67.1991 64.816 67.8231 64.688 68.1111 64.432C68.4151 64.176 68.5671 63.728 68.5671 63.088C68.5671 62.624 68.4711 62.256 68.2791 61.984C68.1031 61.712 67.7831 61.576 67.3191 61.576C66.8231 61.576 66.4711 61.72 66.2631 62.008C66.0711 62.28 65.9751 62.768 65.9751 63.472H62.9031C62.9031 62.64 63.0311 61.88 63.2871 61.192C63.5431 60.488 63.9991 59.928 64.6551 59.512C65.3271 59.096 66.2791 58.888 67.5111 58.888C68.5991 58.888 69.4791 59.064 70.1511 59.416C70.8391 59.752 71.3351 60.216 71.6391 60.808C71.9591 61.384 72.1191 62.04 72.1191 62.776C72.1191 63.384 72.0231 63.896 71.8311 64.312C71.6391 64.728 71.3911 65.056 71.0871 65.296C70.7831 65.52 70.4471 65.688 70.0791 65.8C70.4791 65.944 70.8311 66.136 71.1351 66.376C71.4551 66.616 71.7111 66.96 71.9031 67.408C72.0951 67.84 72.1911 68.432 72.1911 69.184C72.1911 70.352 71.8151 71.328 71.0631 72.112C70.3111 72.88 69.0871 73.264 67.3911 73.264ZM74.0678 77.56V59.128H77.9798V60.136C78.4438 59.72 78.9398 59.408 79.4678 59.2C79.9958 58.992 80.4998 58.888 80.9798 58.888C81.5078 58.888 81.9558 58.992 82.3238 59.2C82.7078 59.408 83.0198 59.704 83.2598 60.088C83.4998 60.456 83.6758 60.888 83.7878 61.384C83.8998 61.88 83.9558 62.408 83.9558 62.968V68.944C83.9558 69.808 83.8358 70.56 83.5958 71.2C83.3718 71.84 83.0358 72.344 82.5878 72.712C82.1398 73.064 81.5878 73.24 80.9318 73.24C80.4358 73.24 79.9318 73.128 79.4198 72.904C78.9238 72.664 78.4438 72.344 77.9798 71.944V77.56H74.0678ZM79.0117 70.72C79.2678 70.72 79.4678 70.648 79.6118 70.504C79.7558 70.36 79.8598 70.176 79.9238 69.952C80.0038 69.712 80.0438 69.448 80.0438 69.16V62.68C80.0438 62.408 80.0118 62.168 79.9478 61.96C79.8838 61.736 79.7798 61.56 79.6358 61.432C79.4918 61.304 79.3078 61.24 79.0838 61.24C78.8758 61.24 78.6758 61.288 78.4838 61.384C78.3078 61.464 78.1398 61.576 77.9798 61.72V70.36C78.1558 70.472 78.3238 70.56 78.4838 70.624C78.6598 70.688 78.8358 70.72 79.0117 70.72ZM90.7449 73.24C89.7529 73.24 88.8889 73.072 88.1529 72.736C87.4329 72.4 86.8729 71.896 86.4729 71.224C86.0889 70.552 85.8969 69.712 85.8969 68.704V63.424C85.8969 62.416 86.0889 61.576 86.4729 60.904C86.8729 60.232 87.4329 59.728 88.1529 59.392C88.8889 59.056 89.7529 58.888 90.7449 58.888C91.7369 58.888 92.5929 59.056 93.3129 59.392C94.0489 59.728 94.6169 60.232 95.0169 60.904C95.4169 61.576 95.6169 62.416 95.6169 63.424V68.704C95.6169 69.712 95.4169 70.552 95.0169 71.224C94.6169 71.896 94.0489 72.4 93.3129 72.736C92.5929 73.072 91.7369 73.24 90.7449 73.24ZM90.7689 70.648C91.0249 70.648 91.2249 70.584 91.3689 70.456C91.5129 70.312 91.6089 70.12 91.6569 69.88C91.7209 69.624 91.7529 69.32 91.7529 68.968V63.16C91.7529 62.808 91.7209 62.512 91.6569 62.272C91.6089 62.016 91.5129 61.824 91.3689 61.696C91.2249 61.552 91.0249 61.48 90.7689 61.48C90.5129 61.48 90.3129 61.552 90.1689 61.696C90.0249 61.824 89.9209 62.016 89.8569 62.272C89.7929 62.512 89.7609 62.808 89.7609 63.16V68.968C89.7609 69.32 89.7929 69.624 89.8569 69.88C89.9209 70.12 90.0249 70.312 90.1689 70.456C90.3129 70.584 90.5129 70.648 90.7689 70.648ZM102.323 73.24C101.043 73.208 100.059 72.976 99.3705 72.544C98.6985 72.112 98.2425 71.488 98.0025 70.672C97.7625 69.84 97.6425 68.848 97.6425 67.696V59.944C97.6425 58.664 97.7705 57.64 98.0265 56.872C98.2985 56.104 98.6665 55.512 99.1305 55.096C99.6105 54.68 100.163 54.36 100.787 54.136C101.411 53.912 102.035 53.736 102.659 53.608C103.299 53.48 103.915 53.336 104.507 53.176C105.115 53 105.675 52.744 106.187 52.408L106.331 55.552C105.803 55.824 105.243 56.024 104.651 56.152C104.075 56.264 103.507 56.368 102.947 56.464C102.403 56.544 101.899 56.68 101.435 56.872C101.019 57.032 100.723 57.336 100.547 57.784C100.371 58.216 100.283 58.816 100.283 59.584V60.64C100.491 60.4 100.747 60.2 101.051 60.04C101.371 59.88 101.739 59.76 102.155 59.68C102.587 59.6 103.059 59.56 103.571 59.56C104.419 59.56 105.107 59.72 105.635 60.04C106.163 60.36 106.547 60.888 106.787 61.624C107.043 62.36 107.171 63.36 107.171 64.624V68.008C107.171 69.432 106.963 70.528 106.547 71.296C106.147 72.048 105.579 72.56 104.843 72.832C104.123 73.104 103.283 73.24 102.323 73.24ZM102.491 70.72C102.795 70.72 103.011 70.64 103.139 70.48C103.283 70.32 103.379 70.024 103.427 69.592C103.475 69.144 103.499 68.488 103.499 67.624V63.928C103.499 63.4 103.475 62.984 103.427 62.68C103.379 62.36 103.283 62.136 103.139 62.008C102.995 61.88 102.787 61.816 102.515 61.816C102.339 61.816 102.171 61.872 102.011 61.984C101.867 62.08 101.747 62.248 101.651 62.488C101.555 62.712 101.475 63.032 101.411 63.448V67.6C101.411 68.448 101.435 69.096 101.483 69.544C101.531 69.992 101.635 70.304 101.795 70.48C101.955 70.64 102.187 70.72 102.491 70.72ZM109.388 73V59.128H112.484V66.544L116.108 59.128H119.156V73H115.988V65.656L112.46 73H109.388ZM120.664 73.144V70.384C121.176 70.384 121.592 70.304 121.912 70.144C122.248 69.984 122.512 69.712 122.704 69.328C122.912 68.928 123.072 68.392 123.184 67.72C123.296 67.032 123.392 66.16 123.472 65.104L123.928 59.128H132.736V73H128.824V61.768H127.24L126.904 65.872C126.792 67.312 126.632 68.504 126.424 69.448C126.216 70.392 125.912 71.136 125.512 71.68C125.112 72.208 124.576 72.584 123.904 72.808C123.232 73.032 122.376 73.144 121.336 73.144H120.664ZM135.193 73V59.128H138.289V66.544L141.913 59.128H144.961V73H141.793V65.656L138.265 73H135.193ZM162.617 76.768L162.353 73H153.497V59.128H157.433V70.6H159.521V59.128H163.433V70.6H165.425V76.768H162.617ZM171.674 73.24C170.666 73.24 169.802 73.064 169.082 72.712C168.362 72.344 167.81 71.816 167.426 71.128C167.042 70.424 166.85 69.584 166.85 68.608V63.52C166.85 62.528 167.042 61.688 167.426 61C167.81 60.312 168.362 59.792 169.082 59.44C169.818 59.072 170.682 58.888 171.674 58.888C172.698 58.888 173.546 59.064 174.218 59.416C174.906 59.768 175.418 60.288 175.754 60.976C176.106 61.664 176.282 62.512 176.282 63.52V66.304H170.714V68.968C170.714 69.32 170.754 69.608 170.834 69.832C170.914 70.056 171.026 70.216 171.17 70.312C171.314 70.408 171.482 70.456 171.674 70.456C171.866 70.456 172.034 70.416 172.178 70.336C172.338 70.24 172.458 70.096 172.538 69.904C172.634 69.712 172.682 69.448 172.682 69.112V67.648H176.282V68.992C176.282 70.4 175.874 71.464 175.058 72.184C174.242 72.888 173.114 73.24 171.674 73.24ZM170.714 64.48H172.682V63.088C172.682 62.72 172.634 62.432 172.538 62.224C172.458 62.016 172.338 61.872 172.178 61.792C172.034 61.712 171.858 61.672 171.65 61.672C171.458 61.672 171.29 61.72 171.146 61.816C171.018 61.912 170.914 62.08 170.834 62.32C170.754 62.544 170.714 62.872 170.714 63.304V64.48ZM69.6263 105V91.128H74.5463C75.9383 91.128 76.9863 91.28 77.6903 91.584C78.3943 91.872 78.8663 92.272 79.1063 92.784C79.3463 93.296 79.4663 93.896 79.4663 94.584C79.4663 95.496 79.2663 96.168 78.8663 96.6C78.4823 97.016 77.9703 97.312 77.3303 97.488C78.0023 97.648 78.5143 97.888 78.8663 98.208C79.2183 98.528 79.4583 98.92 79.5863 99.384C79.7303 99.848 79.8023 100.384 79.8023 100.992C79.8023 101.888 79.6343 102.64 79.2983 103.248C78.9623 103.84 78.3943 104.28 77.5943 104.568C76.7943 104.856 75.7063 105 74.3303 105H69.6263ZM73.5143 102.84H74.1623C74.5143 102.84 74.8263 102.808 75.0983 102.744C75.3703 102.68 75.5863 102.512 75.7463 102.24C75.9223 101.952 76.0103 101.496 76.0103 100.872C76.0103 100.168 75.9303 99.664 75.7703 99.36C75.6263 99.056 75.4183 98.872 75.1463 98.808C74.8743 98.744 74.5543 98.712 74.1863 98.712H73.5143V102.84ZM73.5143 96.6H74.4983C74.9623 96.6 75.2823 96.456 75.4583 96.168C75.6343 95.864 75.7223 95.448 75.7223 94.92C75.7223 94.408 75.6263 93.984 75.4343 93.648C75.2583 93.312 74.8503 93.144 74.2103 93.144H73.5143V96.6ZM81.2875 108.768V102.624C81.8155 102.384 82.2715 102.072 82.6555 101.688C83.0395 101.288 83.3675 100.808 83.6395 100.248C83.9115 99.672 84.1275 99.008 84.2875 98.256C84.4475 97.488 84.5595 96.616 84.6235 95.64L85.0315 91.128H92.6635V102.6H94.6795V108.768H91.8715L91.6075 105H84.3595L84.1435 108.768H81.2875ZM85.5115 102.6H89.0875V93.456H87.9355L87.6475 96.576C87.5995 97.456 87.5115 98.224 87.3835 98.88C87.2555 99.52 87.0955 100.08 86.9035 100.56C86.7275 101.024 86.5195 101.424 86.2795 101.76C86.0395 102.08 85.7835 102.36 85.5115 102.6ZM96.3217 105V91.128H101.242C102.634 91.128 103.682 91.28 104.386 91.584C105.09 91.872 105.562 92.272 105.802 92.784C106.042 93.296 106.162 93.896 106.162 94.584C106.162 95.496 105.962 96.168 105.562 96.6C105.178 97.016 104.666 97.312 104.026 97.488C104.698 97.648 105.21 97.888 105.562 98.208C105.914 98.528 106.154 98.92 106.282 99.384C106.426 99.848 106.498 100.384 106.498 100.992C106.498 101.888 106.33 102.64 105.994 103.248C105.658 103.84 105.09 104.28 104.29 104.568C103.49 104.856 102.402 105 101.026 105H96.3217ZM100.21 102.84H100.858C101.21 102.84 101.522 102.808 101.794 102.744C102.066 102.68 102.282 102.512 102.442 102.24C102.618 101.952 102.706 101.496 102.706 100.872C102.706 100.168 102.626 99.664 102.466 99.36C102.322 99.056 102.114 98.872 101.842 98.808C101.57 98.744 101.25 98.712 100.882 98.712H100.21V102.84ZM100.21 96.6H101.194C101.658 96.6 101.978 96.456 102.154 96.168C102.33 95.864 102.418 95.448 102.418 94.92C102.418 94.408 102.322 93.984 102.13 93.648C101.954 93.312 101.546 93.144 100.906 93.144H100.21V96.6ZM112.999 105.24C112.007 105.24 111.143 105.072 110.407 104.736C109.687 104.4 109.127 103.896 108.727 103.224C108.343 102.552 108.151 101.712 108.151 100.704V95.424C108.151 94.416 108.343 93.576 108.727 92.904C109.127 92.232 109.687 91.728 110.407 91.392C111.143 91.056 112.007 90.888 112.999 90.888C113.991 90.888 114.847 91.056 115.567 91.392C116.303 91.728 116.871 92.232 117.271 92.904C117.671 93.576 117.871 94.416 117.871 95.424V100.704C117.871 101.712 117.671 102.552 117.271 103.224C116.871 103.896 116.303 104.4 115.567 104.736C114.847 105.072 113.991 105.24 112.999 105.24ZM113.023 102.648C113.279 102.648 113.479 102.584 113.623 102.456C113.767 102.312 113.863 102.12 113.911 101.88C113.975 101.624 114.007 101.32 114.007 100.968V95.16C114.007 94.808 113.975 94.512 113.911 94.272C113.863 94.016 113.767 93.824 113.623 93.696C113.479 93.552 113.279 93.48 113.023 93.48C112.767 93.48 112.567 93.552 112.423 93.696C112.279 93.824 112.175 94.016 112.111 94.272C112.047 94.512 112.015 94.808 112.015 95.16V100.968C112.015 101.32 112.047 101.624 112.111 101.88C112.175 102.12 112.279 102.312 112.423 102.456C112.567 102.584 112.767 102.648 113.023 102.648ZM119.08 105L122.032 97.392L119.224 91.128H123.16L124.648 94.464L125.968 91.128H128.968L126.232 97.968L129.376 105H125.392L123.712 101.184L122.32 105H119.08ZM131.738 100.056L130.61 85.608H134.498L133.082 100.056H131.738ZM130.538 105V101.352H134.234V105H130.538Z" fill="black"/>
</svg>
