<svg width="191" height="169" viewBox="0 0 191 169" fill="none" xmlns="http://www.w3.org/2000/svg">
<path d="M4 4H187V119.92H95.5L43.2143 165V119.92H4V4Z" fill="white" stroke="black" stroke-width="6.2" stroke-linecap="round" stroke-linejoin="round"/>
<path d="M18.9688 52L22.7368 41.536L19.1368 32.56H23.1928L25.3288 37.816L27.0568 32.56H30.6328L27.2248 42.664L31.0168 52H26.9848L24.6088 46.192L22.5208 52H18.9688ZM34.0563 52V40.768H31.5363V38.128H40.4643V40.768H37.9443V52H34.0563ZM46.4754 52.24C45.4834 52.24 44.6194 52.072 43.8834 51.736C43.1634 51.4 42.6034 50.896 42.2034 50.224C41.8194 49.552 41.6274 48.712 41.6274 47.704V42.424C41.6274 41.416 41.8194 40.576 42.2034 39.904C42.6034 39.232 43.1634 38.728 43.8834 38.392C44.6194 38.056 45.4834 37.888 46.4754 37.888C47.4674 37.888 48.3234 38.056 49.0434 38.392C49.7794 38.728 50.3474 39.232 50.7474 39.904C51.1474 40.576 51.3474 41.416 51.3474 42.424V47.704C51.3474 48.712 51.1474 49.552 50.7474 50.224C50.3474 50.896 49.7794 51.4 49.0434 51.736C48.3234 52.072 47.4674 52.24 46.4754 52.24ZM46.4994 49.648C46.7554 49.648 46.9554 49.584 47.0994 49.456C47.2434 49.312 47.3394 49.12 47.3874 48.88C47.4514 48.624 47.4834 48.32 47.4834 47.968V42.16C47.4834 41.808 47.4514 41.512 47.3874 41.272C47.3394 41.016 47.2434 40.824 47.0994 40.696C46.9554 40.552 46.7554 40.48 46.4994 40.48C46.2434 40.48 46.0434 40.552 45.8994 40.696C45.7554 40.824 45.6514 41.016 45.5874 41.272C45.5234 41.512 45.4914 41.808 45.4914 42.16V47.968C45.4914 48.32 45.5234 48.624 45.5874 48.88C45.6514 49.12 45.7554 49.312 45.8994 49.456C46.0434 49.584 46.2434 49.648 46.4994 49.648ZM61.3376 52V40.768H58.8176V38.128H67.7456V40.768H65.2256V52H61.3376ZM69.7682 56.032V53.32C70.2642 53.32 70.6722 53.288 70.9922 53.224C71.3282 53.16 71.5762 53.04 71.7362 52.864C71.9122 52.688 72.0002 52.448 72.0002 52.144C72.0002 51.872 71.9522 51.544 71.8562 51.16C71.7602 50.76 71.6402 50.312 71.4962 49.816L68.2322 38.128H71.9042L73.6562 46.144L74.9762 38.128H78.6722L75.4802 52.336C75.2722 53.296 74.9442 54.04 74.4962 54.568C74.0482 55.112 73.4962 55.488 72.8402 55.696C72.2002 55.92 71.4722 56.032 70.6562 56.032H69.7682ZM81.822 52V40.768H79.302V38.128H88.23V40.768H85.71V52H81.822ZM100.545 52.24C99.2652 52.208 98.2812 51.976 97.5932 51.544C96.9212 51.112 96.4652 50.488 96.2252 49.672C95.9852 48.84 95.8652 47.848 95.8652 46.696V38.944C95.8652 37.664 95.9932 36.64 96.2492 35.872C96.5212 35.104 96.8892 34.512 97.3532 34.096C97.8332 33.68 98.3852 33.36 99.0092 33.136C99.6332 32.912 100.257 32.736 100.881 32.608C101.521 32.48 102.137 32.336 102.729 32.176C103.337 32 103.897 31.744 104.409 31.408L104.553 34.552C104.025 34.824 103.465 35.024 102.873 35.152C102.297 35.264 101.729 35.368 101.169 35.464C100.625 35.544 100.121 35.68 99.6572 35.872C99.2412 36.032 98.9452 36.336 98.7692 36.784C98.5932 37.216 98.5052 37.816 98.5052 38.584V39.64C98.7132 39.4 98.9692 39.2 99.2732 39.04C99.5932 38.88 99.9612 38.76 100.377 38.68C100.809 38.6 101.281 38.56 101.793 38.56C102.641 38.56 103.329 38.72 103.857 39.04C104.385 39.36 104.769 39.888 105.009 40.624C105.265 41.36 105.393 42.36 105.393 43.624V47.008C105.393 48.432 105.185 49.528 104.769 50.296C104.369 51.048 103.801 51.56 103.065 51.832C102.345 52.104 101.505 52.24 100.545 52.24ZM100.713 49.72C101.017 49.72 101.233 49.64 101.361 49.48C101.505 49.32 101.601 49.024 101.649 48.592C101.697 48.144 101.721 47.488 101.721 46.624V42.928C101.721 42.4 101.697 41.984 101.649 41.68C101.601 41.36 101.505 41.136 101.361 41.008C101.217 40.88 101.009 40.816 100.737 40.816C100.561 40.816 100.393 40.872 100.233 40.984C100.089 41.08 99.9692 41.248 99.8732 41.488C99.7772 41.712 99.6972 42.032 99.6332 42.448V46.6C99.6332 47.448 99.6572 48.096 99.7052 48.544C99.7532 48.992 99.8572 49.304 100.017 49.48C100.177 49.64 100.409 49.72 100.713 49.72ZM110.467 52.24C109.763 52.24 109.171 52.072 108.691 51.736C108.211 51.4 107.851 50.976 107.611 50.464C107.371 49.936 107.251 49.4 107.251 48.856C107.251 47.992 107.419 47.264 107.755 46.672C108.107 46.08 108.563 45.584 109.123 45.184C109.683 44.784 110.299 44.448 110.971 44.176C111.643 43.888 112.307 43.632 112.963 43.408V42.016C112.963 41.776 112.939 41.568 112.891 41.392C112.843 41.2 112.763 41.056 112.651 40.96C112.539 40.848 112.371 40.792 112.147 40.792C111.923 40.792 111.747 40.84 111.619 40.936C111.507 41.032 111.427 41.168 111.379 41.344C111.331 41.504 111.299 41.688 111.283 41.896L111.187 42.904L107.539 42.76C107.619 41.096 108.059 39.872 108.859 39.088C109.675 38.288 110.891 37.888 112.507 37.888C113.915 37.888 114.963 38.28 115.651 39.064C116.355 39.832 116.707 40.832 116.707 42.064V48.544C116.707 49.12 116.715 49.624 116.731 50.056C116.763 50.488 116.795 50.864 116.827 51.184C116.875 51.504 116.915 51.776 116.947 52H113.443C113.395 51.632 113.339 51.232 113.275 50.8C113.211 50.368 113.163 50.112 113.131 50.032C112.971 50.608 112.667 51.12 112.219 51.568C111.787 52.016 111.203 52.24 110.467 52.24ZM111.859 49.6C112.019 49.6 112.163 49.568 112.291 49.504C112.435 49.44 112.563 49.352 112.675 49.24C112.787 49.128 112.883 49.016 112.963 48.904V45.112C112.643 45.304 112.347 45.504 112.075 45.712C111.803 45.904 111.571 46.12 111.379 46.36C111.187 46.6 111.035 46.864 110.923 47.152C110.827 47.424 110.779 47.736 110.779 48.088C110.779 48.552 110.875 48.92 111.067 49.192C111.259 49.464 111.523 49.6 111.859 49.6ZM120.705 52V40.768H118.185V38.128H127.113V40.768H124.593V52H120.705ZM128.751 52V38.128H132.663V43.696C132.679 43.696 132.687 43.696 132.687 43.696C132.703 43.696 132.719 43.696 132.735 43.696C132.751 43.696 132.767 43.696 132.783 43.696C133.743 43.696 134.591 43.76 135.327 43.888C136.063 44.016 136.671 44.24 137.151 44.56C137.647 44.864 138.023 45.28 138.279 45.808C138.535 46.32 138.663 46.976 138.663 47.776C138.663 48.528 138.551 49.176 138.327 49.72C138.119 50.248 137.775 50.68 137.295 51.016C136.831 51.352 136.223 51.6 135.471 51.76C134.735 51.92 133.847 52 132.807 52H128.751ZM132.663 49.768H132.735C133.327 49.768 133.791 49.712 134.127 49.6C134.479 49.472 134.727 49.272 134.871 49C135.031 48.712 135.111 48.336 135.111 47.872C135.111 47.376 135.031 47 134.871 46.744C134.727 46.472 134.479 46.28 134.127 46.168C133.791 46.056 133.343 46 132.783 46C132.767 46 132.743 46 132.711 46C132.695 46 132.679 46 132.663 46V49.768ZM140.564 52V38.128H144.476V43.6H145.052L147.164 38.128H151.364L148.628 44.68L151.436 52H147.308L145.052 45.856H144.476V52H140.564ZM157.382 52.24C156.39 52.24 155.526 52.072 154.79 51.736C154.07 51.4 153.51 50.896 153.11 50.224C152.726 49.552 152.534 48.712 152.534 47.704V42.424C152.534 41.416 152.726 40.576 153.11 39.904C153.51 39.232 154.07 38.728 154.79 38.392C155.526 38.056 156.39 37.888 157.382 37.888C158.374 37.888 159.23 38.056 159.95 38.392C160.686 38.728 161.254 39.232 161.654 39.904C162.054 40.576 162.254 41.416 162.254 42.424V47.704C162.254 48.712 162.054 49.552 161.654 50.224C161.254 50.896 160.686 51.4 159.95 51.736C159.23 52.072 158.374 52.24 157.382 52.24ZM157.406 49.648C157.662 49.648 157.862 49.584 158.006 49.456C158.15 49.312 158.246 49.12 158.294 48.88C158.358 48.624 158.39 48.32 158.39 47.968V42.16C158.39 41.808 158.358 41.512 158.294 41.272C158.246 41.016 158.15 40.824 158.006 40.696C157.862 40.552 157.662 40.48 157.406 40.48C157.15 40.48 156.95 40.552 156.806 40.696C156.662 40.824 156.558 41.016 156.494 41.272C156.43 41.512 156.398 41.808 156.398 42.16V47.968C156.398 48.32 156.43 48.624 156.494 48.88C156.558 49.12 156.662 49.312 156.806 49.456C156.95 49.584 157.15 49.648 157.406 49.648ZM36.7826 84V70.128H46.6226V84H42.7106V72.792H40.6946V84H36.7826ZM53.5764 84.24C52.5684 84.24 51.7044 84.064 50.9844 83.712C50.2644 83.344 49.7124 82.816 49.3284 82.128C48.9444 81.424 48.7524 80.584 48.7524 79.608V74.52C48.7524 73.528 48.9444 72.688 49.3284 72C49.7124 71.312 50.2644 70.792 50.9844 70.44C51.7204 70.072 52.5844 69.888 53.5764 69.888C54.6004 69.888 55.4484 70.064 56.1204 70.416C56.8084 70.768 57.3204 71.288 57.6564 71.976C58.0084 72.664 58.1844 73.512 58.1844 74.52V77.304H52.6164V79.968C52.6164 80.32 52.6564 80.608 52.7364 80.832C52.8164 81.056 52.9284 81.216 53.0724 81.312C53.2164 81.408 53.3844 81.456 53.5764 81.456C53.7684 81.456 53.9364 81.416 54.0804 81.336C54.2404 81.24 54.3604 81.096 54.4404 80.904C54.5364 80.712 54.5844 80.448 54.5844 80.112V78.648H58.1844V79.992C58.1844 81.4 57.7764 82.464 56.9604 83.184C56.1444 83.888 55.0164 84.24 53.5764 84.24ZM52.6164 75.48H54.5844V74.088C54.5844 73.72 54.5364 73.432 54.4404 73.224C54.3604 73.016 54.2404 72.872 54.0804 72.792C53.9364 72.712 53.7604 72.672 53.5524 72.672C53.3604 72.672 53.1924 72.72 53.0484 72.816C52.9204 72.912 52.8164 73.08 52.7364 73.32C52.6564 73.544 52.6164 73.872 52.6164 74.304V75.48ZM60.3138 88.56V70.128H64.2258V71.136C64.6898 70.72 65.1858 70.408 65.7138 70.2C66.2418 69.992 66.7458 69.888 67.2258 69.888C67.7538 69.888 68.2018 69.992 68.5698 70.2C68.9538 70.408 69.2658 70.704 69.5058 71.088C69.7458 71.456 69.9218 71.888 70.0338 72.384C70.1458 72.88 70.2018 73.408 70.2018 73.968V79.944C70.2018 80.808 70.0818 81.56 69.8418 82.2C69.6178 82.84 69.2818 83.344 68.8338 83.712C68.3858 84.064 67.8338 84.24 67.1778 84.24C66.6818 84.24 66.1778 84.128 65.6658 83.904C65.1698 83.664 64.6898 83.344 64.2258 82.944V88.56H60.3138ZM65.2578 81.72C65.5138 81.72 65.7138 81.648 65.8578 81.504C66.0018 81.36 66.1058 81.176 66.1698 80.952C66.2498 80.712 66.2898 80.448 66.2898 80.16V73.68C66.2898 73.408 66.2578 73.168 66.1938 72.96C66.1298 72.736 66.0258 72.56 65.8818 72.432C65.7378 72.304 65.5538 72.24 65.3298 72.24C65.1218 72.24 64.9218 72.288 64.7298 72.384C64.5538 72.464 64.3858 72.576 64.2258 72.72V81.36C64.4018 81.472 64.5698 81.56 64.7298 81.624C64.9058 81.688 65.0818 81.72 65.2578 81.72ZM76.967 84.24C75.959 84.24 75.095 84.064 74.375 83.712C73.655 83.344 73.103 82.816 72.719 82.128C72.335 81.424 72.143 80.584 72.143 79.608V74.52C72.143 73.528 72.335 72.688 72.719 72C73.103 71.312 73.655 70.792 74.375 70.44C75.111 70.072 75.975 69.888 76.967 69.888C77.991 69.888 78.839 70.064 79.511 70.416C80.199 70.768 80.711 71.288 81.047 71.976C81.399 72.664 81.575 73.512 81.575 74.52V77.304H76.007V79.968C76.007 80.32 76.047 80.608 76.127 80.832C76.207 81.056 76.319 81.216 76.463 81.312C76.607 81.408 76.775 81.456 76.967 81.456C77.159 81.456 77.327 81.416 77.471 81.336C77.631 81.24 77.751 81.096 77.831 80.904C77.927 80.712 77.975 80.448 77.975 80.112V78.648H81.575V79.992C81.575 81.4 81.167 82.464 80.351 83.184C79.535 83.888 78.407 84.24 76.967 84.24ZM76.007 75.48H77.975V74.088C77.975 73.72 77.927 73.432 77.831 73.224C77.751 73.016 77.631 72.872 77.471 72.792C77.327 72.712 77.151 72.672 76.943 72.672C76.751 72.672 76.583 72.72 76.439 72.816C76.311 72.912 76.207 73.08 76.127 73.32C76.047 73.544 76.007 73.872 76.007 74.304V75.48ZM83.6805 84L83.7285 70.128H86.6085L89.4405 76.776L92.2965 70.128H95.1765L95.2245 84H92.1765V76.704L90.0405 81.84H88.8885L86.7285 76.68V84H83.6805ZM102.233 84.24C101.241 84.24 100.377 84.072 99.6412 83.736C98.9212 83.4 98.3612 82.896 97.9612 82.224C97.5772 81.552 97.3852 80.712 97.3852 79.704V74.424C97.3852 73.416 97.5772 72.576 97.9612 71.904C98.3612 71.232 98.9212 70.728 99.6412 70.392C100.377 70.056 101.241 69.888 102.233 69.888C103.225 69.888 104.081 70.056 104.801 70.392C105.537 70.728 106.105 71.232 106.505 71.904C106.905 72.576 107.105 73.416 107.105 74.424V79.704C107.105 80.712 106.905 81.552 106.505 82.224C106.105 82.896 105.537 83.4 104.801 83.736C104.081 84.072 103.225 84.24 102.233 84.24ZM102.257 81.648C102.513 81.648 102.713 81.584 102.857 81.456C103.001 81.312 103.097 81.12 103.145 80.88C103.209 80.624 103.241 80.32 103.241 79.968V74.16C103.241 73.808 103.209 73.512 103.145 73.272C103.097 73.016 103.001 72.824 102.857 72.696C102.713 72.552 102.513 72.48 102.257 72.48C102.001 72.48 101.801 72.552 101.657 72.696C101.513 72.824 101.409 73.016 101.345 73.272C101.281 73.512 101.249 73.808 101.249 74.16V79.968C101.249 80.32 101.281 80.624 101.345 80.88C101.409 81.12 101.513 81.312 101.657 81.456C101.801 81.584 102.001 81.648 102.257 81.648ZM109.275 84V70.128H116.187V72.768H113.187V84H109.275ZM117.712 84V70.128H120.808V77.544L124.432 70.128H127.48V84H124.312V76.656L120.784 84H117.712ZM137.912 78.888V75.792C138.632 75.232 139.28 74.608 139.856 73.92C140.432 73.232 140.888 72.504 141.224 71.736C141.56 70.952 141.728 70.144 141.728 69.312C141.728 68.72 141.616 68.296 141.392 68.04C141.184 67.768 140.872 67.632 140.456 67.632C140.072 67.632 139.768 67.744 139.544 67.968C139.336 68.192 139.232 68.504 139.232 68.904C139.232 69.16 139.256 69.392 139.304 69.6C139.368 69.792 139.44 70 139.52 70.224L135.992 71.04C135.864 70.656 135.76 70.288 135.68 69.936C135.616 69.568 135.584 69.184 135.584 68.784C135.584 67.376 136.008 66.28 136.856 65.496C137.72 64.696 138.952 64.296 140.552 64.296C142.168 64.296 143.408 64.72 144.272 65.568C145.152 66.416 145.592 67.624 145.592 69.192C145.592 70.152 145.432 71.064 145.112 71.928C144.792 72.792 144.32 73.608 143.696 74.376C143.088 75.144 142.344 75.864 141.464 76.536V78.888H137.912ZM137.792 84V80.28H141.608V84H137.792Z" fill="black"/>
</svg>
