<svg width="281" height="218" viewBox="0 0 281 218" fill="none" xmlns="http://www.w3.org/2000/svg">
<path d="M277 4H4V155.2H140.5L218.5 214V155.2H277V4Z" fill="white" stroke="black" stroke-width="6.20088" stroke-linecap="round" stroke-linejoin="round"/>
<path d="M44 42.0002L41.648 22.5602H45.296L46.448 33.8882L47.912 22.5842H50.768L52.304 33.8162L53.48 22.5602H57.08L54.752 42.0002H51.008L49.352 30.2642L47.792 42.0002H44ZM57.7228 42.0002L61.3948 22.5602H66.2908L69.9148 42.0002H65.9548L65.3068 37.8962H62.4508L61.7788 42.0002H57.7228ZM62.8348 35.3282H64.8988L63.8668 27.7442L62.8348 35.3282ZM77.1408 42.2882C75.6848 42.2882 74.5328 42.0322 73.6848 41.5202C72.8368 41.0082 72.2288 40.2722 71.8608 39.3122C71.4928 38.3522 71.3088 37.2082 71.3088 35.8802V28.6562C71.3088 27.3122 71.4928 26.1682 71.8608 25.2242C72.2288 24.2802 72.8368 23.5602 73.6848 23.0642C74.5328 22.5522 75.6848 22.2962 77.1408 22.2962C78.6128 22.2962 79.7728 22.5522 80.6208 23.0642C81.4848 23.5602 82.1008 24.2802 82.4688 25.2242C82.8368 26.1682 83.0208 27.3122 83.0208 28.6562V35.8802C83.0208 37.2082 82.8368 38.3522 82.4688 39.3122C82.1008 40.2722 81.4848 41.0082 80.6208 41.5202C79.7728 42.0322 78.6128 42.2882 77.1408 42.2882ZM77.1408 39.2402C77.5888 39.2402 77.9168 39.1282 78.1248 38.9042C78.3328 38.6802 78.4688 38.3922 78.5328 38.0402C78.5968 37.6882 78.6288 37.3282 78.6288 36.9602V27.6002C78.6288 27.2162 78.5968 26.8562 78.5328 26.5202C78.4688 26.1682 78.3328 25.8802 78.1248 25.6562C77.9168 25.4322 77.5888 25.3202 77.1408 25.3202C76.7248 25.3202 76.4128 25.4322 76.2048 25.6562C75.9968 25.8802 75.8608 26.1682 75.7968 26.5202C75.7328 26.8562 75.7008 27.2162 75.7008 27.6002V36.9602C75.7008 37.3282 75.7248 37.6882 75.7728 38.0402C75.8368 38.3922 75.9648 38.6802 76.1568 38.9042C76.3648 39.1282 76.6928 39.2402 77.1408 39.2402ZM91.2033 42.2882C89.7473 42.2882 88.5953 42.0322 87.7473 41.5202C86.8993 41.0082 86.2913 40.2722 85.9233 39.3122C85.5553 38.3522 85.3713 37.2082 85.3713 35.8802V28.6562C85.3713 27.3122 85.5553 26.1682 85.9233 25.2242C86.2913 24.2802 86.8993 23.5602 87.7473 23.0642C88.5953 22.5522 89.7473 22.2962 91.2033 22.2962C92.6753 22.2962 93.8353 22.5522 94.6833 23.0642C95.5473 23.5602 96.1633 24.2802 96.5313 25.2242C96.8993 26.1682 97.0833 27.3122 97.0833 28.6562V35.8802C97.0833 37.2082 96.8993 38.3522 96.5313 39.3122C96.1633 40.2722 95.5473 41.0082 94.6833 41.5202C93.8353 42.0322 92.6753 42.2882 91.2033 42.2882ZM91.2033 39.2402C91.6513 39.2402 91.9793 39.1282 92.1873 38.9042C92.3953 38.6802 92.5313 38.3922 92.5953 38.0402C92.6593 37.6882 92.6913 37.3282 92.6913 36.9602V27.6002C92.6913 27.2162 92.6593 26.8562 92.5953 26.5202C92.5313 26.1682 92.3953 25.8802 92.1873 25.6562C91.9793 25.4322 91.6513 25.3202 91.2033 25.3202C90.7873 25.3202 90.4753 25.4322 90.2673 25.6562C90.0593 25.8802 89.9233 26.1682 89.8593 26.5202C89.7953 26.8562 89.7633 27.2162 89.7633 27.6002V36.9602C89.7633 37.3282 89.7873 37.6882 89.8353 38.0402C89.8993 38.3922 90.0273 38.6802 90.2193 38.9042C90.4273 39.1282 90.7553 39.2402 91.2033 39.2402ZM105.266 42.2882C103.81 42.2882 102.658 42.0322 101.81 41.5202C100.962 41.0082 100.354 40.2722 99.9858 39.3122C99.6178 38.3522 99.4338 37.2082 99.4338 35.8802V28.6562C99.4338 27.3122 99.6178 26.1682 99.9858 25.2242C100.354 24.2802 100.962 23.5602 101.81 23.0642C102.658 22.5522 103.81 22.2962 105.266 22.2962C106.738 22.2962 107.898 22.5522 108.746 23.0642C109.61 23.5602 110.226 24.2802 110.594 25.2242C110.962 26.1682 111.146 27.3122 111.146 28.6562V35.8802C111.146 37.2082 110.962 38.3522 110.594 39.3122C110.226 40.2722 109.61 41.0082 108.746 41.5202C107.898 42.0322 106.738 42.2882 105.266 42.2882ZM105.266 39.2402C105.714 39.2402 106.042 39.1282 106.25 38.9042C106.458 38.6802 106.594 38.3922 106.658 38.0402C106.722 37.6882 106.754 37.3282 106.754 36.9602V27.6002C106.754 27.2162 106.722 26.8562 106.658 26.5202C106.594 26.1682 106.458 25.8802 106.25 25.6562C106.042 25.4322 105.714 25.3202 105.266 25.3202C104.85 25.3202 104.538 25.4322 104.33 25.6562C104.122 25.8802 103.986 26.1682 103.922 26.5202C103.858 26.8562 103.826 27.2162 103.826 27.6002V36.9602C103.826 37.3282 103.85 37.6882 103.898 38.0402C103.962 38.3922 104.09 38.6802 104.282 38.9042C104.49 39.1282 104.818 39.2402 105.266 39.2402ZM113.76 42.0002V22.5602H122.496V25.4882H118.056V30.3122H121.44V33.2882H118.056V39.0962H122.544V42.0002H113.76ZM124.495 42.0002V22.5602H133.231V25.4882H128.791V30.3122H132.175V33.2882H128.791V39.0962H133.279V42.0002H124.495ZM135.229 42.0002V22.5602H140.581C141.893 22.5602 143.029 22.7042 143.989 22.9922C144.949 23.2802 145.693 23.8002 146.221 24.5522C146.765 25.2882 147.037 26.3362 147.037 27.6962C147.037 28.4962 146.973 29.2082 146.845 29.8322C146.717 30.4562 146.477 31.0002 146.125 31.4642C145.789 31.9122 145.301 32.2882 144.661 32.5922L147.325 42.0002H142.885L140.749 33.2882H139.525V42.0002H135.229ZM139.525 30.8162H140.725C141.333 30.8162 141.805 30.7122 142.141 30.5042C142.477 30.2802 142.709 29.9682 142.837 29.5682C142.981 29.1522 143.053 28.6562 143.053 28.0802C143.053 27.2482 142.901 26.6002 142.597 26.1362C142.293 25.6722 141.733 25.4402 140.917 25.4402H139.525V30.8162ZM149.62 42.0002V22.5602H154.972C156.284 22.5602 157.42 22.7042 158.38 22.9922C159.34 23.2802 160.084 23.8002 160.612 24.5522C161.156 25.2882 161.428 26.3362 161.428 27.6962C161.428 28.4962 161.364 29.2082 161.236 29.8322C161.108 30.4562 160.868 31.0002 160.516 31.4642C160.18 31.9122 159.692 32.2882 159.052 32.5922L161.716 42.0002H157.276L155.14 33.2882H153.916V42.0002H149.62ZM153.916 30.8162H155.116C155.724 30.8162 156.196 30.7122 156.532 30.5042C156.868 30.2802 157.1 29.9682 157.228 29.5682C157.372 29.1522 157.444 28.6562 157.444 28.0802C157.444 27.2482 157.292 26.6002 156.988 26.1362C156.684 25.6722 156.124 25.4402 155.308 25.4402H153.916V30.8162ZM164.01 42.0002V22.5602H169.362C170.674 22.5602 171.81 22.7042 172.77 22.9922C173.73 23.2802 174.474 23.8002 175.002 24.5522C175.546 25.2882 175.818 26.3362 175.818 27.6962C175.818 28.4962 175.754 29.2082 175.626 29.8322C175.498 30.4562 175.258 31.0002 174.906 31.4642C174.57 31.9122 174.082 32.2882 173.442 32.5922L176.106 42.0002H171.666L169.53 33.2882H168.306V42.0002H164.01ZM168.306 30.8162H169.506C170.114 30.8162 170.586 30.7122 170.922 30.5042C171.258 30.2802 171.49 29.9682 171.618 29.5682C171.762 29.1522 171.834 28.6562 171.834 28.0802C171.834 27.2482 171.682 26.6002 171.378 26.1362C171.074 25.6722 170.514 25.4402 169.698 25.4402H168.306V30.8162ZM178.401 42.0002V22.5602H183.753C185.065 22.5602 186.201 22.7042 187.161 22.9922C188.121 23.2802 188.865 23.8002 189.393 24.5522C189.937 25.2882 190.209 26.3362 190.209 27.6962C190.209 28.4962 190.145 29.2082 190.017 29.8322C189.889 30.4562 189.649 31.0002 189.297 31.4642C188.961 31.9122 188.473 32.2882 187.833 32.5922L190.497 42.0002H186.057L183.921 33.2882H182.697V42.0002H178.401ZM182.697 30.8162H183.897C184.505 30.8162 184.977 30.7122 185.313 30.5042C185.649 30.2802 185.881 29.9682 186.009 29.5682C186.153 29.1522 186.225 28.6562 186.225 28.0802C186.225 27.2482 186.073 26.6002 185.769 26.1362C185.465 25.6722 184.905 25.4402 184.089 25.4402H182.697V30.8162ZM197.668 42.2882C196.324 42.2882 195.26 42.0082 194.476 41.4482C193.708 40.8882 193.156 40.1042 192.82 39.0962C192.5 38.0722 192.34 36.8962 192.34 35.5682V29.0402C192.34 27.6642 192.516 26.4722 192.868 25.4642C193.22 24.4562 193.82 23.6802 194.668 23.1362C195.532 22.5762 196.7 22.2962 198.172 22.2962C199.612 22.2962 200.74 22.5362 201.556 23.0162C202.388 23.4962 202.98 24.1602 203.332 25.0082C203.684 25.8562 203.86 26.8482 203.86 27.9842V29.2322H199.66V27.6482C199.66 27.2322 199.628 26.8482 199.564 26.4962C199.516 26.1442 199.388 25.8642 199.18 25.6562C198.988 25.4322 198.668 25.3202 198.22 25.3202C197.756 25.3202 197.42 25.4482 197.212 25.7042C197.004 25.9442 196.868 26.2482 196.804 26.6162C196.756 26.9842 196.732 27.3682 196.732 27.7682V36.7682C196.732 37.2002 196.772 37.6082 196.852 37.9922C196.948 38.3602 197.108 38.6642 197.332 38.9042C197.572 39.1282 197.908 39.2402 198.34 39.2402C198.788 39.2402 199.132 39.1202 199.372 38.8802C199.612 38.6402 199.78 38.3282 199.876 37.9442C199.972 37.5602 200.02 37.1522 200.02 36.7202V34.4402H198.268V31.9202H203.884V42.0002H201.052L200.812 40.3922C200.556 40.9362 200.18 41.3922 199.684 41.7602C199.188 42.1122 198.516 42.2882 197.668 42.2882ZM206.645 42.0002V22.5602H210.941V30.4322H213.941V22.5602H218.261V42.0002H213.941V33.5042H210.941V42.0002H206.645ZM221.293 42.0002V22.5602H225.589V30.4322H228.589V22.5602H232.909V42.0002H228.589V33.5042H225.589V42.0002H221.293ZM236.734 37.0562L235.606 22.6082H239.494L238.078 37.0562H236.734ZM235.534 42.0002V38.3522H239.23V42.0002H235.534ZM48.056 90.2882C46.568 90.2882 45.4 90.0482 44.552 89.5682C43.72 89.0722 43.136 88.3602 42.8 87.4322C42.464 86.4882 42.296 85.3362 42.296 83.9762V70.5602H46.544V84.6242C46.544 85.0242 46.576 85.4242 46.64 85.8242C46.704 86.2242 46.84 86.5522 47.048 86.8082C47.272 87.0642 47.608 87.1922 48.056 87.1922C48.52 87.1922 48.856 87.0642 49.064 86.8082C49.272 86.5522 49.4 86.2242 49.448 85.8242C49.512 85.4242 49.544 85.0242 49.544 84.6242V70.5602H53.816V83.9762C53.816 85.3362 53.64 86.4882 53.288 87.4322C52.952 88.3602 52.368 89.0722 51.536 89.5682C50.704 90.0482 49.544 90.2882 48.056 90.2882ZM62.1654 90.2882C60.6774 90.2882 59.5094 90.0482 58.6614 89.5682C57.8294 89.0722 57.2454 88.3602 56.9094 87.4322C56.5734 86.4882 56.4054 85.3362 56.4054 83.9762V70.5602H60.6534V84.6242C60.6534 85.0242 60.6854 85.4242 60.7494 85.8242C60.8134 86.2242 60.9494 86.5522 61.1574 86.8082C61.3814 87.0642 61.7174 87.1922 62.1654 87.1922C62.6294 87.1922 62.9654 87.0642 63.1734 86.8082C63.3814 86.5522 63.5094 86.2242 63.5574 85.8242C63.6214 85.4242 63.6534 85.0242 63.6534 84.6242V70.5602H67.9254V83.9762C67.9254 85.3362 67.7494 86.4882 67.3974 87.4322C67.0614 88.3602 66.4774 89.0722 65.6454 89.5682C64.8134 90.0482 63.6534 90.2882 62.1654 90.2882ZM76.2747 90.2882C74.7868 90.2882 73.6188 90.0482 72.7708 89.5682C71.9388 89.0722 71.3548 88.3602 71.0188 87.4322C70.6828 86.4882 70.5148 85.3362 70.5148 83.9762V70.5602H74.7628V84.6242C74.7628 85.0242 74.7948 85.4242 74.8588 85.8242C74.9228 86.2242 75.0588 86.5522 75.2668 86.8082C75.4908 87.0642 75.8268 87.1922 76.2747 87.1922C76.7388 87.1922 77.0748 87.0642 77.2828 86.8082C77.4908 86.5522 77.6188 86.2242 77.6668 85.8242C77.7308 85.4242 77.7628 85.0242 77.7628 84.6242V70.5602H82.0348V83.9762C82.0348 85.3362 81.8588 86.4882 81.5068 87.4322C81.1708 88.3602 80.5868 89.0722 79.7548 89.5682C78.9228 90.0482 77.7628 90.2882 76.2747 90.2882ZM90.3841 90.2882C88.8961 90.2882 87.7281 90.0482 86.8801 89.5682C86.0481 89.0722 85.4641 88.3602 85.1281 87.4322C84.7921 86.4882 84.6241 85.3362 84.6241 83.9762V70.5602H88.8721V84.6242C88.8721 85.0242 88.9041 85.4242 88.9681 85.8242C89.0321 86.2242 89.1681 86.5522 89.3761 86.8082C89.6001 87.0642 89.9361 87.1922 90.3841 87.1922C90.8481 87.1922 91.1841 87.0642 91.3921 86.8082C91.6001 86.5522 91.7281 86.2242 91.7761 85.8242C91.8401 85.4242 91.8721 85.0242 91.8721 84.6242V70.5602H96.1441V83.9762C96.1441 85.3362 95.9681 86.4882 95.6161 87.4322C95.2801 88.3602 94.6961 89.0722 93.8641 89.5682C93.0321 90.0482 91.8721 90.2882 90.3841 90.2882ZM104.493 90.2882C103.006 90.2882 101.838 90.0482 100.99 89.5682C100.158 89.0722 99.5735 88.3602 99.2375 87.4322C98.9015 86.4882 98.7335 85.3362 98.7335 83.9762V70.5602H102.982V84.6242C102.982 85.0242 103.014 85.4242 103.078 85.8242C103.142 86.2242 103.278 86.5522 103.486 86.8082C103.71 87.0642 104.046 87.1922 104.493 87.1922C104.958 87.1922 105.294 87.0642 105.502 86.8082C105.71 86.5522 105.838 86.2242 105.886 85.8242C105.95 85.4242 105.982 85.0242 105.982 84.6242V70.5602H110.254V83.9762C110.254 85.3362 110.078 86.4882 109.726 87.4322C109.39 88.3602 108.806 89.0722 107.974 89.5682C107.142 90.0482 105.982 90.2882 104.493 90.2882ZM118.603 90.2882C117.115 90.2882 115.947 90.0482 115.099 89.5682C114.267 89.0722 113.683 88.3602 113.347 87.4322C113.011 86.4882 112.843 85.3362 112.843 83.9762V70.5602H117.091V84.6242C117.091 85.0242 117.123 85.4242 117.187 85.8242C117.251 86.2242 117.387 86.5522 117.595 86.8082C117.819 87.0642 118.155 87.1922 118.603 87.1922C119.067 87.1922 119.403 87.0642 119.611 86.8082C119.819 86.5522 119.947 86.2242 119.995 85.8242C120.059 85.4242 120.091 85.0242 120.091 84.6242V70.5602H124.363V83.9762C124.363 85.3362 124.187 86.4882 123.835 87.4322C123.499 88.3602 122.915 89.0722 122.083 89.5682C121.251 90.0482 120.091 90.2882 118.603 90.2882ZM132.712 90.2882C131.224 90.2882 130.056 90.0482 129.208 89.5682C128.376 89.0722 127.792 88.3602 127.456 87.4322C127.12 86.4882 126.952 85.3362 126.952 83.9762V70.5602H131.2V84.6242C131.2 85.0242 131.232 85.4242 131.296 85.8242C131.36 86.2242 131.496 86.5522 131.704 86.8082C131.928 87.0642 132.264 87.1922 132.712 87.1922C133.176 87.1922 133.512 87.0642 133.72 86.8082C133.928 86.5522 134.056 86.2242 134.104 85.8242C134.168 85.4242 134.2 85.0242 134.2 84.6242V70.5602H138.472V83.9762C138.472 85.3362 138.296 86.4882 137.944 87.4322C137.608 88.3602 137.024 89.0722 136.192 89.5682C135.36 90.0482 134.2 90.2882 132.712 90.2882ZM146.822 90.2882C145.334 90.2882 144.166 90.0482 143.318 89.5682C142.486 89.0722 141.902 88.3602 141.566 87.4322C141.23 86.4882 141.062 85.3362 141.062 83.9762V70.5602H145.31V84.6242C145.31 85.0242 145.342 85.4242 145.406 85.8242C145.47 86.2242 145.606 86.5522 145.814 86.8082C146.038 87.0642 146.374 87.1922 146.822 87.1922C147.286 87.1922 147.622 87.0642 147.83 86.8082C148.038 86.5522 148.166 86.2242 148.214 85.8242C148.278 85.4242 148.31 85.0242 148.31 84.6242V70.5602H152.582V83.9762C152.582 85.3362 152.406 86.4882 152.054 87.4322C151.718 88.3602 151.134 89.0722 150.302 89.5682C149.47 90.0482 148.31 90.2882 146.822 90.2882ZM155.315 90.0002V70.5602H160.667C161.979 70.5602 163.115 70.7042 164.075 70.9922C165.035 71.2802 165.779 71.8002 166.307 72.5522C166.851 73.2882 167.123 74.3362 167.123 75.6962C167.123 76.4962 167.059 77.2082 166.931 77.8322C166.803 78.4562 166.563 79.0002 166.211 79.4642C165.875 79.9122 165.387 80.2882 164.747 80.5922L167.411 90.0002H162.971L160.835 81.2882H159.611V90.0002H155.315ZM159.611 78.8162H160.811C161.419 78.8162 161.891 78.7122 162.227 78.5042C162.563 78.2802 162.795 77.9682 162.923 77.5682C163.067 77.1522 163.139 76.6562 163.139 76.0802C163.139 75.2482 162.987 74.6002 162.683 74.1362C162.379 73.6722 161.819 73.4402 161.003 73.4402H159.611V78.8162ZM169.706 90.0002V70.5602H175.058C176.37 70.5602 177.506 70.7042 178.466 70.9922C179.426 71.2802 180.17 71.8002 180.698 72.5522C181.242 73.2882 181.514 74.3362 181.514 75.6962C181.514 76.4962 181.45 77.2082 181.322 77.8322C181.194 78.4562 180.954 79.0002 180.602 79.4642C180.266 79.9122 179.778 80.2882 179.138 80.5922L181.802 90.0002H177.362L175.226 81.2882H174.002V90.0002H169.706ZM174.002 78.8162H175.202C175.81 78.8162 176.282 78.7122 176.618 78.5042C176.954 78.2802 177.186 77.9682 177.314 77.5682C177.458 77.1522 177.53 76.6562 177.53 76.0802C177.53 75.2482 177.378 74.6002 177.074 74.1362C176.77 73.6722 176.21 73.4402 175.394 73.4402H174.002V78.8162ZM184.096 90.0002V70.5602H189.448C190.76 70.5602 191.896 70.7042 192.856 70.9922C193.816 71.2802 194.56 71.8002 195.088 72.5522C195.632 73.2882 195.904 74.3362 195.904 75.6962C195.904 76.4962 195.84 77.2082 195.712 77.8322C195.584 78.4562 195.344 79.0002 194.992 79.4642C194.656 79.9122 194.168 80.2882 193.528 80.5922L196.192 90.0002H191.752L189.616 81.2882H188.392V90.0002H184.096ZM188.392 78.8162H189.592C190.2 78.8162 190.672 78.7122 191.008 78.5042C191.344 78.2802 191.576 77.9682 191.704 77.5682C191.848 77.1522 191.92 76.6562 191.92 76.0802C191.92 75.2482 191.768 74.6002 191.464 74.1362C191.16 73.6722 190.6 73.4402 189.784 73.4402H188.392V78.8162ZM198.487 90.0002V70.5602H203.839C205.151 70.5602 206.287 70.7042 207.247 70.9922C208.207 71.2802 208.951 71.8002 209.479 72.5522C210.023 73.2882 210.295 74.3362 210.295 75.6962C210.295 76.4962 210.231 77.2082 210.103 77.8322C209.975 78.4562 209.735 79.0002 209.383 79.4642C209.047 79.9122 208.559 80.2882 207.919 80.5922L210.583 90.0002H206.143L204.007 81.2882H202.783V90.0002H198.487ZM202.783 78.8162H203.983C204.591 78.8162 205.063 78.7122 205.399 78.5042C205.735 78.2802 205.967 77.9682 206.095 77.5682C206.239 77.1522 206.311 76.6562 206.311 76.0802C206.311 75.2482 206.159 74.6002 205.855 74.1362C205.551 73.6722 204.991 73.4402 204.175 73.4402H202.783V78.8162ZM212.878 90.0002V70.5602H218.23C219.542 70.5602 220.678 70.7042 221.638 70.9922C222.598 71.2802 223.342 71.8002 223.87 72.5522C224.414 73.2882 224.686 74.3362 224.686 75.6962C224.686 76.4962 224.622 77.2082 224.494 77.8322C224.366 78.4562 224.126 79.0002 223.773 79.4642C223.438 79.9122 222.95 80.2882 222.31 80.5922L224.974 90.0002H220.534L218.398 81.2882H217.174V90.0002H212.878ZM217.174 78.8162H218.374C218.982 78.8162 219.454 78.7122 219.79 78.5042C220.126 78.2802 220.358 77.9682 220.486 77.5682C220.63 77.1522 220.702 76.6562 220.702 76.0802C220.702 75.2482 220.55 74.6002 220.246 74.1362C219.942 73.6722 219.382 73.4402 218.566 73.4402H217.174V78.8162ZM227.268 90.0002V70.5602H232.62C233.932 70.5602 235.068 70.7042 236.028 70.9922C236.988 71.2802 237.732 71.8002 238.26 72.5522C238.804 73.2882 239.076 74.3362 239.076 75.6962C239.076 76.4962 239.012 77.2082 238.884 77.8322C238.756 78.4562 238.516 79.0002 238.164 79.4642C237.828 79.9122 237.34 80.2882 236.7 80.5922L239.364 90.0002H234.924L232.788 81.2882H231.564V90.0002H227.268ZM231.564 78.8162H232.764C233.372 78.8162 233.844 78.7122 234.18 78.5042C234.516 78.2802 234.748 77.9682 234.876 77.5682C235.02 77.1522 235.092 76.6562 235.092 76.0802C235.092 75.2482 234.94 74.6002 234.636 74.1362C234.332 73.6722 233.772 73.4402 232.956 73.4402H231.564V78.8162ZM242.523 85.0562L241.395 70.6082H245.283L243.867 85.0562H242.523ZM241.323 90.0002V86.3522H245.019V90.0002H241.323ZM41.504 138L45.176 118.56H50.072L53.696 138H49.736L49.088 133.896H46.232L45.56 138H41.504ZM46.616 131.328H48.68L47.648 123.744L46.616 131.328ZM54.7228 138L58.3948 118.56H63.2908L66.9148 138H62.9548L62.3068 133.896H59.4508L58.7788 138H54.7228ZM59.8348 131.328H61.8988L60.8668 123.744L59.8348 131.328ZM67.9415 138L71.6135 118.56H76.5095L80.1335 138H76.1735L75.5255 133.896H72.6695L71.9975 138H67.9415ZM73.0535 131.328H75.1175L74.0855 123.744L73.0535 131.328ZM81.1603 138L84.8323 118.56H89.7283L93.3523 138H89.3923L88.7443 133.896H85.8883L85.2163 138H81.1603ZM86.2723 131.328H88.3363L87.3043 123.744L86.2723 131.328ZM94.379 138L98.051 118.56H102.947L106.571 138H102.611L101.963 133.896H99.107L98.435 138H94.379ZM99.491 131.328H101.555L100.523 123.744L99.491 131.328ZM108.534 138V118.56H117.27V121.488H112.83V126.312H116.214V129.288H112.83V135.096H117.318V138H108.534ZM119.268 138V118.56H128.004V121.488H123.564V126.312H126.948V129.288H123.564V135.096H128.052V138H119.268ZM130.003 138V118.56H135.355C136.667 118.56 137.803 118.704 138.763 118.992C139.723 119.28 140.467 119.8 140.995 120.552C141.539 121.288 141.811 122.336 141.811 123.696C141.811 124.496 141.747 125.208 141.619 125.832C141.491 126.456 141.251 127 140.898 127.464C140.563 127.912 140.075 128.288 139.435 128.592L142.099 138H137.659L135.523 129.288H134.299V138H130.003ZM134.299 126.816H135.499C136.107 126.816 136.579 126.712 136.915 126.504C137.251 126.28 137.483 125.968 137.611 125.568C137.755 125.152 137.827 124.656 137.827 124.08C137.827 123.248 137.675 122.6 137.371 122.136C137.067 121.672 136.507 121.44 135.691 121.44H134.299V126.816ZM144.393 138V118.56H149.745C151.057 118.56 152.193 118.704 153.153 118.992C154.113 119.28 154.857 119.8 155.385 120.552C155.929 121.288 156.201 122.336 156.201 123.696C156.201 124.496 156.137 125.208 156.009 125.832C155.881 126.456 155.641 127 155.289 127.464C154.953 127.912 154.465 128.288 153.825 128.592L156.489 138H152.049L149.913 129.288H148.689V138H144.393ZM148.689 126.816H149.889C150.497 126.816 150.969 126.712 151.305 126.504C151.641 126.28 151.873 125.968 152.001 125.568C152.145 125.152 152.217 124.656 152.217 124.08C152.217 123.248 152.065 122.6 151.761 122.136C151.457 121.672 150.897 121.44 150.081 121.44H148.689V126.816ZM158.784 138V118.56H164.136C165.448 118.56 166.584 118.704 167.544 118.992C168.504 119.28 169.248 119.8 169.776 120.552C170.32 121.288 170.592 122.336 170.592 123.696C170.592 124.496 170.528 125.208 170.4 125.832C170.272 126.456 170.032 127 169.68 127.464C169.344 127.912 168.856 128.288 168.216 128.592L170.88 138H166.44L164.304 129.288H163.08V138H158.784ZM163.08 126.816H164.28C164.888 126.816 165.36 126.712 165.696 126.504C166.032 126.28 166.264 125.968 166.392 125.568C166.536 125.152 166.608 124.656 166.608 124.08C166.608 123.248 166.456 122.6 166.152 122.136C165.848 121.672 165.288 121.44 164.472 121.44H163.08V126.816ZM173.246 138V118.56H177.542V126.432H180.542V118.56H184.862V138H180.542V129.504H177.542V138H173.246ZM187.895 138V118.56H192.191V126.432H195.191V118.56H199.511V138H195.191V129.504H192.191V138H187.895ZM202.543 138V118.56H206.839V126.432H209.839V118.56H214.159V138H209.839V129.504H206.839V138H202.543ZM217.192 138V118.56H221.488V126.432H224.488V118.56H228.808V138H224.488V129.504H221.488V138H217.192ZM232.632 133.056L231.504 118.608H235.392L233.976 133.056H232.632ZM231.432 138V134.352H235.128V138H231.432ZM238.796 133.056L237.668 118.608H241.556L240.14 133.056H238.796ZM237.596 138V134.352H241.292V138H237.596ZM244.96 133.056L243.832 118.608H247.72L246.304 133.056H244.96ZM243.76 138V134.352H247.456V138H243.76Z" fill="black"/>
</svg>
