<svg width="299" height="205" viewBox="0 0 299 205" fill="none" xmlns="http://www.w3.org/2000/svg">
<path d="M4 4H294.883V145.787H149.442L66.3322 200.926V145.787H4V4Z" fill="white" stroke="black" stroke-width="6.20088" stroke-linecap="round" stroke-linejoin="round"/>
<path d="M23.512 59V39.56H27.808V47.432H30.808V39.56H35.128V59H30.808V50.504H27.808V59H23.512ZM42.4084 59.24C41.4004 59.24 40.5364 59.064 39.8164 58.712C39.0964 58.344 38.5444 57.816 38.1604 57.128C37.7764 56.424 37.5844 55.584 37.5844 54.608V49.52C37.5844 48.528 37.7764 47.688 38.1604 47C38.5444 46.312 39.0964 45.792 39.8164 45.44C40.5524 45.072 41.4164 44.888 42.4084 44.888C43.4324 44.888 44.2804 45.064 44.9524 45.416C45.6404 45.768 46.1524 46.288 46.4884 46.976C46.8404 47.664 47.0164 48.512 47.0164 49.52V52.304H41.4484V54.968C41.4484 55.32 41.4884 55.608 41.5684 55.832C41.6484 56.056 41.7604 56.216 41.9044 56.312C42.0484 56.408 42.2164 56.456 42.4084 56.456C42.6004 56.456 42.7684 56.416 42.9124 56.336C43.0724 56.24 43.1924 56.096 43.2724 55.904C43.3684 55.712 43.4164 55.448 43.4164 55.112V53.648H47.0164V54.992C47.0164 56.4 46.6084 57.464 45.7924 58.184C44.9764 58.888 43.8484 59.24 42.4084 59.24ZM41.4484 50.48H43.4164V49.088C43.4164 48.72 43.3684 48.432 43.2724 48.224C43.1924 48.016 43.0724 47.872 42.9124 47.792C42.7684 47.712 42.5924 47.672 42.3844 47.672C42.1924 47.672 42.0244 47.72 41.8804 47.816C41.7524 47.912 41.6484 48.08 41.5684 48.32C41.4884 48.544 41.4484 48.872 41.4484 49.304V50.48ZM49.1219 59L49.1699 45.128H52.0499L54.8819 51.776L57.7379 45.128H60.6179L60.6659 59H57.6179V51.704L55.4819 56.84H54.3299L52.1699 51.68V59H49.1219ZM65.9706 59.24C65.2666 59.24 64.6746 59.072 64.1946 58.736C63.7146 58.4 63.3546 57.976 63.1146 57.464C62.8746 56.936 62.7546 56.4 62.7546 55.856C62.7546 54.992 62.9226 54.264 63.2586 53.672C63.6106 53.08 64.0666 52.584 64.6266 52.184C65.1866 51.784 65.8026 51.448 66.4746 51.176C67.1466 50.888 67.8106 50.632 68.4666 50.408V49.016C68.4666 48.776 68.4426 48.568 68.3946 48.392C68.3466 48.2 68.2666 48.056 68.1546 47.96C68.0426 47.848 67.8746 47.792 67.6506 47.792C67.4266 47.792 67.2506 47.84 67.1226 47.936C67.0106 48.032 66.9306 48.168 66.8826 48.344C66.8346 48.504 66.8026 48.688 66.7866 48.896L66.6906 49.904L63.0426 49.76C63.1226 48.096 63.5626 46.872 64.3626 46.088C65.1786 45.288 66.3946 44.888 68.0106 44.888C69.4186 44.888 70.4666 45.28 71.1546 46.064C71.8586 46.832 72.2106 47.832 72.2106 49.064V55.544C72.2106 56.12 72.2186 56.624 72.2346 57.056C72.2666 57.488 72.2986 57.864 72.3306 58.184C72.3786 58.504 72.4186 58.776 72.4506 59H68.9466C68.8986 58.632 68.8426 58.232 68.7786 57.8C68.7146 57.368 68.6666 57.112 68.6346 57.032C68.4746 57.608 68.1706 58.12 67.7226 58.568C67.2906 59.016 66.7066 59.24 65.9706 59.24ZM67.3626 56.6C67.5226 56.6 67.6666 56.568 67.7946 56.504C67.9386 56.44 68.0666 56.352 68.1786 56.24C68.2906 56.128 68.3866 56.016 68.4666 55.904V52.112C68.1466 52.304 67.8506 52.504 67.5786 52.712C67.3066 52.904 67.0746 53.12 66.8826 53.36C66.6906 53.6 66.5386 53.864 66.4266 54.152C66.3306 54.424 66.2826 54.736 66.2826 55.088C66.2826 55.552 66.3786 55.92 66.5706 56.192C66.7626 56.464 67.0266 56.6 67.3626 56.6ZM79.0407 59.24C78.0327 59.24 77.1687 59.056 76.4487 58.688C75.7447 58.32 75.2007 57.792 74.8167 57.104C74.4327 56.416 74.2407 55.584 74.2407 54.608V49.52C74.2407 48.528 74.4327 47.688 74.8167 47C75.2007 46.312 75.7447 45.792 76.4487 45.44C77.1687 45.072 78.0327 44.888 79.0407 44.888C80.0327 44.888 80.8727 45.04 81.5607 45.344C82.2647 45.648 82.8007 46.112 83.1687 46.736C83.5527 47.344 83.7447 48.12 83.7447 49.064V50.024H79.9527V49.04C79.9527 48.656 79.9127 48.368 79.8327 48.176C79.7687 47.968 79.6727 47.832 79.5447 47.768C79.4167 47.688 79.2567 47.648 79.0647 47.648C78.8727 47.648 78.7047 47.696 78.5607 47.792C78.4327 47.888 78.3367 48.056 78.2727 48.296C78.2087 48.536 78.1767 48.864 78.1767 49.28V51.08H81.3687V52.808H78.1767V54.848C78.1767 55.488 78.2487 55.92 78.3927 56.144C78.5527 56.352 78.7847 56.456 79.0887 56.456C79.2807 56.456 79.4407 56.416 79.5687 56.336C79.6967 56.24 79.7927 56.096 79.8567 55.904C79.9207 55.696 79.9527 55.424 79.9527 55.088V53.84H83.7447V55.016C83.7447 55.944 83.5527 56.728 83.1687 57.368C82.8007 57.992 82.2647 58.464 81.5607 58.784C80.8727 59.088 80.0327 59.24 79.0407 59.24ZM97.2758 59V53.408C97.0678 53.424 96.8518 53.44 96.6278 53.456C96.4198 53.472 96.2118 53.48 96.0038 53.48C94.8198 53.48 93.8918 53.344 93.2198 53.072C92.5638 52.784 92.0998 52.384 91.8278 51.872C91.5718 51.344 91.4438 50.72 91.4438 50V45.128H95.3318V49.76C95.3318 50.256 95.4278 50.624 95.6198 50.864C95.8118 51.104 96.2038 51.24 96.7958 51.272C96.8758 51.272 96.9478 51.272 97.0118 51.272C97.0918 51.256 97.1798 51.248 97.2758 51.248V45.128H101.188V59H97.2758ZM106.494 59.24C105.79 59.24 105.198 59.072 104.718 58.736C104.238 58.4 103.878 57.976 103.638 57.464C103.398 56.936 103.278 56.4 103.278 55.856C103.278 54.992 103.446 54.264 103.782 53.672C104.134 53.08 104.59 52.584 105.15 52.184C105.71 51.784 106.326 51.448 106.998 51.176C107.67 50.888 108.334 50.632 108.99 50.408V49.016C108.99 48.776 108.966 48.568 108.918 48.392C108.87 48.2 108.79 48.056 108.678 47.96C108.566 47.848 108.398 47.792 108.174 47.792C107.95 47.792 107.774 47.84 107.646 47.936C107.534 48.032 107.454 48.168 107.406 48.344C107.358 48.504 107.326 48.688 107.31 48.896L107.214 49.904L103.566 49.76C103.646 48.096 104.086 46.872 104.886 46.088C105.702 45.288 106.918 44.888 108.534 44.888C109.942 44.888 110.99 45.28 111.678 46.064C112.382 46.832 112.734 47.832 112.734 49.064V55.544C112.734 56.12 112.742 56.624 112.758 57.056C112.79 57.488 112.822 57.864 112.854 58.184C112.902 58.504 112.942 58.776 112.974 59H109.47C109.422 58.632 109.366 58.232 109.302 57.8C109.238 57.368 109.19 57.112 109.158 57.032C108.998 57.608 108.694 58.12 108.246 58.568C107.814 59.016 107.23 59.24 106.494 59.24ZM107.886 56.6C108.046 56.6 108.19 56.568 108.318 56.504C108.462 56.44 108.59 56.352 108.702 56.24C108.814 56.128 108.91 56.016 108.99 55.904V52.112C108.67 52.304 108.374 52.504 108.102 52.712C107.83 52.904 107.598 53.12 107.406 53.36C107.214 53.6 107.062 53.864 106.95 54.152C106.854 54.424 106.806 54.736 106.806 55.088C106.806 55.552 106.902 55.92 107.094 56.192C107.286 56.464 107.55 56.6 107.886 56.6ZM119.564 59.24C118.556 59.24 117.692 59.056 116.972 58.688C116.268 58.32 115.724 57.792 115.34 57.104C114.956 56.416 114.764 55.584 114.764 54.608V49.52C114.764 48.528 114.956 47.688 115.34 47C115.724 46.312 116.268 45.792 116.972 45.44C117.692 45.072 118.556 44.888 119.564 44.888C120.556 44.888 121.396 45.04 122.084 45.344C122.788 45.648 123.324 46.112 123.692 46.736C124.06 47.344 124.244 48.12 124.244 49.064V50.528H120.476V48.944C120.476 48.576 120.436 48.296 120.356 48.104C120.292 47.896 120.188 47.752 120.044 47.672C119.916 47.592 119.756 47.552 119.564 47.552C119.372 47.552 119.212 47.608 119.084 47.72C118.956 47.816 118.86 47.984 118.796 48.224C118.732 48.448 118.7 48.768 118.7 49.184V54.944C118.7 55.568 118.772 55.992 118.916 56.216C119.076 56.44 119.3 56.552 119.588 56.552C119.796 56.552 119.964 56.512 120.092 56.432C120.22 56.336 120.316 56.192 120.38 56C120.444 55.792 120.476 55.52 120.476 55.184V53.336H124.244V55.016C124.244 55.944 124.052 56.728 123.668 57.368C123.3 57.992 122.764 58.464 122.06 58.784C121.372 59.088 120.54 59.24 119.564 59.24ZM126.663 63.032V60.32C127.159 60.32 127.567 60.288 127.887 60.224C128.223 60.16 128.471 60.04 128.631 59.864C128.807 59.688 128.895 59.448 128.895 59.144C128.895 58.872 128.847 58.544 128.751 58.16C128.655 57.76 128.535 57.312 128.391 56.816L125.127 45.128H128.799L130.551 53.144L131.871 45.128H135.567L132.375 59.336C132.167 60.296 131.839 61.04 131.391 61.568C130.943 62.112 130.391 62.488 129.735 62.696C129.095 62.92 128.367 63.032 127.551 63.032H126.663ZM143.177 63.56V45.128H147.089V46.136C147.553 45.72 148.049 45.408 148.577 45.2C149.105 44.992 149.609 44.888 150.089 44.888C150.617 44.888 151.065 44.992 151.433 45.2C151.817 45.408 152.129 45.704 152.369 46.088C152.609 46.456 152.785 46.888 152.897 47.384C153.009 47.88 153.065 48.408 153.065 48.968V54.944C153.065 55.808 152.945 56.56 152.705 57.2C152.481 57.84 152.145 58.344 151.697 58.712C151.249 59.064 150.697 59.24 150.041 59.24C149.545 59.24 149.041 59.128 148.529 58.904C148.033 58.664 147.553 58.344 147.089 57.944V63.56H143.177ZM148.121 56.72C148.377 56.72 148.577 56.648 148.721 56.504C148.865 56.36 148.969 56.176 149.033 55.952C149.113 55.712 149.153 55.448 149.153 55.16V48.68C149.153 48.408 149.121 48.168 149.057 47.96C148.993 47.736 148.889 47.56 148.745 47.432C148.601 47.304 148.417 47.24 148.193 47.24C147.985 47.24 147.785 47.288 147.593 47.384C147.417 47.464 147.249 47.576 147.089 47.72V56.36C147.265 56.472 147.433 56.56 147.593 56.624C147.769 56.688 147.945 56.72 148.121 56.72ZM159.854 59.24C158.862 59.24 157.998 59.072 157.262 58.736C156.542 58.4 155.982 57.896 155.582 57.224C155.198 56.552 155.006 55.712 155.006 54.704V49.424C155.006 48.416 155.198 47.576 155.582 46.904C155.982 46.232 156.542 45.728 157.262 45.392C157.998 45.056 158.862 44.888 159.854 44.888C160.846 44.888 161.702 45.056 162.422 45.392C163.158 45.728 163.726 46.232 164.126 46.904C164.526 47.576 164.726 48.416 164.726 49.424V54.704C164.726 55.712 164.526 56.552 164.126 57.224C163.726 57.896 163.158 58.4 162.422 58.736C161.702 59.072 160.846 59.24 159.854 59.24ZM159.878 56.648C160.134 56.648 160.334 56.584 160.478 56.456C160.622 56.312 160.718 56.12 160.766 55.88C160.83 55.624 160.862 55.32 160.862 54.968V49.16C160.862 48.808 160.83 48.512 160.766 48.272C160.718 48.016 160.622 47.824 160.478 47.696C160.334 47.552 160.134 47.48 159.878 47.48C159.622 47.48 159.422 47.552 159.278 47.696C159.134 47.824 159.03 48.016 158.966 48.272C158.902 48.512 158.87 48.808 158.87 49.16V54.968C158.87 55.32 158.902 55.624 158.966 55.88C159.03 56.12 159.134 56.312 159.278 56.456C159.422 56.584 159.622 56.648 159.878 56.648ZM171.024 59.264C170.064 59.264 169.288 59.136 168.696 58.88C168.12 58.608 167.672 58.248 167.352 57.8C167.048 57.336 166.84 56.816 166.728 56.24C166.632 55.648 166.584 55.032 166.584 54.392H169.68C169.68 55.128 169.792 55.68 170.016 56.048C170.256 56.4 170.624 56.576 171.12 56.576C171.488 56.576 171.768 56.496 171.96 56.336C172.152 56.176 172.28 55.952 172.344 55.664C172.424 55.376 172.464 55.056 172.464 54.704C172.464 54.24 172.376 53.872 172.2 53.6C172.04 53.328 171.768 53.136 171.384 53.024C171.016 52.896 170.512 52.832 169.872 52.832V50.816C170.832 50.816 171.456 50.688 171.744 50.432C172.048 50.176 172.2 49.728 172.2 49.088C172.2 48.624 172.104 48.256 171.912 47.984C171.736 47.712 171.416 47.576 170.952 47.576C170.456 47.576 170.104 47.72 169.896 48.008C169.704 48.28 169.608 48.768 169.608 49.472H166.536C166.536 48.64 166.664 47.88 166.92 47.192C167.176 46.488 167.632 45.928 168.288 45.512C168.96 45.096 169.912 44.888 171.144 44.888C172.232 44.888 173.112 45.064 173.784 45.416C174.472 45.752 174.968 46.216 175.272 46.808C175.592 47.384 175.752 48.04 175.752 48.776C175.752 49.384 175.656 49.896 175.464 50.312C175.272 50.728 175.024 51.056 174.72 51.296C174.416 51.52 174.08 51.688 173.712 51.8C174.112 51.944 174.464 52.136 174.768 52.376C175.088 52.616 175.344 52.96 175.536 53.408C175.728 53.84 175.824 54.432 175.824 55.184C175.824 56.352 175.448 57.328 174.696 58.112C173.944 58.88 172.72 59.264 171.024 59.264ZM177.701 59V45.128H187.541V59H183.629V47.792H181.613V59H177.701ZM194.518 59.24C193.526 59.24 192.662 59.072 191.926 58.736C191.206 58.4 190.646 57.896 190.246 57.224C189.862 56.552 189.67 55.712 189.67 54.704V49.424C189.67 48.416 189.862 47.576 190.246 46.904C190.646 46.232 191.206 45.728 191.926 45.392C192.662 45.056 193.526 44.888 194.518 44.888C195.51 44.888 196.366 45.056 197.086 45.392C197.822 45.728 198.39 46.232 198.79 46.904C199.19 47.576 199.39 48.416 199.39 49.424V54.704C199.39 55.712 199.19 56.552 198.79 57.224C198.39 57.896 197.822 58.4 197.086 58.736C196.366 59.072 195.51 59.24 194.518 59.24ZM194.542 56.648C194.798 56.648 194.998 56.584 195.142 56.456C195.286 56.312 195.382 56.12 195.43 55.88C195.494 55.624 195.526 55.32 195.526 54.968V49.16C195.526 48.808 195.494 48.512 195.43 48.272C195.382 48.016 195.286 47.824 195.142 47.696C194.998 47.552 194.798 47.48 194.542 47.48C194.286 47.48 194.086 47.552 193.942 47.696C193.798 47.824 193.694 48.016 193.63 48.272C193.566 48.512 193.534 48.808 193.534 49.16V54.968C193.534 55.32 193.566 55.624 193.63 55.88C193.694 56.12 193.798 56.312 193.942 56.456C194.086 56.584 194.286 56.648 194.542 56.648ZM201.56 59V45.128H206.48C207.872 45.128 208.92 45.28 209.624 45.584C210.328 45.872 210.8 46.272 211.04 46.784C211.28 47.296 211.4 47.896 211.4 48.584C211.4 49.496 211.2 50.168 210.8 50.6C210.416 51.016 209.904 51.312 209.264 51.488C209.936 51.648 210.448 51.888 210.8 52.208C211.152 52.528 211.392 52.92 211.52 53.384C211.664 53.848 211.736 54.384 211.736 54.992C211.736 55.888 211.568 56.64 211.232 57.248C210.896 57.84 210.328 58.28 209.528 58.568C208.728 58.856 207.64 59 206.264 59H201.56ZM205.448 56.84H206.096C206.448 56.84 206.76 56.808 207.032 56.744C207.304 56.68 207.52 56.512 207.68 56.24C207.856 55.952 207.944 55.496 207.944 54.872C207.944 54.168 207.864 53.664 207.704 53.36C207.56 53.056 207.352 52.872 207.08 52.808C206.808 52.744 206.488 52.712 206.12 52.712H205.448V56.84ZM205.448 50.6H206.432C206.896 50.6 207.216 50.456 207.392 50.168C207.568 49.864 207.656 49.448 207.656 48.92C207.656 48.408 207.56 47.984 207.368 47.648C207.192 47.312 206.784 47.144 206.144 47.144H205.448V50.6ZM213.701 59V45.128H217.613V59H213.701ZM213.677 42.776V40.064H217.613V42.776H213.677ZM219.573 62.768V56.624C220.101 56.384 220.557 56.072 220.941 55.688C221.325 55.288 221.653 54.808 221.925 54.248C222.197 53.672 222.413 53.008 222.573 52.256C222.733 51.488 222.845 50.616 222.909 49.64L223.317 45.128H230.949V56.6H232.965V62.768H230.157L229.893 59H222.645L222.429 62.768H219.573ZM223.797 56.6H227.373V47.456H226.221L225.933 50.576C225.885 51.456 225.797 52.224 225.669 52.88C225.541 53.52 225.381 54.08 225.189 54.56C225.013 55.024 224.805 55.424 224.565 55.76C224.325 56.08 224.069 56.36 223.797 56.6ZM237.463 59.24C236.759 59.24 236.167 59.072 235.687 58.736C235.207 58.4 234.847 57.976 234.607 57.464C234.367 56.936 234.247 56.4 234.247 55.856C234.247 54.992 234.415 54.264 234.751 53.672C235.103 53.08 235.559 52.584 236.119 52.184C236.679 51.784 237.295 51.448 237.967 51.176C238.639 50.888 239.303 50.632 239.959 50.408V49.016C239.959 48.776 239.935 48.568 239.887 48.392C239.839 48.2 239.759 48.056 239.647 47.96C239.535 47.848 239.367 47.792 239.143 47.792C238.919 47.792 238.743 47.84 238.615 47.936C238.503 48.032 238.423 48.168 238.375 48.344C238.327 48.504 238.295 48.688 238.279 48.896L238.183 49.904L234.535 49.76C234.615 48.096 235.055 46.872 235.855 46.088C236.671 45.288 237.887 44.888 239.503 44.888C240.911 44.888 241.959 45.28 242.647 46.064C243.351 46.832 243.703 47.832 243.703 49.064V55.544C243.703 56.12 243.711 56.624 243.727 57.056C243.759 57.488 243.791 57.864 243.823 58.184C243.871 58.504 243.911 58.776 243.943 59H240.439C240.391 58.632 240.335 58.232 240.271 57.8C240.207 57.368 240.159 57.112 240.127 57.032C239.967 57.608 239.663 58.12 239.215 58.568C238.783 59.016 238.199 59.24 237.463 59.24ZM238.855 56.6C239.015 56.6 239.159 56.568 239.287 56.504C239.431 56.44 239.559 56.352 239.671 56.24C239.783 56.128 239.879 56.016 239.959 55.904V52.112C239.639 52.304 239.343 52.504 239.071 52.712C238.799 52.904 238.567 53.12 238.375 53.36C238.183 53.6 238.031 53.864 237.919 54.152C237.823 54.424 237.775 54.736 237.775 55.088C237.775 55.552 237.871 55.92 238.063 56.192C238.255 56.464 238.519 56.6 238.855 56.6ZM247.701 59V47.768H245.181V45.128H254.109V47.768H251.589V59H247.701ZM255.747 59V45.128H258.843V52.544L262.467 45.128H265.515V59H262.347V51.656L258.819 59H255.747ZM269.015 54.056L267.887 39.608H271.775L270.359 54.056H269.015ZM267.815 59V55.352H271.511V59H267.815ZM23.44 107V87.56H29.968C31.136 87.56 32.096 87.784 32.848 88.232C33.6 88.664 34.16 89.304 34.528 90.152C34.896 90.984 35.08 92 35.08 93.2C35.08 94.704 34.832 95.856 34.336 96.656C33.84 97.44 33.168 97.984 32.32 98.288C31.472 98.592 30.52 98.744 29.464 98.744H27.736V107H23.44ZM27.736 95.744H29.176C29.704 95.744 30.104 95.648 30.376 95.456C30.648 95.264 30.824 94.976 30.904 94.592C31 94.208 31.048 93.72 31.048 93.128C31.048 92.632 31.008 92.2 30.928 91.832C30.864 91.448 30.696 91.144 30.424 90.92C30.152 90.696 29.728 90.584 29.152 90.584H27.736V95.744ZM41.4949 107.24C40.5029 107.24 39.6389 107.072 38.9029 106.736C38.1829 106.4 37.6229 105.896 37.2229 105.224C36.8389 104.552 36.6469 103.712 36.6469 102.704V97.424C36.6469 96.416 36.8389 95.576 37.2229 94.904C37.6229 94.232 38.1829 93.728 38.9029 93.392C39.6389 93.056 40.5029 92.888 41.4949 92.888C42.4869 92.888 43.3429 93.056 44.0629 93.392C44.7989 93.728 45.3669 94.232 45.7669 94.904C46.1669 95.576 46.3669 96.416 46.3669 97.424V102.704C46.3669 103.712 46.1669 104.552 45.7669 105.224C45.3669 105.896 44.7989 106.4 44.0629 106.736C43.3429 107.072 42.4869 107.24 41.4949 107.24ZM41.5189 104.648C41.7749 104.648 41.9749 104.584 42.1189 104.456C42.2629 104.312 42.3589 104.12 42.4069 103.88C42.4709 103.624 42.5029 103.32 42.5029 102.968V97.16C42.5029 96.808 42.4709 96.512 42.4069 96.272C42.3589 96.016 42.2629 95.824 42.1189 95.696C41.9749 95.552 41.7749 95.48 41.5189 95.48C41.2629 95.48 41.0629 95.552 40.9189 95.696C40.7749 95.824 40.6709 96.016 40.6069 96.272C40.5429 96.512 40.5109 96.808 40.5109 97.16V102.968C40.5109 103.32 40.5429 103.624 40.6069 103.88C40.6709 104.12 40.7749 104.312 40.9189 104.456C41.0629 104.584 41.2629 104.648 41.5189 104.648ZM52.6645 107.264C51.7045 107.264 50.9285 107.136 50.3365 106.88C49.7605 106.608 49.3125 106.248 48.9925 105.8C48.6885 105.336 48.4805 104.816 48.3685 104.24C48.2725 103.648 48.2245 103.032 48.2245 102.392H51.3205C51.3205 103.128 51.4325 103.68 51.6565 104.048C51.8965 104.4 52.2645 104.576 52.7605 104.576C53.1285 104.576 53.4085 104.496 53.6005 104.336C53.7925 104.176 53.9205 103.952 53.9845 103.664C54.0645 103.376 54.1045 103.056 54.1045 102.704C54.1045 102.24 54.0165 101.872 53.8405 101.6C53.6805 101.328 53.4085 101.136 53.0245 101.024C52.6565 100.896 52.1525 100.832 51.5125 100.832V98.816C52.4725 98.816 53.0965 98.688 53.3845 98.432C53.6885 98.176 53.8405 97.728 53.8405 97.088C53.8405 96.624 53.7445 96.256 53.5525 95.984C53.3765 95.712 53.0565 95.576 52.5925 95.576C52.0965 95.576 51.7445 95.72 51.5365 96.008C51.3445 96.28 51.2485 96.768 51.2485 97.472H48.1765C48.1765 96.64 48.3045 95.88 48.5605 95.192C48.8165 94.488 49.2725 93.928 49.9285 93.512C50.6005 93.096 51.5525 92.888 52.7845 92.888C53.8725 92.888 54.7525 93.064 55.4245 93.416C56.1125 93.752 56.6085 94.216 56.9125 94.808C57.2325 95.384 57.3925 96.04 57.3925 96.776C57.3925 97.384 57.2965 97.896 57.1045 98.312C56.9125 98.728 56.6645 99.056 56.3605 99.296C56.0565 99.52 55.7205 99.688 55.3525 99.8C55.7525 99.944 56.1045 100.136 56.4085 100.376C56.7285 100.616 56.9845 100.96 57.1765 101.408C57.3685 101.84 57.4645 102.432 57.4645 103.184C57.4645 104.352 57.0885 105.328 56.3365 106.112C55.5845 106.88 54.3605 107.264 52.6645 107.264ZM59.3412 107V93.128H69.1812V107H65.2692V95.792H63.2532V107H59.3412ZM76.159 107.24C75.167 107.24 74.303 107.072 73.567 106.736C72.847 106.4 72.287 105.896 71.887 105.224C71.503 104.552 71.311 103.712 71.311 102.704V97.424C71.311 96.416 71.503 95.576 71.887 94.904C72.287 94.232 72.847 93.728 73.567 93.392C74.303 93.056 75.167 92.888 76.159 92.888C77.151 92.888 78.007 93.056 78.727 93.392C79.463 93.728 80.031 94.232 80.431 94.904C80.831 95.576 81.031 96.416 81.031 97.424V102.704C81.031 103.712 80.831 104.552 80.431 105.224C80.031 105.896 79.463 106.4 78.727 106.736C78.007 107.072 77.151 107.24 76.159 107.24ZM76.183 104.648C76.439 104.648 76.639 104.584 76.783 104.456C76.927 104.312 77.023 104.12 77.071 103.88C77.135 103.624 77.167 103.32 77.167 102.968V97.16C77.167 96.808 77.135 96.512 77.071 96.272C77.023 96.016 76.927 95.824 76.783 95.696C76.639 95.552 76.439 95.48 76.183 95.48C75.927 95.48 75.727 95.552 75.583 95.696C75.439 95.824 75.335 96.016 75.271 96.272C75.207 96.512 75.175 96.808 75.175 97.16V102.968C75.175 103.32 75.207 103.624 75.271 103.88C75.335 104.12 75.439 104.312 75.583 104.456C75.727 104.584 75.927 104.648 76.183 104.648ZM83.2006 107V93.128H88.1206C89.5126 93.128 90.5606 93.28 91.2646 93.584C91.9686 93.872 92.4406 94.272 92.6806 94.784C92.9206 95.296 93.0406 95.896 93.0406 96.584C93.0406 97.496 92.8406 98.168 92.4406 98.6C92.0566 99.016 91.5446 99.312 90.9046 99.488C91.5766 99.648 92.0886 99.888 92.4406 100.208C92.7926 100.528 93.0326 100.92 93.1606 101.384C93.3046 101.848 93.3766 102.384 93.3766 102.992C93.3766 103.888 93.2086 104.64 92.8726 105.248C92.5366 105.84 91.9686 106.28 91.1686 106.568C90.3686 106.856 89.2806 107 87.9046 107H83.2006ZM87.0886 104.84H87.7366C88.0886 104.84 88.4006 104.808 88.6726 104.744C88.9446 104.68 89.1606 104.512 89.3206 104.24C89.4966 103.952 89.5846 103.496 89.5846 102.872C89.5846 102.168 89.5046 101.664 89.3446 101.36C89.2006 101.056 88.9926 100.872 88.7206 100.808C88.4486 100.744 88.1286 100.712 87.7606 100.712H87.0886V104.84ZM87.0886 98.6H88.0726C88.5366 98.6 88.8566 98.456 89.0326 98.168C89.2086 97.864 89.2966 97.448 89.2966 96.92C89.2966 96.408 89.2006 95.984 89.0086 95.648C88.8326 95.312 88.4246 95.144 87.7846 95.144H87.0886V98.6ZM95.3418 107V93.128H99.2538V107H95.3418ZM95.3178 90.776V88.064H99.2538V90.776H95.3178ZM101.645 107L101.693 93.128H104.573L107.405 99.776L110.261 93.128H113.141L113.189 107H110.141V99.704L108.005 104.84H106.853L104.693 99.68V107H101.645ZM121.779 107V93.128H126.699C128.091 93.128 129.139 93.28 129.843 93.584C130.547 93.872 131.019 94.272 131.259 94.784C131.499 95.296 131.619 95.896 131.619 96.584C131.619 97.496 131.419 98.168 131.019 98.6C130.635 99.016 130.123 99.312 129.483 99.488C130.155 99.648 130.667 99.888 131.019 100.208C131.371 100.528 131.611 100.92 131.739 101.384C131.883 101.848 131.955 102.384 131.955 102.992C131.955 103.888 131.787 104.64 131.451 105.248C131.115 105.84 130.547 106.28 129.747 106.568C128.947 106.856 127.859 107 126.483 107H121.779ZM125.667 104.84H126.315C126.667 104.84 126.979 104.808 127.251 104.744C127.523 104.68 127.739 104.512 127.899 104.24C128.075 103.952 128.163 103.496 128.163 102.872C128.163 102.168 128.083 101.664 127.923 101.36C127.779 101.056 127.571 100.872 127.299 100.808C127.027 100.744 126.707 100.712 126.339 100.712H125.667V104.84ZM125.667 98.6H126.651C127.115 98.6 127.435 98.456 127.611 98.168C127.787 97.864 127.875 97.448 127.875 96.92C127.875 96.408 127.779 95.984 127.587 95.648C127.411 95.312 127.003 95.144 126.363 95.144H125.667V98.6ZM138.408 107.24C137.4 107.24 136.536 107.056 135.816 106.688C135.112 106.32 134.568 105.792 134.184 105.104C133.8 104.416 133.608 103.584 133.608 102.608V97.52C133.608 96.528 133.8 95.688 134.184 95C134.568 94.312 135.112 93.792 135.816 93.44C136.536 93.072 137.4 92.888 138.408 92.888C139.4 92.888 140.24 93.04 140.928 93.344C141.632 93.648 142.168 94.112 142.536 94.736C142.904 95.344 143.088 96.12 143.088 97.064V98.528H139.32V96.944C139.32 96.576 139.28 96.296 139.2 96.104C139.136 95.896 139.032 95.752 138.888 95.672C138.76 95.592 138.6 95.552 138.408 95.552C138.216 95.552 138.056 95.608 137.928 95.72C137.8 95.816 137.704 95.984 137.64 96.224C137.576 96.448 137.544 96.768 137.544 97.184V102.944C137.544 103.568 137.616 103.992 137.76 104.216C137.92 104.44 138.144 104.552 138.432 104.552C138.64 104.552 138.808 104.512 138.936 104.432C139.064 104.336 139.16 104.192 139.224 104C139.288 103.792 139.32 103.52 139.32 103.184V101.336H143.088V103.016C143.088 103.944 142.896 104.728 142.512 105.368C142.144 105.992 141.608 106.464 140.904 106.784C140.216 107.088 139.384 107.24 138.408 107.24ZM149.658 107.24C148.65 107.24 147.786 107.064 147.066 106.712C146.346 106.344 145.794 105.816 145.41 105.128C145.026 104.424 144.834 103.584 144.834 102.608V97.52C144.834 96.528 145.026 95.688 145.41 95C145.794 94.312 146.346 93.792 147.066 93.44C147.802 93.072 148.666 92.888 149.658 92.888C150.682 92.888 151.53 93.064 152.202 93.416C152.89 93.768 153.402 94.288 153.738 94.976C154.09 95.664 154.266 96.512 154.266 97.52V100.304H148.698V102.968C148.698 103.32 148.738 103.608 148.818 103.832C148.898 104.056 149.01 104.216 149.154 104.312C149.298 104.408 149.466 104.456 149.658 104.456C149.85 104.456 150.018 104.416 150.162 104.336C150.322 104.24 150.442 104.096 150.522 103.904C150.618 103.712 150.666 103.448 150.666 103.112V101.648H154.266V102.992C154.266 104.4 153.858 105.464 153.042 106.184C152.226 106.888 151.098 107.24 149.658 107.24ZM148.698 98.48H150.666V97.088C150.666 96.72 150.618 96.432 150.522 96.224C150.442 96.016 150.322 95.872 150.162 95.792C150.018 95.712 149.842 95.672 149.634 95.672C149.442 95.672 149.274 95.72 149.13 95.816C149.002 95.912 148.898 96.08 148.818 96.32C148.738 96.544 148.698 96.872 148.698 97.304V98.48ZM162.537 107V93.128H172.377V107H168.465V95.792H166.449V107H162.537ZM179.354 107.24C178.362 107.24 177.498 107.072 176.762 106.736C176.042 106.4 175.482 105.896 175.082 105.224C174.698 104.552 174.506 103.712 174.506 102.704V97.424C174.506 96.416 174.698 95.576 175.082 94.904C175.482 94.232 176.042 93.728 176.762 93.392C177.498 93.056 178.362 92.888 179.354 92.888C180.346 92.888 181.202 93.056 181.922 93.392C182.658 93.728 183.226 94.232 183.626 94.904C184.026 95.576 184.226 96.416 184.226 97.424V102.704C184.226 103.712 184.026 104.552 183.626 105.224C183.226 105.896 182.658 106.4 181.922 106.736C181.202 107.072 180.346 107.24 179.354 107.24ZM179.378 104.648C179.634 104.648 179.834 104.584 179.978 104.456C180.122 104.312 180.218 104.12 180.266 103.88C180.33 103.624 180.362 103.32 180.362 102.968V97.16C180.362 96.808 180.33 96.512 180.266 96.272C180.218 96.016 180.122 95.824 179.978 95.696C179.834 95.552 179.634 95.48 179.378 95.48C179.122 95.48 178.922 95.552 178.778 95.696C178.634 95.824 178.53 96.016 178.466 96.272C178.402 96.512 178.37 96.808 178.37 97.16V102.968C178.37 103.32 178.402 103.624 178.466 103.88C178.53 104.12 178.634 104.312 178.778 104.456C178.922 104.584 179.122 104.648 179.378 104.648ZM192.081 110.768V104.624C192.609 104.384 193.065 104.072 193.449 103.688C193.833 103.288 194.161 102.808 194.433 102.248C194.705 101.672 194.921 101.008 195.081 100.256C195.241 99.488 195.353 98.616 195.417 97.64L195.825 93.128H203.457V104.6H205.473V110.768H202.665L202.401 107H195.153L194.937 110.768H192.081ZM196.305 104.6H199.881V95.456H198.729L198.441 98.576C198.393 99.456 198.305 100.224 198.177 100.88C198.049 101.52 197.889 102.08 197.697 102.56C197.521 103.024 197.313 103.424 197.073 103.76C196.833 104.08 196.577 104.36 196.305 104.6ZM211.464 107.24C210.472 107.24 209.608 107.072 208.872 106.736C208.152 106.4 207.592 105.896 207.192 105.224C206.808 104.552 206.616 103.712 206.616 102.704V97.424C206.616 96.416 206.808 95.576 207.192 94.904C207.592 94.232 208.152 93.728 208.872 93.392C209.608 93.056 210.472 92.888 211.464 92.888C212.456 92.888 213.312 93.056 214.032 93.392C214.768 93.728 215.336 94.232 215.736 94.904C216.136 95.576 216.336 96.416 216.336 97.424V102.704C216.336 103.712 216.136 104.552 215.736 105.224C215.336 105.896 214.768 106.4 214.032 106.736C213.312 107.072 212.456 107.24 211.464 107.24ZM211.488 104.648C211.744 104.648 211.944 104.584 212.088 104.456C212.232 104.312 212.328 104.12 212.376 103.88C212.44 103.624 212.472 103.32 212.472 102.968V97.16C212.472 96.808 212.44 96.512 212.376 96.272C212.328 96.016 212.232 95.824 212.088 95.696C211.944 95.552 211.744 95.48 211.488 95.48C211.232 95.48 211.032 95.552 210.888 95.696C210.744 95.824 210.64 96.016 210.576 96.272C210.512 96.512 210.48 96.808 210.48 97.16V102.968C210.48 103.32 210.512 103.624 210.576 103.88C210.64 104.12 210.744 104.312 210.888 104.456C211.032 104.584 211.232 104.648 211.488 104.648ZM218.505 111.56V93.128H222.417V94.136C222.881 93.72 223.377 93.408 223.905 93.2C224.433 92.992 224.937 92.888 225.417 92.888C225.945 92.888 226.393 92.992 226.761 93.2C227.145 93.408 227.457 93.704 227.697 94.088C227.937 94.456 228.113 94.888 228.225 95.384C228.337 95.88 228.393 96.408 228.393 96.968V102.944C228.393 103.808 228.273 104.56 228.033 105.2C227.809 105.84 227.473 106.344 227.025 106.712C226.577 107.064 226.025 107.24 225.369 107.24C224.873 107.24 224.369 107.128 223.857 106.904C223.361 106.664 222.881 106.344 222.417 105.944V111.56H218.505ZM223.449 104.72C223.705 104.72 223.905 104.648 224.049 104.504C224.193 104.36 224.297 104.176 224.361 103.952C224.441 103.712 224.481 103.448 224.481 103.16V96.68C224.481 96.408 224.449 96.168 224.385 95.96C224.321 95.736 224.217 95.56 224.073 95.432C223.929 95.304 223.745 95.24 223.521 95.24C223.313 95.24 223.113 95.288 222.921 95.384C222.745 95.464 222.577 95.576 222.417 95.72V104.36C222.593 104.472 222.761 104.56 222.921 104.624C223.097 104.688 223.273 104.72 223.449 104.72ZM235.182 107.24C234.19 107.24 233.326 107.072 232.59 106.736C231.87 106.4 231.31 105.896 230.91 105.224C230.526 104.552 230.334 103.712 230.334 102.704V97.424C230.334 96.416 230.526 95.576 230.91 94.904C231.31 94.232 231.87 93.728 232.59 93.392C233.326 93.056 234.19 92.888 235.182 92.888C236.174 92.888 237.03 93.056 237.75 93.392C238.486 93.728 239.054 94.232 239.454 94.904C239.854 95.576 240.054 96.416 240.054 97.424V102.704C240.054 103.712 239.854 104.552 239.454 105.224C239.054 105.896 238.486 106.4 237.75 106.736C237.03 107.072 236.174 107.24 235.182 107.24ZM235.206 104.648C235.462 104.648 235.662 104.584 235.806 104.456C235.95 104.312 236.046 104.12 236.094 103.88C236.158 103.624 236.19 103.32 236.19 102.968V97.16C236.19 96.808 236.158 96.512 236.094 96.272C236.046 96.016 235.95 95.824 235.806 95.696C235.662 95.552 235.462 95.48 235.206 95.48C234.95 95.48 234.75 95.552 234.606 95.696C234.462 95.824 234.358 96.016 234.294 96.272C234.23 96.512 234.198 96.808 234.198 97.16V102.968C234.198 103.32 234.23 103.624 234.294 103.88C234.358 104.12 234.462 104.312 234.606 104.456C234.75 104.584 234.95 104.648 235.206 104.648ZM246.352 107.264C245.392 107.264 244.616 107.136 244.024 106.88C243.448 106.608 243 106.248 242.68 105.8C242.376 105.336 242.168 104.816 242.056 104.24C241.96 103.648 241.912 103.032 241.912 102.392H245.008C245.008 103.128 245.12 103.68 245.344 104.048C245.584 104.4 245.952 104.576 246.448 104.576C246.816 104.576 247.096 104.496 247.288 104.336C247.48 104.176 247.608 103.952 247.672 103.664C247.752 103.376 247.792 103.056 247.792 102.704C247.792 102.24 247.704 101.872 247.528 101.6C247.368 101.328 247.096 101.136 246.712 101.024C246.344 100.896 245.84 100.832 245.2 100.832V98.816C246.16 98.816 246.784 98.688 247.072 98.432C247.376 98.176 247.528 97.728 247.528 97.088C247.528 96.624 247.432 96.256 247.24 95.984C247.064 95.712 246.744 95.576 246.28 95.576C245.784 95.576 245.432 95.72 245.224 96.008C245.032 96.28 244.936 96.768 244.936 97.472H241.864C241.864 96.64 241.992 95.88 242.248 95.192C242.504 94.488 242.96 93.928 243.616 93.512C244.288 93.096 245.24 92.888 246.472 92.888C247.56 92.888 248.44 93.064 249.112 93.416C249.8 93.752 250.296 94.216 250.6 94.808C250.92 95.384 251.08 96.04 251.08 96.776C251.08 97.384 250.984 97.896 250.792 98.312C250.6 98.728 250.352 99.056 250.048 99.296C249.744 99.52 249.408 99.688 249.04 99.8C249.44 99.944 249.792 100.136 250.096 100.376C250.416 100.616 250.672 100.96 250.864 101.408C251.056 101.84 251.152 102.432 251.152 103.184C251.152 104.352 250.776 105.328 250.024 106.112C249.272 106.88 248.048 107.264 246.352 107.264ZM253.053 107V93.128H256.965V107H253.053ZM253.029 90.776V88.064H256.965V90.776H253.029ZM260.46 102.056L259.332 87.608H263.22L261.804 102.056H260.46ZM259.26 107V103.352H262.956V107H259.26Z" fill="black"/>
</svg>
