<svg width="206" height="144" viewBox="0 0 206 144" fill="none" xmlns="http://www.w3.org/2000/svg">
<path d="M4 4H202.883V101.92H103.442L46.6179 140V101.92H4V4Z" fill="white" stroke="black" stroke-width="6.20088" stroke-linecap="round" stroke-linejoin="round"/>
<path d="M49.44 63V43.56H61.08V63H56.856V46.632H53.664V63H49.44ZM68.3153 63.24C67.3233 63.24 66.4593 63.072 65.7233 62.736C65.0033 62.4 64.4433 61.896 64.0433 61.224C63.6593 60.552 63.4673 59.712 63.4673 58.704V53.424C63.4673 52.416 63.6593 51.576 64.0433 50.904C64.4433 50.232 65.0033 49.728 65.7233 49.392C66.4593 49.056 67.3233 48.888 68.3153 48.888C69.3073 48.888 70.1633 49.056 70.8833 49.392C71.6193 49.728 72.1873 50.232 72.5873 50.904C72.9873 51.576 73.1873 52.416 73.1873 53.424V58.704C73.1873 59.712 72.9873 60.552 72.5873 61.224C72.1873 61.896 71.6193 62.4 70.8833 62.736C70.1633 63.072 69.3073 63.24 68.3153 63.24ZM68.3393 60.648C68.5953 60.648 68.7953 60.584 68.9393 60.456C69.0833 60.312 69.1793 60.12 69.2273 59.88C69.2913 59.624 69.3233 59.32 69.3233 58.968V53.16C69.3233 52.808 69.2913 52.512 69.2273 52.272C69.1793 52.016 69.0833 51.824 68.9393 51.696C68.7953 51.552 68.5953 51.48 68.3393 51.48C68.0833 51.48 67.8833 51.552 67.7393 51.696C67.5953 51.824 67.4913 52.016 67.4273 52.272C67.3633 52.512 67.3313 52.808 67.3313 53.16V58.968C67.3313 59.32 67.3633 59.624 67.4273 59.88C67.4913 60.12 67.5953 60.312 67.7393 60.456C67.8833 60.584 68.0833 60.648 68.3393 60.648ZM74.3745 63.144V60.384C74.8865 60.384 75.3025 60.304 75.6225 60.144C75.9585 59.984 76.2225 59.712 76.4145 59.328C76.6225 58.928 76.7825 58.392 76.8945 57.72C77.0065 57.032 77.1025 56.16 77.1825 55.104L77.6385 49.128H86.4465V63H82.5345V51.768H80.9505L80.6145 55.872C80.5025 57.312 80.3425 58.504 80.1345 59.448C79.9265 60.392 79.6225 61.136 79.2225 61.68C78.8225 62.208 78.2865 62.584 77.6145 62.808C76.9425 63.032 76.0865 63.144 75.0465 63.144H74.3745ZM93.4397 63.24C92.4317 63.24 91.5677 63.064 90.8477 62.712C90.1277 62.344 89.5757 61.816 89.1917 61.128C88.8077 60.424 88.6157 59.584 88.6157 58.608V53.52C88.6157 52.528 88.8077 51.688 89.1917 51C89.5757 50.312 90.1277 49.792 90.8477 49.44C91.5837 49.072 92.4477 48.888 93.4397 48.888C94.4637 48.888 95.3117 49.064 95.9837 49.416C96.6717 49.768 97.1837 50.288 97.5197 50.976C97.8717 51.664 98.0477 52.512 98.0477 53.52V56.304H92.4797V58.968C92.4797 59.32 92.5197 59.608 92.5997 59.832C92.6797 60.056 92.7917 60.216 92.9357 60.312C93.0797 60.408 93.2477 60.456 93.4397 60.456C93.6317 60.456 93.7997 60.416 93.9437 60.336C94.1037 60.24 94.2237 60.096 94.3037 59.904C94.3997 59.712 94.4477 59.448 94.4477 59.112V57.648H98.0477V58.992C98.0477 60.4 97.6397 61.464 96.8237 62.184C96.0077 62.888 94.8797 63.24 93.4397 63.24ZM92.4797 54.48H94.4477V53.088C94.4477 52.72 94.3997 52.432 94.3037 52.224C94.2237 52.016 94.1037 51.872 93.9437 51.792C93.7997 51.712 93.6237 51.672 93.4157 51.672C93.2237 51.672 93.0557 51.72 92.9117 51.816C92.7837 51.912 92.6797 52.08 92.5997 52.32C92.5197 52.544 92.4797 52.872 92.4797 53.304V54.48ZM101.763 63V51.768H99.2434V49.128H108.171V51.768H105.651V63H101.763ZM109.834 63V49.128H113.746V63H109.834ZM109.81 46.776V44.064H113.746V46.776H109.81ZM115.25 63.144V60.384C115.762 60.384 116.178 60.304 116.498 60.144C116.834 59.984 117.098 59.712 117.29 59.328C117.498 58.928 117.658 58.392 117.77 57.72C117.882 57.032 117.978 56.16 118.058 55.104L118.514 49.128H127.322V63H123.41V51.768H121.826L121.49 55.872C121.378 57.312 121.218 58.504 121.01 59.448C120.802 60.392 120.498 61.136 120.098 61.68C119.698 62.208 119.162 62.584 118.49 62.808C117.818 63.032 116.962 63.144 115.922 63.144H115.25ZM129.779 63V49.128H132.875V56.544L136.499 49.128H139.547V63H136.379V55.656L132.851 63H129.779ZM143.046 58.056L141.918 43.608H145.806L144.39 58.056H143.046ZM141.846 63V59.352H145.542V63H141.846Z" fill="black"/>
</svg>
