<svg width="293" height="194" viewBox="0 0 293 194" fill="none" xmlns="http://www.w3.org/2000/svg">
<g filter="url(#filter0_d_13_30)">
<path d="M285 4H7.99999V132.16H146.5L225.643 182V132.16H285V4Z" fill="white"/>
<path d="M285 4H7.99999V132.16H146.5L225.643 182V132.16H285V4Z" stroke="black" stroke-width="6.20088" stroke-linecap="round" stroke-linejoin="round"/>
</g>
<path d="M52.2912 61L55.9632 41.56H60.8592L64.4832 61H60.5232L59.8752 56.896H57.0192L56.3472 61H52.2912ZM57.4032 54.328H59.4672L58.4352 46.744L57.4032 54.328ZM66.518 61V41.56H70.814V49.432H73.814V41.56H78.134V61H73.814V52.504H70.814V61H66.518ZM86.6624 61.288C85.2064 61.288 84.0544 61.032 83.2064 60.52C82.3584 60.008 81.7504 59.272 81.3824 58.312C81.0144 57.352 80.8304 56.208 80.8304 54.88V47.656C80.8304 46.312 81.0144 45.168 81.3824 44.224C81.7504 43.28 82.3584 42.56 83.2064 42.064C84.0544 41.552 85.2064 41.296 86.6624 41.296C88.1344 41.296 89.2944 41.552 90.1424 42.064C91.0064 42.56 91.6224 43.28 91.9904 44.224C92.3584 45.168 92.5424 46.312 92.5424 47.656V54.88C92.5424 56.208 92.3584 57.352 91.9904 58.312C91.6224 59.272 91.0064 60.008 90.1424 60.52C89.2944 61.032 88.1344 61.288 86.6624 61.288ZM86.6624 58.24C87.1104 58.24 87.4384 58.128 87.6464 57.904C87.8544 57.68 87.9904 57.392 88.0544 57.04C88.1184 56.688 88.1504 56.328 88.1504 55.96V46.6C88.1504 46.216 88.1184 45.856 88.0544 45.52C87.9904 45.168 87.8544 44.88 87.6464 44.656C87.4384 44.432 87.1104 44.32 86.6624 44.32C86.2464 44.32 85.9344 44.432 85.7264 44.656C85.5184 44.88 85.3824 45.168 85.3184 45.52C85.2544 45.856 85.2224 46.216 85.2224 46.6V55.96C85.2224 56.328 85.2464 56.688 85.2944 57.04C85.3584 57.392 85.4864 57.68 85.6784 57.904C85.8864 58.128 86.2144 58.24 86.6624 58.24ZM100.725 61.288C99.2689 61.288 98.1169 61.032 97.2689 60.52C96.4209 60.008 95.8129 59.272 95.4449 58.312C95.0769 57.352 94.8929 56.208 94.8929 54.88V47.656C94.8929 46.312 95.0769 45.168 95.4449 44.224C95.8129 43.28 96.4209 42.56 97.2689 42.064C98.1169 41.552 99.2689 41.296 100.725 41.296C102.197 41.296 103.357 41.552 104.205 42.064C105.069 42.56 105.685 43.28 106.053 44.224C106.421 45.168 106.605 46.312 106.605 47.656V54.88C106.605 56.208 106.421 57.352 106.053 58.312C105.685 59.272 105.069 60.008 104.205 60.52C103.357 61.032 102.197 61.288 100.725 61.288ZM100.725 58.24C101.173 58.24 101.501 58.128 101.709 57.904C101.917 57.68 102.053 57.392 102.117 57.04C102.181 56.688 102.213 56.328 102.213 55.96V46.6C102.213 46.216 102.181 45.856 102.117 45.52C102.053 45.168 101.917 44.88 101.709 44.656C101.501 44.432 101.173 44.32 100.725 44.32C100.309 44.32 99.9969 44.432 99.7889 44.656C99.5809 44.88 99.4449 45.168 99.3809 45.52C99.3169 45.856 99.2849 46.216 99.2849 46.6V55.96C99.2849 56.328 99.3089 56.688 99.3569 57.04C99.4209 57.392 99.5489 57.68 99.7409 57.904C99.9489 58.128 100.277 58.24 100.725 58.24ZM110.779 61L108.427 41.56H112.075L113.227 52.888L114.691 41.584H117.547L119.083 52.816L120.259 41.56H123.859L121.531 61H117.787L116.131 49.264L114.571 61H110.779ZM127.514 61L125.162 41.56H128.81L129.962 52.888L131.426 41.584H134.282L135.818 52.816L136.994 41.56H140.594L138.266 61H134.522L132.866 49.264L131.306 61H127.514ZM144.248 61L141.896 41.56H145.544L146.696 52.888L148.16 41.584H151.016L152.552 52.816L153.728 41.56H157.328L155 61H151.256L149.6 49.264L148.04 61H144.248ZM157.971 61L161.643 41.56H166.539L170.163 61H166.203L165.555 56.896H162.699L162.027 61H157.971ZM163.083 54.328H165.147L164.115 46.744L163.083 54.328ZM171.19 61L174.862 41.56H179.758L183.382 61H179.422L178.774 56.896H175.918L175.246 61H171.19ZM176.302 54.328H178.366L177.334 46.744L176.302 54.328ZM184.408 61L188.08 41.56H192.976L196.6 61H192.64L191.992 56.896H189.136L188.464 61H184.408ZM189.52 54.328H191.584L190.552 46.744L189.52 54.328ZM198.563 61V41.56H203.915C205.227 41.56 206.363 41.704 207.323 41.992C208.283 42.28 209.027 42.8 209.555 43.552C210.099 44.288 210.371 45.336 210.371 46.696C210.371 47.496 210.307 48.208 210.179 48.832C210.051 49.456 209.811 50 209.459 50.464C209.123 50.912 208.635 51.288 207.995 51.592L210.659 61H206.219L204.083 52.288H202.859V61H198.563ZM202.859 49.816H204.059C204.667 49.816 205.139 49.712 205.475 49.504C205.811 49.28 206.043 48.968 206.171 48.568C206.315 48.152 206.387 47.656 206.387 47.08C206.387 46.248 206.235 45.6 205.931 45.136C205.627 44.672 205.067 44.44 204.251 44.44H202.859V49.816ZM212.954 61V41.56H218.306C219.618 41.56 220.754 41.704 221.714 41.992C222.674 42.28 223.418 42.8 223.946 43.552C224.49 44.288 224.762 45.336 224.762 46.696C224.762 47.496 224.698 48.208 224.57 48.832C224.442 49.456 224.202 50 223.85 50.464C223.514 50.912 223.026 51.288 222.386 51.592L225.05 61H220.61L218.474 52.288H217.25V61H212.954ZM217.25 49.816H218.45C219.058 49.816 219.53 49.712 219.866 49.504C220.202 49.28 220.434 48.968 220.562 48.568C220.706 48.152 220.778 47.656 220.778 47.08C220.778 46.248 220.626 45.6 220.322 45.136C220.018 44.672 219.458 44.44 218.642 44.44H217.25V49.816ZM227.344 61V41.56H232.696C234.008 41.56 235.144 41.704 236.104 41.992C237.064 42.28 237.808 42.8 238.336 43.552C238.88 44.288 239.152 45.336 239.152 46.696C239.152 47.496 239.088 48.208 238.96 48.832C238.832 49.456 238.592 50 238.24 50.464C237.904 50.912 237.416 51.288 236.776 51.592L239.44 61H235L232.864 52.288H231.64V61H227.344ZM231.64 49.816H232.84C233.448 49.816 233.92 49.712 234.256 49.504C234.592 49.28 234.824 48.968 234.952 48.568C235.096 48.152 235.168 47.656 235.168 47.08C235.168 46.248 235.016 45.6 234.712 45.136C234.408 44.672 233.848 44.44 233.032 44.44H231.64V49.816ZM89.0177 93L86.6657 73.56H90.3137L91.4657 84.888L92.9297 73.584H95.7857L97.3217 84.816L98.4977 73.56H102.098L99.7697 93H96.0257L94.3697 81.264L92.8097 93H89.0177ZM102.74 93L106.412 73.56H111.308L114.932 93H110.972L110.324 88.896H107.468L106.796 93H102.74ZM107.852 86.328H109.916L108.884 78.744L107.852 86.328ZM115.959 93L119.631 73.56H124.527L128.151 93H124.191L123.543 88.896H120.687L120.015 93H115.959ZM121.071 86.328H123.135L122.103 78.744L121.071 86.328ZM130.114 93V73.56H135.466C136.778 73.56 137.914 73.704 138.874 73.992C139.834 74.28 140.578 74.8 141.106 75.552C141.65 76.288 141.922 77.336 141.922 78.696C141.922 79.496 141.858 80.208 141.73 80.832C141.602 81.456 141.362 82 141.01 82.464C140.674 82.912 140.186 83.288 139.546 83.592L142.21 93H137.77L135.634 84.288H134.41V93H130.114ZM134.41 81.816H135.61C136.218 81.816 136.69 81.712 137.026 81.504C137.362 81.28 137.594 80.968 137.722 80.568C137.866 80.152 137.938 79.656 137.938 79.08C137.938 78.248 137.786 77.6 137.482 77.136C137.178 76.672 136.618 76.44 135.802 76.44H134.41V81.816ZM144.577 93V73.56H148.873V81.432H151.873V73.56H156.193V93H151.873V84.504H148.873V93H144.577ZM164.721 93.288C163.265 93.288 162.113 93.032 161.265 92.52C160.417 92.008 159.809 91.272 159.441 90.312C159.073 89.352 158.889 88.208 158.889 86.88V79.656C158.889 78.312 159.073 77.168 159.441 76.224C159.809 75.28 160.417 74.56 161.265 74.064C162.113 73.552 163.265 73.296 164.721 73.296C166.193 73.296 167.353 73.552 168.201 74.064C169.065 74.56 169.681 75.28 170.049 76.224C170.417 77.168 170.601 78.312 170.601 79.656V86.88C170.601 88.208 170.417 89.352 170.049 90.312C169.681 91.272 169.065 92.008 168.201 92.52C167.353 93.032 166.193 93.288 164.721 93.288ZM164.721 90.24C165.169 90.24 165.497 90.128 165.705 89.904C165.913 89.68 166.049 89.392 166.113 89.04C166.177 88.688 166.209 88.328 166.209 87.96V78.6C166.209 78.216 166.177 77.856 166.113 77.52C166.049 77.168 165.913 76.88 165.705 76.656C165.497 76.432 165.169 76.32 164.721 76.32C164.305 76.32 163.993 76.432 163.785 76.656C163.577 76.88 163.441 77.168 163.377 77.52C163.313 77.856 163.281 78.216 163.281 78.6V87.96C163.281 88.328 163.305 88.688 163.353 89.04C163.417 89.392 163.545 89.68 163.737 89.904C163.945 90.128 164.273 90.24 164.721 90.24ZM178.784 93.288C177.328 93.288 176.176 93.032 175.328 92.52C174.48 92.008 173.872 91.272 173.504 90.312C173.136 89.352 172.952 88.208 172.952 86.88V79.656C172.952 78.312 173.136 77.168 173.504 76.224C173.872 75.28 174.48 74.56 175.328 74.064C176.176 73.552 177.328 73.296 178.784 73.296C180.256 73.296 181.416 73.552 182.264 74.064C183.128 74.56 183.744 75.28 184.112 76.224C184.48 77.168 184.664 78.312 184.664 79.656V86.88C184.664 88.208 184.48 89.352 184.112 90.312C183.744 91.272 183.128 92.008 182.264 92.52C181.416 93.032 180.256 93.288 178.784 93.288ZM178.784 90.24C179.232 90.24 179.56 90.128 179.768 89.904C179.976 89.68 180.112 89.392 180.176 89.04C180.24 88.688 180.272 88.328 180.272 87.96V78.6C180.272 78.216 180.24 77.856 180.176 77.52C180.112 77.168 179.976 76.88 179.768 76.656C179.56 76.432 179.232 76.32 178.784 76.32C178.368 76.32 178.056 76.432 177.848 76.656C177.64 76.88 177.504 77.168 177.44 77.52C177.376 77.856 177.344 78.216 177.344 78.6V87.96C177.344 88.328 177.368 88.688 177.416 89.04C177.48 89.392 177.608 89.68 177.8 89.904C178.008 90.128 178.336 90.24 178.784 90.24ZM192.846 93.288C191.39 93.288 190.238 93.032 189.39 92.52C188.542 92.008 187.934 91.272 187.566 90.312C187.198 89.352 187.014 88.208 187.014 86.88V79.656C187.014 78.312 187.198 77.168 187.566 76.224C187.934 75.28 188.542 74.56 189.39 74.064C190.238 73.552 191.39 73.296 192.846 73.296C194.318 73.296 195.478 73.552 196.326 74.064C197.19 74.56 197.806 75.28 198.174 76.224C198.542 77.168 198.726 78.312 198.726 79.656V86.88C198.726 88.208 198.542 89.352 198.174 90.312C197.806 91.272 197.19 92.008 196.326 92.52C195.478 93.032 194.318 93.288 192.846 93.288ZM192.846 90.24C193.294 90.24 193.622 90.128 193.83 89.904C194.038 89.68 194.174 89.392 194.238 89.04C194.302 88.688 194.334 88.328 194.334 87.96V78.6C194.334 78.216 194.302 77.856 194.238 77.52C194.174 77.168 194.038 76.88 193.83 76.656C193.622 76.432 193.294 76.32 192.846 76.32C192.43 76.32 192.118 76.432 191.91 76.656C191.702 76.88 191.566 77.168 191.502 77.52C191.438 77.856 191.406 78.216 191.406 78.6V87.96C191.406 88.328 191.43 88.688 191.478 89.04C191.542 89.392 191.67 89.68 191.862 89.904C192.07 90.128 192.398 90.24 192.846 90.24ZM202.205 88.056L201.077 73.608H204.965L203.549 88.056H202.205ZM201.005 93V89.352H204.701V93H201.005Z" fill="black"/>
<defs>
<filter id="filter0_d_13_30" x="0.899548" y="0.899658" width="291.201" height="192.201" filterUnits="userSpaceOnUse" color-interpolation-filters="sRGB">
<feFlood flood-opacity="0" result="BackgroundImageFix"/>
<feColorMatrix in="SourceAlpha" type="matrix" values="0 0 0 0 0 0 0 0 0 0 0 0 0 0 0 0 0 0 127 0" result="hardAlpha"/>
<feOffset dy="4"/>
<feGaussianBlur stdDeviation="2"/>
<feComposite in2="hardAlpha" operator="out"/>
<feColorMatrix type="matrix" values="0 0 0 0 0 0 0 0 0 0 0 0 0 0 0 0 0 0 0.25 0"/>
<feBlend mode="normal" in2="BackgroundImageFix" result="effect1_dropShadow_13_30"/>
<feBlend mode="normal" in="SourceGraphic" in2="effect1_dropShadow_13_30" result="shape"/>
</filter>
</defs>
</svg>
