<svg width="297" height="204" viewBox="0 0 297 204" fill="none" xmlns="http://www.w3.org/2000/svg">
<path d="M4 4.00024H293V145.12H148.5L65.9286 200V145.12H4V4.00024Z" fill="white" stroke="black" stroke-width="6.20088" stroke-linecap="round" stroke-linejoin="round"/>
<path d="M30.808 47.0002V39.0082C30.008 39.1202 29.224 39.1762 28.456 39.1762C27.528 39.1762 26.648 39.0002 25.816 38.6482C25 38.2802 24.336 37.7522 23.824 37.0642C23.312 36.3602 23.056 35.5042 23.056 34.4962V27.5602H27.352V34.4722C27.352 34.8722 27.392 35.2322 27.472 35.5522C27.568 35.8562 27.776 36.0962 28.096 36.2722C28.432 36.4482 28.952 36.5362 29.656 36.5362C29.832 36.5362 30.016 36.5282 30.208 36.5122C30.4 36.4962 30.6 36.4722 30.808 36.4402V27.5602H35.104V47.0002H30.808ZM38.233 51.0322V48.3202C38.729 48.3202 39.137 48.2882 39.457 48.2242C39.793 48.1602 40.041 48.0402 40.201 47.8642C40.377 47.6882 40.465 47.4482 40.465 47.1442C40.465 46.8722 40.417 46.5442 40.321 46.1602C40.225 45.7602 40.105 45.3122 39.961 44.8162L36.697 33.1282H40.369L42.121 41.1442L43.441 33.1282H47.137L43.945 47.3362C43.737 48.2962 43.409 49.0402 42.961 49.5682C42.513 50.1122 41.961 50.4882 41.305 50.6962C40.665 50.9202 39.937 51.0322 39.121 51.0322H38.233ZM48.6308 47.0002V33.1282H52.5428V47.0002H48.6308ZM48.6068 30.7762V28.0642H52.5428V30.7762H48.6068ZM56.0384 42.0562L54.9104 27.6082H58.7984L57.3824 42.0562H56.0384ZM54.8384 47.0002V43.3522H58.5344V47.0002H54.8384ZM67.5511 47.0002V27.5602H71.8471V35.4322H74.8471V27.5602H79.1671V47.0002H74.8471V38.5042H71.8471V47.0002H67.5511ZM84.7675 47.2402C84.0635 47.2402 83.4715 47.0722 82.9915 46.7362C82.5115 46.4002 82.1515 45.9762 81.9115 45.4642C81.6715 44.9362 81.5515 44.4002 81.5515 43.8562C81.5515 42.9922 81.7195 42.2642 82.0555 41.6722C82.4075 41.0802 82.8635 40.5842 83.4235 40.1842C83.9835 39.7842 84.5995 39.4482 85.2715 39.1762C85.9435 38.8882 86.6075 38.6322 87.2635 38.4082V37.0162C87.2635 36.7762 87.2395 36.5682 87.1915 36.3922C87.1435 36.2002 87.0635 36.0562 86.9515 35.9602C86.8395 35.8482 86.6715 35.7922 86.4475 35.7922C86.2235 35.7922 86.0475 35.8402 85.9195 35.9362C85.8075 36.0322 85.7275 36.1682 85.6795 36.3442C85.6315 36.5042 85.5995 36.6882 85.5835 36.8962L85.4875 37.9042L81.8395 37.7602C81.9195 36.0962 82.3595 34.8722 83.1595 34.0882C83.9755 33.2882 85.1915 32.8882 86.8075 32.8882C88.2155 32.8882 89.2635 33.2802 89.9515 34.0642C90.6555 34.8322 91.0075 35.8322 91.0075 37.0642V43.5442C91.0075 44.1202 91.0155 44.6242 91.0315 45.0562C91.0635 45.4882 91.0955 45.8642 91.1275 46.1842C91.1755 46.5042 91.2155 46.7762 91.2475 47.0002H87.7435C87.6955 46.6322 87.6395 46.2322 87.5755 45.8002C87.5115 45.3682 87.4635 45.1122 87.4315 45.0322C87.2715 45.6082 86.9675 46.1202 86.5195 46.5682C86.0875 47.0162 85.5035 47.2402 84.7675 47.2402ZM86.1595 44.6002C86.3195 44.6002 86.4635 44.5682 86.5915 44.5042C86.7355 44.4402 86.8635 44.3522 86.9755 44.2402C87.0875 44.1282 87.1835 44.0162 87.2635 43.9042V40.1122C86.9435 40.3042 86.6475 40.5042 86.3755 40.7122C86.1035 40.9042 85.8715 41.1202 85.6795 41.3602C85.4875 41.6002 85.3355 41.8642 85.2235 42.1522C85.1275 42.4242 85.0795 42.7362 85.0795 43.0882C85.0795 43.5522 85.1755 43.9202 85.3675 44.1922C85.5595 44.4642 85.8235 44.6002 86.1595 44.6002ZM93.3256 51.5602V33.1282H97.2376V34.1362C97.7016 33.7202 98.1976 33.4082 98.7256 33.2002C99.2536 32.9922 99.7576 32.8882 100.238 32.8882C100.766 32.8882 101.214 32.9922 101.582 33.2002C101.966 33.4082 102.278 33.7042 102.518 34.0882C102.758 34.4562 102.934 34.8882 103.046 35.3842C103.158 35.8802 103.214 36.4082 103.214 36.9682V42.9442C103.214 43.8082 103.094 44.5602 102.854 45.2002C102.63 45.8402 102.294 46.3442 101.846 46.7122C101.398 47.0642 100.846 47.2402 100.19 47.2402C99.6936 47.2402 99.1896 47.1282 98.6776 46.9042C98.1816 46.6642 97.7016 46.3442 97.2376 45.9442V51.5602H93.3256ZM98.2696 44.7202C98.5256 44.7202 98.7256 44.6482 98.8696 44.5042C99.0136 44.3602 99.1176 44.1762 99.1816 43.9522C99.2616 43.7122 99.3016 43.4482 99.3016 43.1602V36.6802C99.3016 36.4082 99.2696 36.1682 99.2056 35.9602C99.1416 35.7362 99.0376 35.5602 98.8936 35.4322C98.7496 35.3042 98.5656 35.2402 98.3416 35.2402C98.1336 35.2402 97.9336 35.2882 97.7416 35.3842C97.5656 35.4642 97.3976 35.5762 97.2376 35.7202V44.3602C97.4136 44.4722 97.5816 44.5602 97.7416 44.6242C97.9176 44.6882 98.0936 44.7202 98.2696 44.7202ZM109.979 47.2402C108.971 47.2402 108.107 47.0642 107.387 46.7122C106.667 46.3442 106.115 45.8162 105.731 45.1282C105.347 44.4242 105.155 43.5842 105.155 42.6082V37.5202C105.155 36.5282 105.347 35.6882 105.731 35.0002C106.115 34.3122 106.667 33.7922 107.387 33.4402C108.123 33.0722 108.987 32.8882 109.979 32.8882C111.003 32.8882 111.851 33.0642 112.523 33.4162C113.211 33.7682 113.723 34.2882 114.059 34.9762C114.411 35.6642 114.587 36.5122 114.587 37.5202V40.3042H109.019V42.9682C109.019 43.3202 109.059 43.6082 109.139 43.8322C109.219 44.0562 109.331 44.2162 109.475 44.3122C109.619 44.4082 109.787 44.4562 109.979 44.4562C110.171 44.4562 110.339 44.4162 110.483 44.3362C110.643 44.2402 110.763 44.0962 110.843 43.9042C110.939 43.7122 110.987 43.4482 110.987 43.1122V41.6482H114.587V42.9922C114.587 44.4002 114.179 45.4642 113.363 46.1842C112.547 46.8882 111.419 47.2402 109.979 47.2402ZM109.019 38.4802H110.987V37.0882C110.987 36.7202 110.939 36.4322 110.843 36.2242C110.763 36.0162 110.643 35.8722 110.483 35.7922C110.339 35.7122 110.163 35.6722 109.955 35.6722C109.763 35.6722 109.595 35.7202 109.451 35.8162C109.323 35.9122 109.219 36.0802 109.139 36.3202C109.059 36.5442 109.019 36.8722 109.019 37.3042V38.4802ZM116.692 47.0002V33.1282H120.34V44.3602H122.188V33.1282H125.836V44.3602H127.684V33.1282H131.332V47.0002H116.692ZM135.482 47.0002V35.7682H132.962V33.1282H141.89V35.7682H139.37V47.0002H135.482ZM143.553 47.0002V33.1282H147.465V47.0002H143.553ZM143.529 30.7762V28.0642H147.465V30.7762H143.529ZM160.149 47.2642C159.189 47.2642 158.413 47.1362 157.821 46.8802C157.245 46.6082 156.797 46.2482 156.477 45.8002C156.173 45.3362 155.965 44.8162 155.853 44.2402C155.757 43.6482 155.709 43.0322 155.709 42.3922H158.805C158.805 43.1282 158.917 43.6802 159.141 44.0482C159.381 44.4002 159.749 44.5762 160.245 44.5762C160.613 44.5762 160.893 44.4962 161.085 44.3362C161.277 44.1762 161.405 43.9522 161.469 43.6642C161.549 43.3762 161.589 43.0562 161.589 42.7042C161.589 42.2402 161.501 41.8722 161.325 41.6002C161.165 41.3282 160.893 41.1362 160.509 41.0242C160.141 40.8962 159.637 40.8322 158.997 40.8322V38.8162C159.957 38.8162 160.581 38.6882 160.869 38.4322C161.173 38.1762 161.325 37.7282 161.325 37.0882C161.325 36.6242 161.229 36.2562 161.037 35.9842C160.861 35.7122 160.541 35.5762 160.077 35.5762C159.581 35.5762 159.229 35.7202 159.021 36.0082C158.829 36.2802 158.733 36.7682 158.733 37.4722H155.661C155.661 36.6402 155.789 35.8802 156.045 35.1922C156.301 34.4882 156.757 33.9282 157.413 33.5122C158.085 33.0962 159.037 32.8882 160.269 32.8882C161.357 32.8882 162.237 33.0642 162.909 33.4162C163.597 33.7522 164.093 34.2162 164.397 34.8082C164.717 35.3842 164.877 36.0402 164.877 36.7762C164.877 37.3842 164.781 37.8962 164.589 38.3122C164.397 38.7282 164.149 39.0562 163.845 39.2962C163.541 39.5202 163.205 39.6882 162.837 39.8002C163.237 39.9442 163.589 40.1362 163.893 40.3762C164.213 40.6162 164.469 40.9602 164.661 41.4082C164.853 41.8402 164.949 42.4322 164.949 43.1842C164.949 44.3522 164.573 45.3282 163.821 46.1122C163.069 46.8802 161.845 47.2642 160.149 47.2642ZM167.21 51.0322V48.3202C167.706 48.3202 168.114 48.2882 168.434 48.2242C168.77 48.1602 169.018 48.0402 169.178 47.8642C169.354 47.6882 169.442 47.4482 169.442 47.1442C169.442 46.8722 169.394 46.5442 169.298 46.1602C169.202 45.7602 169.082 45.3122 168.938 44.8162L165.674 33.1282H169.346L171.098 41.1442L172.418 33.1282H176.114L172.922 47.3362C172.714 48.2962 172.386 49.0402 171.938 49.5682C171.49 50.1122 170.938 50.4882 170.282 50.6962C169.642 50.9202 168.914 51.0322 168.098 51.0322H167.21ZM182.095 47.2402C181.087 47.2402 180.223 47.0562 179.503 46.6882C178.799 46.3202 178.255 45.7922 177.871 45.1042C177.487 44.4162 177.295 43.5842 177.295 42.6082V37.5202C177.295 36.5282 177.487 35.6882 177.871 35.0002C178.255 34.3122 178.799 33.7922 179.503 33.4402C180.223 33.0722 181.087 32.8882 182.095 32.8882C183.087 32.8882 183.927 33.0402 184.615 33.3442C185.319 33.6482 185.855 34.1122 186.223 34.7362C186.591 35.3442 186.775 36.1202 186.775 37.0642V38.5282H183.007V36.9442C183.007 36.5762 182.967 36.2962 182.887 36.1042C182.823 35.8962 182.719 35.7522 182.575 35.6722C182.447 35.5922 182.287 35.5522 182.095 35.5522C181.903 35.5522 181.743 35.6082 181.615 35.7202C181.487 35.8162 181.391 35.9842 181.327 36.2242C181.263 36.4482 181.231 36.7682 181.231 37.1842V42.9442C181.231 43.5682 181.303 43.9922 181.447 44.2162C181.607 44.4402 181.831 44.5522 182.119 44.5522C182.327 44.5522 182.495 44.5122 182.623 44.4322C182.751 44.3362 182.847 44.1922 182.911 44.0002C182.975 43.7922 183.007 43.5202 183.007 43.1842V41.3362H186.775V43.0162C186.775 43.9442 186.583 44.7282 186.199 45.3682C185.831 45.9922 185.295 46.4642 184.591 46.7842C183.903 47.0882 183.071 47.2402 182.095 47.2402ZM190.49 47.0002V35.7682H187.97V33.1282H196.898V35.7682H194.378V47.0002H190.49ZM198.537 51.5602V33.1282H202.449V34.1362C202.913 33.7202 203.409 33.4082 203.937 33.2002C204.465 32.9922 204.969 32.8882 205.449 32.8882C205.977 32.8882 206.425 32.9922 206.793 33.2002C207.177 33.4082 207.489 33.7042 207.729 34.0882C207.969 34.4562 208.145 34.8882 208.257 35.3842C208.369 35.8802 208.425 36.4082 208.425 36.9682V42.9442C208.425 43.8082 208.305 44.5602 208.065 45.2002C207.841 45.8402 207.505 46.3442 207.057 46.7122C206.609 47.0642 206.057 47.2402 205.401 47.2402C204.905 47.2402 204.401 47.1282 203.889 46.9042C203.393 46.6642 202.913 46.3442 202.449 45.9442V51.5602H198.537ZM203.48 44.7202C203.737 44.7202 203.937 44.6482 204.081 44.5042C204.225 44.3602 204.329 44.1762 204.393 43.9522C204.473 43.7122 204.513 43.4482 204.513 43.1602V36.6802C204.513 36.4082 204.481 36.1682 204.417 35.9602C204.353 35.7362 204.249 35.5602 204.105 35.4322C203.961 35.3042 203.777 35.2402 203.553 35.2402C203.345 35.2402 203.145 35.2882 202.953 35.3842C202.777 35.4642 202.609 35.5762 202.449 35.7202V44.3602C202.625 44.4722 202.793 44.5602 202.953 44.6242C203.129 44.6882 203.305 44.7202 203.48 44.7202ZM210.678 47.0002V33.1282H214.59V47.0002H210.678ZM210.654 30.7762V28.0642H214.59V30.7762H210.654ZM216.093 47.1442V44.3842C216.605 44.3842 217.021 44.3042 217.341 44.1442C217.677 43.9842 217.941 43.7122 218.133 43.3282C218.341 42.9282 218.501 42.3922 218.613 41.7202C218.725 41.0322 218.821 40.1602 218.901 39.1042L219.357 33.1282H228.165V47.0002H224.253V35.7682H222.669L222.333 39.8722C222.221 41.3122 222.061 42.5042 221.853 43.4482C221.645 44.3922 221.341 45.1362 220.941 45.6802C220.541 46.2082 220.005 46.5842 219.333 46.8082C218.661 47.0322 217.805 47.1442 216.765 47.1442H216.093ZM230.622 47.0002V33.1282H233.718V40.5442L237.342 33.1282H240.39V47.0002H237.222V39.6562L233.694 47.0002H230.622ZM247.322 47.2402C246.314 47.2402 245.45 47.0562 244.73 46.6882C244.026 46.3202 243.482 45.7922 243.098 45.1042C242.714 44.4162 242.522 43.5842 242.522 42.6082V37.5202C242.522 36.5282 242.714 35.6882 243.098 35.0002C243.482 34.3122 244.026 33.7922 244.73 33.4402C245.45 33.0722 246.314 32.8882 247.322 32.8882C248.314 32.8882 249.154 33.0402 249.842 33.3442C250.546 33.6482 251.082 34.1122 251.45 34.7362C251.818 35.3442 252.002 36.1202 252.002 37.0642V38.5282H248.234V36.9442C248.234 36.5762 248.194 36.2962 248.114 36.1042C248.05 35.8962 247.946 35.7522 247.802 35.6722C247.674 35.5922 247.514 35.5522 247.322 35.5522C247.13 35.5522 246.97 35.6082 246.842 35.7202C246.714 35.8162 246.618 35.9842 246.554 36.2242C246.49 36.4482 246.458 36.7682 246.458 37.1842V42.9442C246.458 43.5682 246.53 43.9922 246.674 44.2162C246.834 44.4402 247.058 44.5522 247.346 44.5522C247.554 44.5522 247.722 44.5122 247.85 44.4322C247.978 44.3362 248.074 44.1922 248.138 44.0002C248.202 43.7922 248.234 43.5202 248.234 43.1842V41.3362H252.002V43.0162C252.002 43.9442 251.81 44.7282 251.426 45.3682C251.058 45.9922 250.522 46.4642 249.818 46.7842C249.13 47.0882 248.298 47.2402 247.322 47.2402ZM253.221 47.0002L255.381 41.2402C255.013 41.0322 254.701 40.7442 254.445 40.3762C254.189 40.0082 253.997 39.5762 253.869 39.0802C253.741 38.5842 253.677 38.0482 253.677 37.4722C253.677 36.8322 253.765 36.2482 253.941 35.7202C254.133 35.1922 254.429 34.7362 254.829 34.3522C255.245 33.9682 255.781 33.6722 256.437 33.4642C257.093 33.2402 257.885 33.1282 258.812 33.1282H263.973V47.0002H260.085V42.0562C260.021 42.0562 259.845 42.0562 259.557 42.0562C259.269 42.0402 259.053 42.0242 258.909 42.0082L257.349 47.0002H253.221ZM259.917 39.7522C259.949 39.7522 259.981 39.7522 260.013 39.7522C260.045 39.7522 260.069 39.7522 260.085 39.7522V35.3362C260.069 35.3362 260.045 35.3362 260.013 35.3362C259.981 35.3362 259.949 35.3362 259.917 35.3362C259.325 35.3362 258.829 35.4162 258.429 35.5762C258.029 35.7362 257.725 35.9762 257.517 36.2962C257.325 36.6002 257.229 36.9842 257.229 37.4482C257.229 38.2322 257.461 38.8082 257.925 39.1762C258.405 39.5442 259.069 39.7362 259.917 39.7522ZM267.492 42.0562L266.364 27.6082H270.252L268.836 42.0562H267.492ZM266.292 47.0002V43.3522H269.988V47.0002H266.292ZM23.272 98.8162V95.9842C23.96 96.0002 24.56 95.9682 25.072 95.8882C25.584 95.8082 26 95.6562 26.32 95.4322C26.64 95.2082 26.848 94.9042 26.944 94.5202C27.056 94.1202 27.04 93.6242 26.896 93.0322L22.528 75.5602H26.512L28.192 83.5522L28.984 88.7602L29.56 83.5282L30.976 75.5602H35.008L30.976 93.6802C30.784 94.5602 30.56 95.3042 30.304 95.9122C30.048 96.5202 29.728 97.0162 29.344 97.4002C28.976 97.8002 28.52 98.1042 27.976 98.3122C27.432 98.5202 26.768 98.6562 25.984 98.7202C25.216 98.8002 24.312 98.8322 23.272 98.8162ZM42.6537 95.0002V81.1282H46.5657V86.5042H48.8937V81.1282H52.8297V95.0002H48.8937V89.1922H46.5657V95.0002H42.6537ZM58.1191 95.2402C57.4151 95.2402 56.8231 95.0722 56.3431 94.7362C55.8631 94.4002 55.5031 93.9762 55.2631 93.4642C55.0231 92.9362 54.9031 92.4002 54.9031 91.8562C54.9031 90.9922 55.0711 90.2642 55.4071 89.6722C55.7591 89.0802 56.2151 88.5842 56.7751 88.1842C57.3351 87.7842 57.9511 87.4482 58.6231 87.1762C59.2951 86.8882 59.9591 86.6322 60.6151 86.4082V85.0162C60.6151 84.7762 60.5911 84.5682 60.5431 84.3922C60.4951 84.2002 60.4151 84.0562 60.3031 83.9602C60.1911 83.8482 60.0231 83.7922 59.7991 83.7922C59.5751 83.7922 59.3991 83.8402 59.2711 83.9362C59.1591 84.0322 59.0791 84.1682 59.0311 84.3442C58.9831 84.5042 58.9511 84.6882 58.9351 84.8962L58.8391 85.9042L55.1911 85.7602C55.2711 84.0962 55.7111 82.8722 56.5111 82.0882C57.3271 81.2882 58.5431 80.8882 60.1591 80.8882C61.5671 80.8882 62.6151 81.2802 63.3031 82.0642C64.0071 82.8322 64.3591 83.8322 64.3591 85.0642V91.5442C64.3591 92.1202 64.3671 92.6242 64.3831 93.0562C64.4151 93.4882 64.4471 93.8642 64.4791 94.1842C64.5271 94.5042 64.5671 94.7762 64.5991 95.0002H61.0951C61.0471 94.6322 60.9911 94.2322 60.9271 93.8002C60.8631 93.3682 60.8151 93.1122 60.7831 93.0322C60.6231 93.6082 60.3191 94.1202 59.8711 94.5682C59.4391 95.0162 58.8551 95.2402 58.1191 95.2402ZM59.5111 92.6002C59.6711 92.6002 59.8151 92.5682 59.9431 92.5042C60.0871 92.4402 60.2151 92.3522 60.3271 92.2402C60.4391 92.1282 60.5351 92.0162 60.6151 91.9042V88.1122C60.2951 88.3042 59.9991 88.5042 59.7271 88.7122C59.4551 88.9042 59.2231 89.1202 59.0311 89.3602C58.8391 89.6002 58.6871 89.8642 58.5751 90.1522C58.4791 90.4242 58.4311 90.7362 58.4311 91.0882C58.4311 91.5522 58.5271 91.9202 58.7191 92.1922C58.9111 92.4642 59.1751 92.6002 59.5111 92.6002ZM71.1891 95.2402C70.1811 95.2402 69.3171 95.0562 68.5971 94.6882C67.8931 94.3202 67.3491 93.7922 66.9651 93.1042C66.5811 92.4162 66.3891 91.5842 66.3891 90.6082V85.5202C66.3891 84.5282 66.5811 83.6882 66.9651 83.0002C67.3491 82.3122 67.8931 81.7922 68.5971 81.4402C69.3171 81.0722 70.1811 80.8882 71.1891 80.8882C72.1811 80.8882 73.0211 81.0402 73.7091 81.3442C74.4131 81.6482 74.9491 82.1122 75.3171 82.7362C75.6851 83.3442 75.8691 84.1202 75.8691 85.0642V86.5282H72.1011V84.9442C72.1011 84.5762 72.0611 84.2962 71.9811 84.1042C71.9171 83.8962 71.8131 83.7522 71.6691 83.6722C71.5411 83.5922 71.3811 83.5522 71.1891 83.5522C70.9971 83.5522 70.8371 83.6082 70.7091 83.7202C70.5811 83.8162 70.4851 83.9842 70.4211 84.2242C70.3571 84.4482 70.3251 84.7682 70.3251 85.1842V90.9442C70.3251 91.5682 70.3971 91.9922 70.5411 92.2162C70.7011 92.4402 70.9251 92.5522 71.2131 92.5522C71.4211 92.5522 71.5891 92.5122 71.7171 92.4322C71.8451 92.3362 71.9411 92.1922 72.0051 92.0002C72.0691 91.7922 72.1011 91.5202 72.1011 91.1842V89.3362H75.8691V91.0162C75.8691 91.9442 75.6771 92.7282 75.2931 93.3682C74.9251 93.9922 74.3891 94.4642 73.6851 94.7842C72.9971 95.0882 72.1651 95.2402 71.1891 95.2402ZM84.0443 95.0002V81.1282H88.9643C90.3563 81.1282 91.4043 81.2802 92.1083 81.5842C92.8123 81.8722 93.2843 82.2722 93.5243 82.7842C93.7643 83.2962 93.8843 83.8962 93.8843 84.5842C93.8843 85.4962 93.6843 86.1682 93.2843 86.6002C92.9003 87.0162 92.3883 87.3122 91.7483 87.4882C92.4203 87.6482 92.9323 87.8882 93.2843 88.2082C93.6363 88.5282 93.8763 88.9202 94.0043 89.3842C94.1483 89.8482 94.2203 90.3842 94.2203 90.9922C94.2203 91.8882 94.0523 92.6402 93.7163 93.2482C93.3803 93.8402 92.8123 94.2802 92.0123 94.5682C91.2123 94.8562 90.1243 95.0002 88.7483 95.0002H84.0443ZM87.9323 92.8402H88.5803C88.9323 92.8402 89.2443 92.8082 89.5163 92.7442C89.7883 92.6802 90.0043 92.5122 90.1643 92.2402C90.3403 91.9522 90.4283 91.4962 90.4283 90.8722C90.4283 90.1682 90.3483 89.6642 90.1883 89.3602C90.0443 89.0562 89.8363 88.8722 89.5643 88.8082C89.2923 88.7442 88.9723 88.7122 88.6043 88.7122H87.9323V92.8402ZM87.9323 86.6002H88.9163C89.3803 86.6002 89.7003 86.4562 89.8763 86.1682C90.0523 85.8642 90.1403 85.4482 90.1403 84.9202C90.1403 84.4082 90.0443 83.9842 89.8523 83.6482C89.6763 83.3122 89.2683 83.1442 88.6283 83.1442H87.9323V86.6002ZM96.1855 95.0002V81.1282H100.098V95.0002H96.1855ZM96.1615 78.7762V76.0642H100.098V78.7762H96.1615ZM102.057 98.7682V92.6242C102.585 92.3842 103.041 92.0722 103.425 91.6882C103.809 91.2882 104.137 90.8082 104.409 90.2482C104.681 89.6722 104.897 89.0082 105.057 88.2562C105.217 87.4882 105.329 86.6162 105.393 85.6402L105.801 81.1282H113.433V92.6002H115.449V98.7682H112.641L112.377 95.0002H105.129L104.913 98.7682H102.057ZM106.281 92.6002H109.857V83.4562H108.705L108.417 86.5762C108.369 87.4562 108.281 88.2242 108.153 88.8802C108.025 89.5202 107.865 90.0802 107.673 90.5602C107.497 91.0242 107.289 91.4242 107.049 91.7602C106.809 92.0802 106.553 92.3602 106.281 92.6002ZM117.091 95.0002V81.1282H126.931V95.0002H123.019V83.7922H121.003V95.0002H117.091ZM133.909 95.2402C132.917 95.2402 132.053 95.0722 131.317 94.7362C130.597 94.4002 130.037 93.8962 129.637 93.2242C129.253 92.5522 129.061 91.7122 129.061 90.7042V85.4242C129.061 84.4162 129.253 83.5762 129.637 82.9042C130.037 82.2322 130.597 81.7282 131.317 81.3922C132.053 81.0562 132.917 80.8882 133.909 80.8882C134.901 80.8882 135.757 81.0562 136.477 81.3922C137.213 81.7282 137.781 82.2322 138.181 82.9042C138.581 83.5762 138.781 84.4162 138.781 85.4242V90.7042C138.781 91.7122 138.581 92.5522 138.181 93.2242C137.781 93.8962 137.213 94.4002 136.477 94.7362C135.757 95.0722 134.901 95.2402 133.909 95.2402ZM133.933 92.6482C134.189 92.6482 134.389 92.5842 134.533 92.4562C134.677 92.3122 134.773 92.1202 134.821 91.8802C134.885 91.6242 134.917 91.3202 134.917 90.9682V85.1602C134.917 84.8082 134.885 84.5122 134.821 84.2722C134.773 84.0162 134.677 83.8242 134.533 83.6962C134.389 83.5522 134.189 83.4802 133.933 83.4802C133.677 83.4802 133.477 83.5522 133.333 83.6962C133.189 83.8242 133.085 84.0162 133.021 84.2722C132.957 84.5122 132.925 84.8082 132.925 85.1602V90.9682C132.925 91.3202 132.957 91.6242 133.021 91.8802C133.085 92.1202 133.189 92.3122 133.333 92.4562C133.477 92.5842 133.677 92.6482 133.933 92.6482ZM140.951 95.0002V81.1282H145.871C147.263 81.1282 148.311 81.2802 149.015 81.5842C149.719 81.8722 150.191 82.2722 150.431 82.7842C150.671 83.2962 150.791 83.8962 150.791 84.5842C150.791 85.4962 150.591 86.1682 150.191 86.6002C149.807 87.0162 149.295 87.3122 148.655 87.4882C149.327 87.6482 149.839 87.8882 150.191 88.2082C150.543 88.5282 150.783 88.9202 150.911 89.3842C151.055 89.8482 151.127 90.3842 151.127 90.9922C151.127 91.8882 150.959 92.6402 150.623 93.2482C150.287 93.8402 149.719 94.2802 148.919 94.5682C148.119 94.8562 147.031 95.0002 145.655 95.0002H140.951ZM144.839 92.8402H145.487C145.839 92.8402 146.151 92.8082 146.423 92.7442C146.695 92.6802 146.911 92.5122 147.071 92.2402C147.247 91.9522 147.335 91.4962 147.335 90.8722C147.335 90.1682 147.255 89.6642 147.095 89.3602C146.951 89.0562 146.743 88.8722 146.471 88.8082C146.199 88.7442 145.879 88.7122 145.511 88.7122H144.839V92.8402ZM144.839 86.6002H145.823C146.287 86.6002 146.607 86.4562 146.783 86.1682C146.959 85.8642 147.047 85.4482 147.047 84.9202C147.047 84.4082 146.951 83.9842 146.759 83.6482C146.583 83.3122 146.175 83.1442 145.535 83.1442H144.839V86.6002ZM153.092 95.0002V81.1282H157.004V95.0002H153.092ZM153.068 78.7762V76.0642H157.004V78.7762H153.068ZM158.963 98.7682V92.6242C159.491 92.3842 159.947 92.0722 160.331 91.6882C160.715 91.2882 161.043 90.8082 161.315 90.2482C161.587 89.6722 161.803 89.0082 161.963 88.2562C162.123 87.4882 162.235 86.6162 162.299 85.6402L162.707 81.1282H170.339V92.6002H172.355V98.7682H169.547L169.283 95.0002H162.035L161.819 98.7682H158.963ZM163.187 92.6002H166.763V83.4562H165.611L165.323 86.5762C165.275 87.4562 165.187 88.2242 165.059 88.8802C164.931 89.5202 164.771 90.0802 164.579 90.5602C164.403 91.0242 164.195 91.4242 163.955 91.7602C163.715 92.0802 163.459 92.3602 163.187 92.6002ZM176.853 95.2402C176.149 95.2402 175.557 95.0722 175.077 94.7362C174.597 94.4002 174.237 93.9762 173.997 93.4642C173.757 92.9362 173.637 92.4002 173.637 91.8562C173.637 90.9922 173.805 90.2642 174.141 89.6722C174.493 89.0802 174.949 88.5842 175.509 88.1842C176.069 87.7842 176.685 87.4482 177.357 87.1762C178.029 86.8882 178.693 86.6322 179.349 86.4082V85.0162C179.349 84.7762 179.325 84.5682 179.277 84.3922C179.229 84.2002 179.149 84.0562 179.037 83.9602C178.925 83.8482 178.757 83.7922 178.533 83.7922C178.309 83.7922 178.133 83.8402 178.005 83.9362C177.893 84.0322 177.813 84.1682 177.765 84.3442C177.717 84.5042 177.685 84.6882 177.669 84.8962L177.573 85.9042L173.925 85.7602C174.005 84.0962 174.445 82.8722 175.245 82.0882C176.061 81.2882 177.277 80.8882 178.893 80.8882C180.301 80.8882 181.349 81.2802 182.037 82.0642C182.741 82.8322 183.093 83.8322 183.093 85.0642V91.5442C183.093 92.1202 183.101 92.6242 183.117 93.0562C183.149 93.4882 183.181 93.8642 183.213 94.1842C183.261 94.5042 183.301 94.7762 183.333 95.0002H179.829C179.781 94.6322 179.725 94.2322 179.661 93.8002C179.597 93.3682 179.549 93.1122 179.517 93.0322C179.357 93.6082 179.053 94.1202 178.605 94.5682C178.173 95.0162 177.589 95.2402 176.853 95.2402ZM178.245 92.6002C178.405 92.6002 178.549 92.5682 178.677 92.5042C178.821 92.4402 178.949 92.3522 179.061 92.2402C179.173 92.1282 179.269 92.0162 179.349 91.9042V88.1122C179.029 88.3042 178.733 88.5042 178.461 88.7122C178.189 88.9042 177.957 89.1202 177.765 89.3602C177.573 89.6002 177.421 89.8642 177.309 90.1522C177.213 90.4242 177.165 90.7362 177.165 91.0882C177.165 91.5522 177.261 91.9202 177.453 92.1922C177.645 92.4642 177.909 92.6002 178.245 92.6002ZM184.5 95.1442V92.3842C185.012 92.3842 185.428 92.3042 185.748 92.1442C186.084 91.9842 186.348 91.7122 186.54 91.3282C186.748 90.9282 186.908 90.3922 187.02 89.7202C187.132 89.0322 187.228 88.1602 187.308 87.1042L187.764 81.1282H196.572V95.0002H192.66V83.7682H191.076L190.74 87.8722C190.628 89.3122 190.468 90.5042 190.26 91.4482C190.052 92.3922 189.748 93.1362 189.348 93.6802C188.948 94.2082 188.412 94.5842 187.74 94.8082C187.068 95.0322 186.212 95.1442 185.172 95.1442H184.5ZM199.029 95.0002V81.1282H202.941V86.6962C202.957 86.6962 202.965 86.6962 202.965 86.6962C202.981 86.6962 202.997 86.6962 203.013 86.6962C203.029 86.6962 203.045 86.6962 203.061 86.6962C204.021 86.6962 204.869 86.7602 205.605 86.8882C206.341 87.0162 206.949 87.2402 207.429 87.5602C207.925 87.8642 208.301 88.2802 208.557 88.8082C208.813 89.3202 208.941 89.9762 208.941 90.7762C208.941 91.5282 208.829 92.1762 208.605 92.7202C208.397 93.2482 208.053 93.6802 207.573 94.0162C207.109 94.3522 206.501 94.6002 205.749 94.7602C205.013 94.9202 204.125 95.0002 203.085 95.0002H199.029ZM202.941 92.7682H203.013C203.605 92.7682 204.069 92.7122 204.405 92.6002C204.757 92.4722 205.005 92.2722 205.149 92.0002C205.309 91.7122 205.389 91.3362 205.389 90.8722C205.389 90.3762 205.309 90.0002 205.149 89.7442C205.005 89.4722 204.757 89.2802 204.405 89.1682C204.069 89.0562 203.621 89.0002 203.061 89.0002C203.045 89.0002 203.021 89.0002 202.989 89.0002C202.973 89.0002 202.957 89.0002 202.941 89.0002V92.7682ZM210.841 95.0002V81.1282H214.753V86.5042H217.081V81.1282H221.017V95.0002H217.081V89.1922H214.753V95.0002H210.841ZM226.307 95.2402C225.603 95.2402 225.011 95.0722 224.531 94.7362C224.051 94.4002 223.691 93.9762 223.451 93.4642C223.211 92.9362 223.091 92.4002 223.091 91.8562C223.091 90.9922 223.259 90.2642 223.595 89.6722C223.947 89.0802 224.403 88.5842 224.963 88.1842C225.523 87.7842 226.139 87.4482 226.811 87.1762C227.483 86.8882 228.147 86.6322 228.803 86.4082V85.0162C228.803 84.7762 228.779 84.5682 228.731 84.3922C228.683 84.2002 228.603 84.0562 228.491 83.9602C228.379 83.8482 228.211 83.7922 227.987 83.7922C227.763 83.7922 227.587 83.8402 227.459 83.9362C227.347 84.0322 227.267 84.1682 227.219 84.3442C227.171 84.5042 227.139 84.6882 227.123 84.8962L227.027 85.9042L223.379 85.7602C223.459 84.0962 223.899 82.8722 224.699 82.0882C225.515 81.2882 226.731 80.8882 228.347 80.8882C229.755 80.8882 230.803 81.2802 231.491 82.0642C232.195 82.8322 232.547 83.8322 232.547 85.0642V91.5442C232.547 92.1202 232.555 92.6242 232.571 93.0562C232.603 93.4882 232.635 93.8642 232.667 94.1842C232.715 94.5042 232.755 94.7762 232.787 95.0002H229.283C229.235 94.6322 229.179 94.2322 229.115 93.8002C229.051 93.3682 229.003 93.1122 228.971 93.0322C228.811 93.6082 228.507 94.1202 228.059 94.5682C227.627 95.0162 227.043 95.2402 226.307 95.2402ZM227.699 92.6002C227.859 92.6002 228.003 92.5682 228.131 92.5042C228.275 92.4402 228.403 92.3522 228.515 92.2402C228.627 92.1282 228.723 92.0162 228.803 91.9042V88.1122C228.483 88.3042 228.187 88.5042 227.915 88.7122C227.643 88.9042 227.411 89.1202 227.219 89.3602C227.027 89.6002 226.875 89.8642 226.763 90.1522C226.667 90.4242 226.619 90.7362 226.619 91.0882C226.619 91.5522 226.715 91.9202 226.907 92.1922C227.099 92.4642 227.363 92.6002 227.699 92.6002ZM23.2 119L23.248 105.128H26.128L28.96 111.776L31.816 105.128H34.696L34.744 119H31.696V111.704L29.56 116.84H28.408L26.248 111.68V119H23.2ZM37.2168 119V105.128H41.1288V119H37.2168ZM37.1928 102.776V100.064H41.1288V102.776H37.1928ZM48.0563 119.24C47.0483 119.24 46.1843 119.056 45.4643 118.688C44.7603 118.32 44.2163 117.792 43.8323 117.104C43.4483 116.416 43.2563 115.584 43.2563 114.608V109.52C43.2563 108.528 43.4483 107.688 43.8323 107C44.2163 106.312 44.7603 105.792 45.4643 105.44C46.1843 105.072 47.0483 104.888 48.0563 104.888C49.0483 104.888 49.8883 105.04 50.5763 105.344C51.2803 105.648 51.8163 106.112 52.1843 106.736C52.5523 107.344 52.7363 108.12 52.7363 109.064V110.528H48.9683V108.944C48.9683 108.576 48.9283 108.296 48.8483 108.104C48.7843 107.896 48.6803 107.752 48.5363 107.672C48.4083 107.592 48.2483 107.552 48.0563 107.552C47.8643 107.552 47.7043 107.608 47.5763 107.72C47.4483 107.816 47.3523 107.984 47.2883 108.224C47.2243 108.448 47.1923 108.768 47.1923 109.184V114.944C47.1923 115.568 47.2643 115.992 47.4083 116.216C47.5683 116.44 47.7923 116.552 48.0803 116.552C48.2883 116.552 48.4563 116.512 48.5843 116.432C48.7123 116.336 48.8083 116.192 48.8723 116C48.9363 115.792 48.9683 115.52 48.9683 115.184V113.336H52.7363V115.016C52.7363 115.944 52.5443 116.728 52.1603 117.368C51.7923 117.992 51.2563 118.464 50.5523 118.784C49.8643 119.088 49.0323 119.24 48.0563 119.24ZM54.7949 119V105.128H58.7069V119H54.7949ZM54.7709 102.776V100.064H58.7069V102.776H54.7709ZM60.3064 119L62.4664 113.24C62.0984 113.032 61.7864 112.744 61.5304 112.376C61.2744 112.008 61.0824 111.576 60.9544 111.08C60.8264 110.584 60.7624 110.048 60.7624 109.472C60.7624 108.832 60.8504 108.248 61.0264 107.72C61.2184 107.192 61.5144 106.736 61.9144 106.352C62.3304 105.968 62.8664 105.672 63.5224 105.464C64.1784 105.24 64.9704 105.128 65.8984 105.128H71.0584V119H67.1704V114.056C67.1064 114.056 66.9304 114.056 66.6424 114.056C66.3544 114.04 66.1384 114.024 65.9944 114.008L64.4344 119H60.3064ZM67.0024 111.752C67.0344 111.752 67.0664 111.752 67.0984 111.752C67.1304 111.752 67.1544 111.752 67.1704 111.752V107.336C67.1544 107.336 67.1304 107.336 67.0984 107.336C67.0664 107.336 67.0344 107.336 67.0024 107.336C66.4104 107.336 65.9144 107.416 65.5144 107.576C65.1144 107.736 64.8104 107.976 64.6024 108.296C64.4104 108.6 64.3144 108.984 64.3144 109.448C64.3144 110.232 64.5464 110.808 65.0104 111.176C65.4904 111.544 66.1544 111.736 67.0024 111.752ZM74.5774 114.056L73.4494 99.6082H77.3374L75.9214 114.056H74.5774ZM73.3774 119V115.352H77.0734V119H73.3774Z" fill="black"/>
</svg>
